solid OpenSCAD_Model
  facet normal -0 0 -1
    outer loop
      vertex -9.56958 5.525 0
      vertex -1.44091e-07 11.05 0
      vertex -9.56958 -5.525 0
    endloop
  endfacet
  facet normal 0 0 -3.47731e-08
    outer loop
      vertex -9.56958 -5.525 0
      vertex -1.44091e-07 11.05 0
      vertex 2.88182e-07 11.05 0
    endloop
  endfacet
  facet normal 0 -0 -1
    outer loop
      vertex 1.39058 4.27975 0
      vertex 2.88182e-07 11.05 0
      vertex 22.6 11.05 0
    endloop
  endfacet
  facet normal 0 0 -1
    outer loop
      vertex 10.8 1.55885 0
      vertex 22.6 5.56523 0
      vertex 18.6 3.7 0
    endloop
  endfacet
  facet normal 0 0 -1
    outer loop
      vertex 4.5 0 0
      vertex 22.6 11.05 0
      vertex 22.6 5.56523 0
    endloop
  endfacet
  facet normal -0 0 -1
    outer loop
      vertex 12.6 -1.55885 0
      vertex 18.6 0 0
      vertex 22.5673 -1.85 0
    endloop
  endfacet
  facet normal 0 0 -1
    outer loop
      vertex 1.39058 -4.27975 0
      vertex 22.5673 -1.85 0
      vertex 18.6 -3.7 0
    endloop
  endfacet
  facet normal -0 0 -1
    outer loop
      vertex -9.56958 -5.525 0
      vertex 18.6 -3.7 0
      vertex 22.6 -5.56523 0
    endloop
  endfacet
  facet normal 0 0 -1
    outer loop
      vertex -9.56958 -5.525 0
      vertex 22.6 -5.56523 0
      vertex 22.6 -11.05 0
    endloop
  endfacet
  facet normal 0 0 -1
    outer loop
      vertex -9.56958 -5.525 0
      vertex 22.6 -11.05 0
      vertex 5.76364e-07 -11.05 0
    endloop
  endfacet
  facet normal 0 0 -5.21596e-08
    outer loop
      vertex -9.56958 -5.525 0
      vertex 5.76364e-07 -11.05 0
      vertex 1.44091e-07 -11.05 0
    endloop
  endfacet
  facet normal 0 0 -1
    outer loop
      vertex -9.56958 -5.525 0
      vertex 2.88182e-07 11.05 0
      vertex -4.40166 0.935603 0
    endloop
  endfacet
  facet normal 0 -0 -1
    outer loop
      vertex 9.9 0 0
      vertex 4.5 0 0
      vertex 10.8 1.55885 0
    endloop
  endfacet
  facet normal 0 0 -1
    outer loop
      vertex -9.56958 -5.525 0
      vertex -4.40166 0.935603 0
      vertex -4.40166 -0.935603 0
    endloop
  endfacet
  facet normal 0 0 -1
    outer loop
      vertex -2.25 -3.89711 0
      vertex -9.56958 -5.525 0
      vertex -3.64058 -2.64503 0
    endloop
  endfacet
  facet normal 0 0 -1
    outer loop
      vertex -0.470378 -4.47535 0
      vertex -9.56958 -5.525 0
      vertex -2.25 -3.89711 0
    endloop
  endfacet
  facet normal -0 0 -1
    outer loop
      vertex 13.5 0 0
      vertex 22.5673 1.85 0
      vertex 18.6 0 0
    endloop
  endfacet
  facet normal 0 0 -1
    outer loop
      vertex 3.01109 -3.34415 0
      vertex 12.6 -1.55885 0
      vertex 22.5673 -1.85 0
    endloop
  endfacet
  facet normal 0 0 -1
    outer loop
      vertex 13.5 0 0
      vertex 18.6 0 0
      vertex 12.6 -1.55885 0
    endloop
  endfacet
  facet normal 0 0 -1
    outer loop
      vertex -9.56958 -5.525 0
      vertex 1.39058 -4.27975 0
      vertex 18.6 -3.7 0
    endloop
  endfacet
  facet normal 0 0 -1
    outer loop
      vertex 1.39058 -4.27975 0
      vertex -9.56958 -5.525 0
      vertex -0.470378 -4.47535 0
    endloop
  endfacet
  facet normal -0 0 -1
    outer loop
      vertex 4.11095 1.83031 0
      vertex 22.6 11.05 0
      vertex 4.5 0 0
    endloop
  endfacet
  facet normal -0 0 -1
    outer loop
      vertex 1.39058 4.27975 0
      vertex 22.6 11.05 0
      vertex 3.01109 3.34415 0
    endloop
  endfacet
  facet normal -0 0 -1
    outer loop
      vertex -0.470378 4.47535 0
      vertex 2.88182e-07 11.05 0
      vertex 1.39058 4.27975 0
    endloop
  endfacet
  facet normal 0 0 -1
    outer loop
      vertex 9.9 0 0
      vertex 4.11095 -1.83031 0
      vertex 4.5 0 0
    endloop
  endfacet
  facet normal 0 0 -1
    outer loop
      vertex -2.25 3.89711 0
      vertex 2.88182e-07 11.05 0
      vertex -0.470378 4.47535 0
    endloop
  endfacet
  facet normal 0 0 -1
    outer loop
      vertex -3.64058 2.64503 0
      vertex 2.88182e-07 11.05 0
      vertex -2.25 3.89711 0
    endloop
  endfacet
  facet normal 0 0 -1
    outer loop
      vertex -4.40166 0.935603 0
      vertex 2.88182e-07 11.05 0
      vertex -3.64058 2.64503 0
    endloop
  endfacet
  facet normal 0 0 -1
    outer loop
      vertex 10.8 -1.55885 0
      vertex 4.11095 -1.83031 0
      vertex 9.9 0 0
    endloop
  endfacet
  facet normal -0 0 -1
    outer loop
      vertex 3.01109 -3.34415 0
      vertex 22.5673 -1.85 0
      vertex 1.39058 -4.27975 0
    endloop
  endfacet
  facet normal -0 0 -1
    outer loop
      vertex 4.11095 -1.83031 0
      vertex 10.8 -1.55885 0
      vertex 3.01109 -3.34415 0
    endloop
  endfacet
  facet normal -0 0 -1
    outer loop
      vertex 12.6 1.55885 0
      vertex 22.5673 1.85 0
      vertex 13.5 0 0
    endloop
  endfacet
  facet normal 0 0 -1
    outer loop
      vertex 12.6 -1.55885 0
      vertex 3.01109 -3.34415 0
      vertex 10.8 -1.55885 0
    endloop
  endfacet
  facet normal 0 0 -1
    outer loop
      vertex 12.6 1.55885 0
      vertex 18.6 3.7 0
      vertex 22.5673 1.85 0
    endloop
  endfacet
  facet normal 0 0 -1
    outer loop
      vertex -3.64058 -2.64503 0
      vertex -9.56958 -5.525 0
      vertex -4.40166 -0.935603 0
    endloop
  endfacet
  facet normal -0 0 -1
    outer loop
      vertex 3.01109 3.34415 0
      vertex 22.6 11.05 0
      vertex 4.11095 1.83031 0
    endloop
  endfacet
  facet normal -0 0 -1
    outer loop
      vertex 10.8 1.55885 0
      vertex 18.6 3.7 0
      vertex 12.6 1.55885 0
    endloop
  endfacet
  facet normal 0 0 -1
    outer loop
      vertex 4.5 0 0
      vertex 22.6 5.56523 0
      vertex 10.8 1.55885 0
    endloop
  endfacet
  facet normal -0.5 0.866025 0
    outer loop
      vertex -9.56958 5.525 0
      vertex -9.56958 5.525 10
      vertex -1.44091e-07 11.05 0
    endloop
  endfacet
  facet normal -0.5 0.866025 0
    outer loop
      vertex -1.44091e-07 11.05 0
      vertex -9.56958 5.525 10
      vertex -1.44091e-07 11.05 10
    endloop
  endfacet
  facet normal -1 -1.30399e-08 -0
    outer loop
      vertex -9.56958 5.525 0
      vertex -9.56958 -5.525 0
      vertex -9.56958 5.525 10
    endloop
  endfacet
  facet normal -1 -1.30399e-08 0
    outer loop
      vertex -9.56958 5.525 10
      vertex -9.56958 -5.525 0
      vertex -9.56958 -5.525 10
    endloop
  endfacet
  facet normal -0.5 -0.866025 0
    outer loop
      vertex -9.56958 -5.525 10
      vertex -9.56958 -5.525 0
      vertex 1.44091e-07 -11.05 0
    endloop
  endfacet
  facet normal -0.5 -0.866025 0
    outer loop
      vertex 1.44091e-07 -11.05 10
      vertex -9.56958 -5.525 10
      vertex 1.44091e-07 -11.05 0
    endloop
  endfacet
  facet normal 2.49573e-08 -4.32273e-08 0
    outer loop
      vertex 1.44091e-07 -11.05 10
      vertex 1.44091e-07 -11.05 0
      vertex 5.76364e-07 -11.05 0
    endloop
  endfacet
  facet normal 2.49573e-08 -4.32273e-08 0
    outer loop
      vertex 5.76364e-07 -11.05 10
      vertex 1.44091e-07 -11.05 10
      vertex 5.76364e-07 -11.05 0
    endloop
  endfacet
  facet normal 0 -1 0
    outer loop
      vertex 5.76364e-07 -11.05 10
      vertex 5.76364e-07 -11.05 0
      vertex 22.6 -11.05 0
    endloop
  endfacet
  facet normal 0 -1 0
    outer loop
      vertex 22.6 -11.05 10
      vertex 5.76364e-07 -11.05 10
      vertex 22.6 -11.05 0
    endloop
  endfacet
  facet normal 1 0 -0
    outer loop
      vertex 22.6 -11.05 10
      vertex 22.6 -11.05 0
      vertex 22.6 -5.56523 0
    endloop
  endfacet
  facet normal 1 0 0
    outer loop
      vertex 22.6 -5.56523 10
      vertex 22.6 -11.05 10
      vertex 22.6 -5.56523 0
    endloop
  endfacet
  facet normal 0.422618 0.906308 -0
    outer loop
      vertex 22.6 -5.56523 10
      vertex 22.6 -5.56523 0
      vertex 18.6 -3.7 10
    endloop
  endfacet
  facet normal 0.422618 0.906308 -0
    outer loop
      vertex 18.6 -3.7 10
      vertex 22.6 -5.56523 0
      vertex 18.6 -3.7 0
    endloop
  endfacet
  facet normal 0.422618 -0.906308 0
    outer loop
      vertex 18.6 -3.7 10
      vertex 18.6 -3.7 0
      vertex 22.5673 -1.85 0
    endloop
  endfacet
  facet normal 0.422618 -0.906308 0
    outer loop
      vertex 22.5673 -1.85 10
      vertex 18.6 -3.7 10
      vertex 22.5673 -1.85 0
    endloop
  endfacet
  facet normal 0.422618 0.906308 -0
    outer loop
      vertex 22.5673 -1.85 10
      vertex 22.5673 -1.85 0
      vertex 18.6 0 10
    endloop
  endfacet
  facet normal 0.422618 0.906308 -0
    outer loop
      vertex 18.6 0 10
      vertex 22.5673 -1.85 0
      vertex 18.6 0 0
    endloop
  endfacet
  facet normal 0.422618 -0.906308 0
    outer loop
      vertex 18.6 0 10
      vertex 18.6 0 0
      vertex 22.5673 1.85 0
    endloop
  endfacet
  facet normal 0.422618 -0.906308 0
    outer loop
      vertex 22.5673 1.85 10
      vertex 18.6 0 10
      vertex 22.5673 1.85 0
    endloop
  endfacet
  facet normal 0.422618 0.906308 -0
    outer loop
      vertex 22.5673 1.85 10
      vertex 22.5673 1.85 0
      vertex 18.6 3.7 10
    endloop
  endfacet
  facet normal 0.422618 0.906308 -0
    outer loop
      vertex 18.6 3.7 10
      vertex 22.5673 1.85 0
      vertex 18.6 3.7 0
    endloop
  endfacet
  facet normal 0.422618 -0.906308 0
    outer loop
      vertex 18.6 3.7 10
      vertex 18.6 3.7 0
      vertex 22.6 5.56523 0
    endloop
  endfacet
  facet normal 0.422618 -0.906308 0
    outer loop
      vertex 22.6 5.56523 10
      vertex 18.6 3.7 10
      vertex 22.6 5.56523 0
    endloop
  endfacet
  facet normal 1 0 -0
    outer loop
      vertex 22.6 5.56523 10
      vertex 22.6 5.56523 0
      vertex 22.6 11.05 0
    endloop
  endfacet
  facet normal 1 0 0
    outer loop
      vertex 22.6 11.05 10
      vertex 22.6 5.56523 10
      vertex 22.6 11.05 0
    endloop
  endfacet
  facet normal 1 0 -0
    outer loop
      vertex 22.6 7.05 24
      vertex 22.6 7.05 10
      vertex 22.6 11.05 10
    endloop
  endfacet
  facet normal 1 0 0
    outer loop
      vertex 22.6 11.05 24
      vertex 22.6 7.05 24
      vertex 22.6 11.05 10
    endloop
  endfacet
  facet normal 7.40149e-17 0 0
    outer loop
      vertex 22.6 11.05 0
      vertex 22.6 11.05 24
      vertex 22.6 11.05 10
    endloop
  endfacet
  facet normal 0 2.05844e-08 0
    outer loop
      vertex 0 11.05 10
      vertex 0 11.05 24
      vertex 2.88182e-07 11.05 10
    endloop
  endfacet
  facet normal 0 1 0
    outer loop
      vertex 8.89058 11.05 18.7798
      vertex 0 11.05 24
      vertex 22.6 11.05 24
    endloop
  endfacet
  facet normal 0 1 0
    outer loop
      vertex 20.6 11.05 14.5
      vertex 22.6 11.05 24
      vertex 22.6 11.05 0
    endloop
  endfacet
  facet normal -0 1 0
    outer loop
      vertex 3.85942 11.05 11.855
      vertex 2.88182e-07 11.05 10
      vertex 3.09834 11.05 13.5644
    endloop
  endfacet
  facet normal 0 1 0
    outer loop
      vertex 2.88182e-07 11.05 10
      vertex 0 11.05 24
      vertex 3.09834 11.05 15.4356
    endloop
  endfacet
  facet normal 0 1 0
    outer loop
      vertex 2.88182e-07 11.05 10
      vertex 3.09834 11.05 15.4356
      vertex 3.09834 11.05 13.5644
    endloop
  endfacet
  facet normal -0 1 -0
    outer loop
      vertex 7.02962 11.05 10.0247
      vertex 22.6 11.05 0
      vertex 5.25 11.05 10.6029
    endloop
  endfacet
  facet normal 0 1 0
    outer loop
      vertex 2.88182e-07 11.05 10
      vertex 3.85942 11.05 11.855
      vertex 5.25 11.05 10.6029
    endloop
  endfacet
  facet normal 0 1 0
    outer loop
      vertex 2.88182e-07 11.05 10
      vertex 5.25 11.05 10.6029
      vertex 22.6 11.05 0
    endloop
  endfacet
  facet normal 0 1 0
    outer loop
      vertex 10.5111 11.05 17.8442
      vertex 22.6 11.05 24
      vertex 11.611 11.05 16.3303
    endloop
  endfacet
  facet normal 0 1 -0
    outer loop
      vertex 12 11.05 14.5
      vertex 22.6 11.05 24
      vertex 11.611 11.05 12.6697
    endloop
  endfacet
  facet normal 0 1 0
    outer loop
      vertex 7.02962 11.05 10.0247
      vertex 8.89058 11.05 10.2202
      vertex 22.6 11.05 0
    endloop
  endfacet
  facet normal 0 1 -0
    outer loop
      vertex 11.611 11.05 12.6697
      vertex 22.6 11.05 24
      vertex 10.5111 11.05 11.1558
    endloop
  endfacet
  facet normal 0 1 0
    outer loop
      vertex 8.89058 11.05 10.2202
      vertex 10.5111 11.05 11.1558
      vertex 22.6 11.05 0
    endloop
  endfacet
  facet normal 0 1 0
    outer loop
      vertex 11.611 11.05 16.3303
      vertex 22.6 11.05 24
      vertex 12 11.05 14.5
    endloop
  endfacet
  facet normal 0 1 0
    outer loop
      vertex 8.89058 11.05 18.7798
      vertex 22.6 11.05 24
      vertex 10.5111 11.05 17.8442
    endloop
  endfacet
  facet normal 0 1 0
    outer loop
      vertex 7.02962 11.05 18.9753
      vertex 0 11.05 24
      vertex 8.89058 11.05 18.7798
    endloop
  endfacet
  facet normal 0 1 0
    outer loop
      vertex 19.7 11.05 16.0588
      vertex 22.6 11.05 24
      vertex 20.6 11.05 14.5
    endloop
  endfacet
  facet normal 0 1 0
    outer loop
      vertex 5.25 11.05 18.3971
      vertex 0 11.05 24
      vertex 7.02962 11.05 18.9753
    endloop
  endfacet
  facet normal 0 1 0
    outer loop
      vertex 3.85942 11.05 17.145
      vertex 0 11.05 24
      vertex 5.25 11.05 18.3971
    endloop
  endfacet
  facet normal 0 1 0
    outer loop
      vertex 3.09834 11.05 15.4356
      vertex 0 11.05 24
      vertex 3.85942 11.05 17.145
    endloop
  endfacet
  facet normal 0 1 0
    outer loop
      vertex 10.5111 11.05 11.1558
      vertex 17 11.05 14.5
      vertex 22.6 11.05 0
    endloop
  endfacet
  facet normal 0 1 0
    outer loop
      vertex 17 11.05 14.5
      vertex 17.9 11.05 12.9412
      vertex 22.6 11.05 0
    endloop
  endfacet
  facet normal 0 1 0
    outer loop
      vertex 17.9 11.05 16.0588
      vertex 22.6 11.05 24
      vertex 19.7 11.05 16.0588
    endloop
  endfacet
  facet normal 0 1 0
    outer loop
      vertex 17.9 11.05 12.9412
      vertex 19.7 11.05 12.9412
      vertex 22.6 11.05 0
    endloop
  endfacet
  facet normal 0 1 0
    outer loop
      vertex 19.7 11.05 12.9412
      vertex 20.6 11.05 14.5
      vertex 22.6 11.05 0
    endloop
  endfacet
  facet normal 0 1 0
    outer loop
      vertex 10.5111 11.05 11.1558
      vertex 22.6 11.05 24
      vertex 17.9 11.05 16.0588
    endloop
  endfacet
  facet normal 0 1 0
    outer loop
      vertex 10.5111 11.05 11.1558
      vertex 17.9 11.05 16.0588
      vertex 17 11.05 14.5
    endloop
  endfacet
  facet normal 0 1 -0
    outer loop
      vertex 2.88182e-07 11.05 10
      vertex 22.6 11.05 0
      vertex 2.88182e-07 11.05 0
    endloop
  endfacet
  facet normal 2.49573e-08 4.32273e-08 0
    outer loop
      vertex -1.44091e-07 11.05 0
      vertex -1.44091e-07 11.05 10
      vertex 2.88182e-07 11.05 0
    endloop
  endfacet
  facet normal 2.49573e-08 4.32273e-08 0
    outer loop
      vertex 2.88182e-07 11.05 0
      vertex -1.44091e-07 11.05 10
      vertex 2.88182e-07 11.05 10
    endloop
  endfacet
  facet normal 0.913545 -0.406737 0
    outer loop
      vertex -3.64058 2.64503 0
      vertex -3.64058 2.64503 5
      vertex -4.40166 0.935603 5
    endloop
  endfacet
  facet normal 0.913545 -0.406737 0
    outer loop
      vertex -4.40166 0.935603 0
      vertex -3.64058 2.64503 0
      vertex -4.40166 0.935603 5
    endloop
  endfacet
  facet normal 1 0 0
    outer loop
      vertex -4.40166 0.935603 0
      vertex -4.40166 0.935603 5
      vertex -4.40166 -0.935603 5
    endloop
  endfacet
  facet normal 1 0 0
    outer loop
      vertex -4.40166 -0.935603 0
      vertex -4.40166 0.935603 0
      vertex -4.40166 -0.935603 5
    endloop
  endfacet
  facet normal 0.669131 -0.743145 0
    outer loop
      vertex -2.25 3.89711 0
      vertex -2.25 3.89711 5
      vertex -3.64058 2.64503 5
    endloop
  endfacet
  facet normal 0.669131 -0.743145 0
    outer loop
      vertex -3.64058 2.64503 0
      vertex -2.25 3.89711 0
      vertex -3.64058 2.64503 5
    endloop
  endfacet
  facet normal 0.309017 -0.951056 0
    outer loop
      vertex -0.470378 4.47535 0
      vertex -0.470378 4.47535 5
      vertex -2.25 3.89711 5
    endloop
  endfacet
  facet normal 0.309017 -0.951056 0
    outer loop
      vertex -2.25 3.89711 0
      vertex -0.470378 4.47535 0
      vertex -2.25 3.89711 5
    endloop
  endfacet
  facet normal -0.104529 -0.994522 -0
    outer loop
      vertex 1.39058 4.27975 0
      vertex 1.39058 4.27975 5
      vertex -0.470378 4.47535 5
    endloop
  endfacet
  facet normal -0.104529 -0.994522 -0
    outer loop
      vertex -0.470378 4.47535 0
      vertex 1.39058 4.27975 0
      vertex -0.470378 4.47535 5
    endloop
  endfacet
  facet normal -0.5 -0.866026 -0
    outer loop
      vertex 3.01109 3.34415 0
      vertex 3.01109 3.34415 5
      vertex 1.39058 4.27975 5
    endloop
  endfacet
  facet normal -0.5 -0.866026 -0
    outer loop
      vertex 1.39058 4.27975 0
      vertex 3.01109 3.34415 0
      vertex 1.39058 4.27975 5
    endloop
  endfacet
  facet normal -0.809017 -0.587785 0
    outer loop
      vertex 4.11095 1.83031 5
      vertex 3.01109 3.34415 5
      vertex 4.11095 1.83031 0
    endloop
  endfacet
  facet normal -0.809017 -0.587785 0
    outer loop
      vertex 4.11095 1.83031 0
      vertex 3.01109 3.34415 5
      vertex 3.01109 3.34415 0
    endloop
  endfacet
  facet normal -0.978148 -0.207911 0
    outer loop
      vertex 4.5 0 5
      vertex 4.11095 1.83031 5
      vertex 4.5 0 0
    endloop
  endfacet
  facet normal -0.978148 -0.207911 0
    outer loop
      vertex 4.5 0 0
      vertex 4.11095 1.83031 5
      vertex 4.11095 1.83031 0
    endloop
  endfacet
  facet normal -0.978148 0.207911 0
    outer loop
      vertex 4.5 0 5
      vertex 4.5 0 0
      vertex 4.11095 -1.83031 5
    endloop
  endfacet
  facet normal -0.978148 0.207911 0
    outer loop
      vertex 4.11095 -1.83031 5
      vertex 4.5 0 0
      vertex 4.11095 -1.83031 0
    endloop
  endfacet
  facet normal -0.809017 0.587785 0
    outer loop
      vertex 4.11095 -1.83031 5
      vertex 4.11095 -1.83031 0
      vertex 3.01109 -3.34415 5
    endloop
  endfacet
  facet normal -0.809017 0.587785 0
    outer loop
      vertex 3.01109 -3.34415 5
      vertex 4.11095 -1.83031 0
      vertex 3.01109 -3.34415 0
    endloop
  endfacet
  facet normal -0.5 0.866026 0
    outer loop
      vertex 3.01109 -3.34415 5
      vertex 3.01109 -3.34415 0
      vertex 1.39058 -4.27975 5
    endloop
  endfacet
  facet normal -0.5 0.866026 0
    outer loop
      vertex 1.39058 -4.27975 5
      vertex 3.01109 -3.34415 0
      vertex 1.39058 -4.27975 0
    endloop
  endfacet
  facet normal -0.104529 0.994522 0
    outer loop
      vertex 1.39058 -4.27975 5
      vertex 1.39058 -4.27975 0
      vertex -0.470378 -4.47535 5
    endloop
  endfacet
  facet normal -0.104529 0.994522 0
    outer loop
      vertex -0.470378 -4.47535 5
      vertex 1.39058 -4.27975 0
      vertex -0.470378 -4.47535 0
    endloop
  endfacet
  facet normal 0.309017 0.951056 -0
    outer loop
      vertex -0.470378 -4.47535 5
      vertex -0.470378 -4.47535 0
      vertex -2.25 -3.89711 5
    endloop
  endfacet
  facet normal 0.309017 0.951056 -0
    outer loop
      vertex -2.25 -3.89711 5
      vertex -0.470378 -4.47535 0
      vertex -2.25 -3.89711 0
    endloop
  endfacet
  facet normal 0.669131 0.743145 -0
    outer loop
      vertex -2.25 -3.89711 5
      vertex -2.25 -3.89711 0
      vertex -3.64058 -2.64503 5
    endloop
  endfacet
  facet normal 0.669131 0.743145 -0
    outer loop
      vertex -3.64058 -2.64503 5
      vertex -2.25 -3.89711 0
      vertex -3.64058 -2.64503 0
    endloop
  endfacet
  facet normal 0.913545 0.406737 0
    outer loop
      vertex -4.40166 -0.935603 5
      vertex -3.64058 -2.64503 5
      vertex -3.64058 -2.64503 0
    endloop
  endfacet
  facet normal 0.913545 0.406737 0
    outer loop
      vertex -4.40166 -0.935603 0
      vertex -4.40166 -0.935603 5
      vertex -3.64058 -2.64503 0
    endloop
  endfacet
  facet normal 0.866025 -0.5 0
    outer loop
      vertex 10.8 1.55885 0
      vertex 10.8 1.55885 5
      vertex 9.9 0 5
    endloop
  endfacet
  facet normal 0.866025 -0.5 0
    outer loop
      vertex 9.9 0 0
      vertex 10.8 1.55885 0
      vertex 9.9 0 5
    endloop
  endfacet
  facet normal 0.866025 0.5 0
    outer loop
      vertex 9.9 0 5
      vertex 10.8 -1.55885 5
      vertex 10.8 -1.55885 0
    endloop
  endfacet
  facet normal 0.866025 0.5 0
    outer loop
      vertex 9.9 0 0
      vertex 9.9 0 5
      vertex 10.8 -1.55885 0
    endloop
  endfacet
  facet normal 0 -1 0
    outer loop
      vertex 12.6 1.55885 0
      vertex 12.6 1.55885 5
      vertex 10.8 1.55885 5
    endloop
  endfacet
  facet normal -0 -1 -0
    outer loop
      vertex 10.8 1.55885 0
      vertex 12.6 1.55885 0
      vertex 10.8 1.55885 5
    endloop
  endfacet
  facet normal -0.866025 -0.5 0
    outer loop
      vertex 13.5 0 5
      vertex 12.6 1.55885 5
      vertex 13.5 0 0
    endloop
  endfacet
  facet normal -0.866025 -0.5 0
    outer loop
      vertex 13.5 0 0
      vertex 12.6 1.55885 5
      vertex 12.6 1.55885 0
    endloop
  endfacet
  facet normal -0.866025 0.5 0
    outer loop
      vertex 13.5 0 5
      vertex 13.5 0 0
      vertex 12.6 -1.55885 5
    endloop
  endfacet
  facet normal -0.866025 0.5 0
    outer loop
      vertex 12.6 -1.55885 5
      vertex 13.5 0 0
      vertex 12.6 -1.55885 0
    endloop
  endfacet
  facet normal 0 1 0
    outer loop
      vertex 12.6 -1.55885 5
      vertex 12.6 -1.55885 0
      vertex 10.8 -1.55885 5
    endloop
  endfacet
  facet normal 0 1 -0
    outer loop
      vertex 10.8 -1.55885 5
      vertex 12.6 -1.55885 0
      vertex 10.8 -1.55885 0
    endloop
  endfacet
  facet normal -0 0 1
    outer loop
      vertex -6.10548 3.525 10
      vertex -9.56958 5.525 10
      vertex -9.56958 -5.525 10
    endloop
  endfacet
  facet normal 0 0 9.14234e-09
    outer loop
      vertex 4.83401e-08 7.05 10
      vertex 6.10548 3.525 10
      vertex 0 7.05 10
    endloop
  endfacet
  facet normal 0 0 1
    outer loop
      vertex -6.10548 3.525 10
      vertex 0 7.05 10
      vertex -1.44091e-07 11.05 10
    endloop
  endfacet
  facet normal -0 0 1
    outer loop
      vertex 22.6 -5.56523 10
      vertex 18.6 -3.7 10
      vertex 22.6 -11.05 10
    endloop
  endfacet
  facet normal 0 0 1
    outer loop
      vertex 22.6 7.05 10
      vertex 18.6 3.7 10
      vertex 22.6 5.56523 10
    endloop
  endfacet
  facet normal 0 0 1
    outer loop
      vertex 0 11.05 10
      vertex 2.88182e-07 11.05 10
      vertex -1.44091e-07 11.05 10
    endloop
  endfacet
  facet normal 0 0 0
    outer loop
      vertex 22.6 11.05 10
      vertex 22.6 7.05 10
      vertex 22.6 5.56523 10
    endloop
  endfacet
  facet normal -0 0 3.60227e-08
    outer loop
      vertex 0 11.05 10
      vertex -1.44091e-07 11.05 10
      vertex 0 7.05 10
    endloop
  endfacet
  facet normal 0 0 1
    outer loop
      vertex 1.44091e-07 -11.05 10
      vertex -6.10548 -3.525 10
      vertex -9.56958 -5.525 10
    endloop
  endfacet
  facet normal 0 0 1
    outer loop
      vertex -1.44091e-07 11.05 10
      vertex -9.56958 5.525 10
      vertex -6.10548 3.525 10
    endloop
  endfacet
  facet normal 0 0 1
    outer loop
      vertex 9.40503 -1.325 10
      vertex 9.40503 1.325 10
      vertex 6.10548 3.525 10
    endloop
  endfacet
  facet normal 0 -0 1
    outer loop
      vertex 13.995 1.325 10
      vertex 13.995 -1.325 10
      vertex 18.6 -3.7 10
    endloop
  endfacet
  facet normal -0 0 1
    outer loop
      vertex -6.10548 -3.525 10
      vertex -6.10548 3.525 10
      vertex -9.56958 -5.525 10
    endloop
  endfacet
  facet normal -0 0 1
    outer loop
      vertex 22.6 -11.05 10
      vertex 6.10548 -3.525 10
      vertex 5.76364e-07 -11.05 10
    endloop
  endfacet
  facet normal 0 0 1
    outer loop
      vertex 1.44091e-07 -11.05 10
      vertex -4.83401e-08 -7.05 10
      vertex -6.10548 -3.525 10
    endloop
  endfacet
  facet normal 0 -0 1
    outer loop
      vertex 6.10548 3.525 10
      vertex 6.10548 -3.525 10
      vertex 9.40503 -1.325 10
    endloop
  endfacet
  facet normal 0 0 1
    outer loop
      vertex 22.6 -11.05 10
      vertex 9.40503 -1.325 10
      vertex 6.10548 -3.525 10
    endloop
  endfacet
  facet normal 0 0 3.05355e-08
    outer loop
      vertex 6.10548 -3.525 10
      vertex 1.44091e-07 -11.05 10
      vertex 5.76364e-07 -11.05 10
    endloop
  endfacet
  facet normal 0 0 1
    outer loop
      vertex 18.6 0 10
      vertex 11.7 2.65 10
      vertex 13.995 1.325 10
    endloop
  endfacet
  facet normal -0 -0 1
    outer loop
      vertex 18.6 -3.7 10
      vertex 13.995 -1.325 10
      vertex 22.6 -11.05 10
    endloop
  endfacet
  facet normal 0 0 1.82847e-08
    outer loop
      vertex -6.10548 3.525 10
      vertex 4.83401e-08 7.05 10
      vertex 0 7.05 10
    endloop
  endfacet
  facet normal 0 0 1
    outer loop
      vertex 22.6 -11.05 10
      vertex 11.7 -2.65 10
      vertex 9.40503 -1.325 10
    endloop
  endfacet
  facet normal 0 0 1
    outer loop
      vertex 6.10548 -3.525 10
      vertex -4.83401e-08 -7.05 10
      vertex 1.44091e-07 -11.05 10
    endloop
  endfacet
  facet normal 0 -0 1
    outer loop
      vertex 13.995 -1.325 10
      vertex 11.7 -2.65 10
      vertex 22.6 -11.05 10
    endloop
  endfacet
  facet normal 0 0 1
    outer loop
      vertex 18.6 -3.7 10
      vertex 18.6 0 10
      vertex 13.995 1.325 10
    endloop
  endfacet
  facet normal 0 0 1
    outer loop
      vertex 18.6 -3.7 10
      vertex 22.5673 -1.85 10
      vertex 18.6 0 10
    endloop
  endfacet
  facet normal 0 -0 1
    outer loop
      vertex 18.6 3.7 10
      vertex 18.6 0 10
      vertex 22.5673 1.85 10
    endloop
  endfacet
  facet normal 0 0 1
    outer loop
      vertex 18.6 3.7 10
      vertex 11.7 2.65 10
      vertex 18.6 0 10
    endloop
  endfacet
  facet normal 0 0 1
    outer loop
      vertex 22.6 7.05 10
      vertex 11.7 2.65 10
      vertex 18.6 3.7 10
    endloop
  endfacet
  facet normal -0 0 1
    outer loop
      vertex 11.7 2.65 10
      vertex 6.10548 3.525 10
      vertex 9.40503 1.325 10
    endloop
  endfacet
  facet normal 0 0 1
    outer loop
      vertex 22.6 7.05 10
      vertex 6.10548 3.525 10
      vertex 11.7 2.65 10
    endloop
  endfacet
  facet normal 0 0 1
    outer loop
      vertex 22.6 7.05 10
      vertex 0 7.05 10
      vertex 6.10548 3.525 10
    endloop
  endfacet
  facet normal 0 -1 0
    outer loop
      vertex 7.02962 7.05 10.0247
      vertex 0 7.05 10
      vertex 22.6 7.05 10
    endloop
  endfacet
  facet normal 0 -1 0
    outer loop
      vertex 0 7.05 24
      vertex 0 7.05 10
      vertex 3.09834 7.05 13.5644
    endloop
  endfacet
  facet normal 0 -1 0
    outer loop
      vertex 11.611 7.05 12.6697
      vertex 10.5111 7.05 11.1558
      vertex 22.6 7.05 10
    endloop
  endfacet
  facet normal 0 -1 0
    outer loop
      vertex 0 7.05 24
      vertex 3.09834 7.05 13.5644
      vertex 3.09834 7.05 15.4356
    endloop
  endfacet
  facet normal 0 -1 0
    outer loop
      vertex 7.02962 7.05 10.0247
      vertex 5.25 7.05 10.6029
      vertex 0 7.05 10
    endloop
  endfacet
  facet normal 0 -1 0
    outer loop
      vertex 0 7.05 24
      vertex 3.09834 7.05 15.4356
      vertex 3.85942 7.05 17.145
    endloop
  endfacet
  facet normal 0 -1 0
    outer loop
      vertex 0 7.05 24
      vertex 3.85942 7.05 17.145
      vertex 5.25 7.05 18.3971
    endloop
  endfacet
  facet normal 0 -1 0
    outer loop
      vertex 0 7.05 24
      vertex 5.25 7.05 18.3971
      vertex 7.02962 7.05 18.9753
    endloop
  endfacet
  facet normal 0 -1 0
    outer loop
      vertex 22.6 7.05 24
      vertex 0 7.05 24
      vertex 8.89058 7.05 18.7798
    endloop
  endfacet
  facet normal -0 -1 0
    outer loop
      vertex 17.9 7.05 16.0588
      vertex 19.7 7.05 16.0588
      vertex 22.6 7.05 24
    endloop
  endfacet
  facet normal 0 -1 0
    outer loop
      vertex 22.6 7.05 24
      vertex 8.89058 7.05 18.7798
      vertex 10.5111 7.05 17.8442
    endloop
  endfacet
  facet normal 0 -1 0
    outer loop
      vertex 17.9 7.05 12.9412
      vertex 17 7.05 14.5
      vertex 10.5111 7.05 17.8442
    endloop
  endfacet
  facet normal 0 -1 0
    outer loop
      vertex 10.5111 7.05 11.1558
      vertex 8.89058 7.05 10.2202
      vertex 22.6 7.05 10
    endloop
  endfacet
  facet normal 0 -1 0
    outer loop
      vertex 8.89058 7.05 10.2202
      vertex 7.02962 7.05 10.0247
      vertex 22.6 7.05 10
    endloop
  endfacet
  facet normal 0 -1 0
    outer loop
      vertex 19.7 7.05 12.9412
      vertex 17.9 7.05 12.9412
      vertex 22.6 7.05 10
    endloop
  endfacet
  facet normal 0 -1 0
    outer loop
      vertex 3.85942 7.05 11.855
      vertex 0 7.05 10
      vertex 5.25 7.05 10.6029
    endloop
  endfacet
  facet normal 0 -1 0
    outer loop
      vertex 3.09834 7.05 13.5644
      vertex 0 7.05 10
      vertex 3.85942 7.05 11.855
    endloop
  endfacet
  facet normal 0 -1 0
    outer loop
      vertex 17.9 7.05 16.0588
      vertex 10.5111 7.05 17.8442
      vertex 17 7.05 14.5
    endloop
  endfacet
  facet normal 0 -1 0
    outer loop
      vertex 20.6 7.05 14.5
      vertex 19.7 7.05 12.9412
      vertex 22.6 7.05 10
    endloop
  endfacet
  facet normal 0 -1 0
    outer loop
      vertex 22.6 7.05 24
      vertex 10.5111 7.05 17.8442
      vertex 17.9 7.05 16.0588
    endloop
  endfacet
  facet normal 0 -1 0
    outer loop
      vertex 22.6 7.05 24
      vertex 20.6 7.05 14.5
      vertex 22.6 7.05 10
    endloop
  endfacet
  facet normal 0 -1 0
    outer loop
      vertex 22.6 7.05 24
      vertex 19.7 7.05 16.0588
      vertex 20.6 7.05 14.5
    endloop
  endfacet
  facet normal 0 -1 0
    outer loop
      vertex 11.611 7.05 16.3303
      vertex 12 7.05 14.5
      vertex 22.6 7.05 10
    endloop
  endfacet
  facet normal 0 -1 0
    outer loop
      vertex 12 7.05 14.5
      vertex 11.611 7.05 12.6697
      vertex 22.6 7.05 10
    endloop
  endfacet
  facet normal -0 -1 -0
    outer loop
      vertex 7.02962 7.05 18.9753
      vertex 8.89058 7.05 18.7798
      vertex 0 7.05 24
    endloop
  endfacet
  facet normal 0 -1 0
    outer loop
      vertex 17.9 7.05 12.9412
      vertex 11.611 7.05 16.3303
      vertex 22.6 7.05 10
    endloop
  endfacet
  facet normal 0 -1 0
    outer loop
      vertex 10.5111 7.05 17.8442
      vertex 11.611 7.05 16.3303
      vertex 17.9 7.05 12.9412
    endloop
  endfacet
  facet normal 0 -0 1
    outer loop
      vertex 0 11.05 24
      vertex 0 7.05 24
      vertex 22.6 7.05 24
    endloop
  endfacet
  facet normal 0 0 1
    outer loop
      vertex 22.6 11.05 24
      vertex 0 11.05 24
      vertex 22.6 7.05 24
    endloop
  endfacet
  facet normal -1 -0 -0
    outer loop
      vertex 0 7.05 10
      vertex 0 7.05 24
      vertex 0 11.05 10
    endloop
  endfacet
  facet normal -1 0 0
    outer loop
      vertex 0 11.05 10
      vertex 0 7.05 24
      vertex 0 11.05 24
    endloop
  endfacet
  facet normal 0.913545 0 -0.406737
    outer loop
      vertex 3.09834 11.05 15.4356
      vertex 3.85942 11.05 17.145
      vertex 3.85942 7.05 17.145
    endloop
  endfacet
  facet normal 0.913545 -1.80627e-16 -0.406737
    outer loop
      vertex 3.09834 7.05 15.4356
      vertex 3.09834 11.05 15.4356
      vertex 3.85942 7.05 17.145
    endloop
  endfacet
  facet normal 1 0 0
    outer loop
      vertex 3.09834 11.05 13.5644
      vertex 3.09834 11.05 15.4356
      vertex 3.09834 7.05 15.4356
    endloop
  endfacet
  facet normal 1 0 0
    outer loop
      vertex 3.09834 7.05 13.5644
      vertex 3.09834 11.05 13.5644
      vertex 3.09834 7.05 15.4356
    endloop
  endfacet
  facet normal 0.669131 0 -0.743145
    outer loop
      vertex 5.25 11.05 18.3971
      vertex 5.25 7.05 18.3971
      vertex 3.85942 11.05 17.145
    endloop
  endfacet
  facet normal 0.669131 0 -0.743145
    outer loop
      vertex 3.85942 11.05 17.145
      vertex 5.25 7.05 18.3971
      vertex 3.85942 7.05 17.145
    endloop
  endfacet
  facet normal 0.309017 0 -0.951056
    outer loop
      vertex 7.02962 11.05 18.9753
      vertex 7.02962 7.05 18.9753
      vertex 5.25 11.05 18.3971
    endloop
  endfacet
  facet normal 0.309017 0 -0.951056
    outer loop
      vertex 5.25 11.05 18.3971
      vertex 7.02962 7.05 18.9753
      vertex 5.25 7.05 18.3971
    endloop
  endfacet
  facet normal -0.104529 -8.83313e-16 -0.994522
    outer loop
      vertex 8.89058 11.05 18.7798
      vertex 8.89058 7.05 18.7798
      vertex 7.02962 11.05 18.9753
    endloop
  endfacet
  facet normal -0.104529 0 -0.994522
    outer loop
      vertex 7.02962 11.05 18.9753
      vertex 8.89058 7.05 18.7798
      vertex 7.02962 7.05 18.9753
    endloop
  endfacet
  facet normal -0.5 0 -0.866026
    outer loop
      vertex 10.5111 11.05 17.8442
      vertex 10.5111 7.05 17.8442
      vertex 8.89058 11.05 18.7798
    endloop
  endfacet
  facet normal -0.5 -7.69185e-16 -0.866026
    outer loop
      vertex 8.89058 11.05 18.7798
      vertex 10.5111 7.05 17.8442
      vertex 8.89058 7.05 18.7798
    endloop
  endfacet
  facet normal -0.809017 0 -0.587785
    outer loop
      vertex 11.611 11.05 16.3303
      vertex 11.611 7.05 16.3303
      vertex 10.5111 11.05 17.8442
    endloop
  endfacet
  facet normal -0.809017 0 -0.587785
    outer loop
      vertex 10.5111 11.05 17.8442
      vertex 11.611 7.05 16.3303
      vertex 10.5111 7.05 17.8442
    endloop
  endfacet
  facet normal -0.978148 0 -0.207911
    outer loop
      vertex 12 11.05 14.5
      vertex 12 7.05 14.5
      vertex 11.611 11.05 16.3303
    endloop
  endfacet
  facet normal -0.978148 0 -0.207911
    outer loop
      vertex 11.611 11.05 16.3303
      vertex 12 7.05 14.5
      vertex 11.611 7.05 16.3303
    endloop
  endfacet
  facet normal -0.978148 0 0.207911
    outer loop
      vertex 12 11.05 14.5
      vertex 11.611 11.05 12.6697
      vertex 12 7.05 14.5
    endloop
  endfacet
  facet normal -0.978148 0 0.207911
    outer loop
      vertex 12 7.05 14.5
      vertex 11.611 11.05 12.6697
      vertex 11.611 7.05 12.6697
    endloop
  endfacet
  facet normal -0.809017 0 0.587785
    outer loop
      vertex 11.611 11.05 12.6697
      vertex 10.5111 11.05 11.1558
      vertex 11.611 7.05 12.6697
    endloop
  endfacet
  facet normal -0.809017 2.66994e-16 0.587785
    outer loop
      vertex 11.611 7.05 12.6697
      vertex 10.5111 11.05 11.1558
      vertex 10.5111 7.05 11.1558
    endloop
  endfacet
  facet normal -0.5 3.84593e-16 0.866026
    outer loop
      vertex 10.5111 7.05 11.1558
      vertex 10.5111 11.05 11.1558
      vertex 8.89058 11.05 10.2202
    endloop
  endfacet
  facet normal -0.5 3.84593e-16 0.866026
    outer loop
      vertex 8.89058 7.05 10.2202
      vertex 10.5111 7.05 11.1558
      vertex 8.89058 11.05 10.2202
    endloop
  endfacet
  facet normal -0.104529 4.41656e-16 0.994522
    outer loop
      vertex 8.89058 7.05 10.2202
      vertex 8.89058 11.05 10.2202
      vertex 7.02962 11.05 10.0247
    endloop
  endfacet
  facet normal -0.104529 0 0.994522
    outer loop
      vertex 7.02962 7.05 10.0247
      vertex 8.89058 7.05 10.2202
      vertex 7.02962 11.05 10.0247
    endloop
  endfacet
  facet normal 0.309017 0 0.951056
    outer loop
      vertex 7.02962 7.05 10.0247
      vertex 7.02962 11.05 10.0247
      vertex 5.25 11.05 10.6029
    endloop
  endfacet
  facet normal 0.309017 0 0.951056
    outer loop
      vertex 5.25 7.05 10.6029
      vertex 7.02962 7.05 10.0247
      vertex 5.25 11.05 10.6029
    endloop
  endfacet
  facet normal 0.669131 0 0.743145
    outer loop
      vertex 5.25 7.05 10.6029
      vertex 5.25 11.05 10.6029
      vertex 3.85942 11.05 11.855
    endloop
  endfacet
  facet normal 0.669131 3.30023e-16 0.743145
    outer loop
      vertex 3.85942 7.05 11.855
      vertex 5.25 7.05 10.6029
      vertex 3.85942 11.05 11.855
    endloop
  endfacet
  facet normal 0.913545 1.80627e-16 0.406737
    outer loop
      vertex 3.85942 7.05 11.855
      vertex 3.85942 11.05 11.855
      vertex 3.09834 11.05 13.5644
    endloop
  endfacet
  facet normal 0.913545 0 0.406737
    outer loop
      vertex 3.09834 7.05 13.5644
      vertex 3.85942 7.05 11.855
      vertex 3.09834 11.05 13.5644
    endloop
  endfacet
  facet normal 0.866025 0 -0.5
    outer loop
      vertex 17 11.05 14.5
      vertex 17.9 11.05 16.0588
      vertex 17.9 7.05 16.0588
    endloop
  endfacet
  facet normal 0.866025 0 -0.5
    outer loop
      vertex 17 7.05 14.5
      vertex 17 11.05 14.5
      vertex 17.9 7.05 16.0588
    endloop
  endfacet
  facet normal 0.866025 2.22045e-16 0.5
    outer loop
      vertex 17.9 7.05 12.9412
      vertex 17.9 11.05 12.9412
      vertex 17 11.05 14.5
    endloop
  endfacet
  facet normal 0.866025 0 0.5
    outer loop
      vertex 17 7.05 14.5
      vertex 17.9 7.05 12.9412
      vertex 17 11.05 14.5
    endloop
  endfacet
  facet normal 0 0 -1
    outer loop
      vertex 19.7 11.05 16.0588
      vertex 19.7 7.05 16.0588
      vertex 17.9 11.05 16.0588
    endloop
  endfacet
  facet normal 0 0 -1
    outer loop
      vertex 17.9 11.05 16.0588
      vertex 19.7 7.05 16.0588
      vertex 17.9 7.05 16.0588
    endloop
  endfacet
  facet normal -0.866025 0 -0.5
    outer loop
      vertex 20.6 11.05 14.5
      vertex 20.6 7.05 14.5
      vertex 19.7 11.05 16.0588
    endloop
  endfacet
  facet normal -0.866025 0 -0.5
    outer loop
      vertex 19.7 11.05 16.0588
      vertex 20.6 7.05 14.5
      vertex 19.7 7.05 16.0588
    endloop
  endfacet
  facet normal -0.866025 0 0.5
    outer loop
      vertex 20.6 11.05 14.5
      vertex 19.7 11.05 12.9412
      vertex 20.6 7.05 14.5
    endloop
  endfacet
  facet normal -0.866025 2.15877e-16 0.5
    outer loop
      vertex 20.6 7.05 14.5
      vertex 19.7 11.05 12.9412
      vertex 19.7 7.05 12.9412
    endloop
  endfacet
  facet normal 0 4.44089e-16 1
    outer loop
      vertex 19.7 7.05 12.9412
      vertex 19.7 11.05 12.9412
      vertex 17.9 11.05 12.9412
    endloop
  endfacet
  facet normal 0 4.44089e-16 1
    outer loop
      vertex 17.9 7.05 12.9412
      vertex 19.7 7.05 12.9412
      vertex 17.9 11.05 12.9412
    endloop
  endfacet
  facet normal 0 0 1
    outer loop
      vertex 4.5 0 5
      vertex 6.10548 -3.525 5
      vertex 6.10548 3.525 5
    endloop
  endfacet
  facet normal 0 0 1
    outer loop
      vertex -3.64058 2.64503 5
      vertex -2.25 3.89711 5
      vertex 4.83401e-08 7.05 5
    endloop
  endfacet
  facet normal 0 0 1
    outer loop
      vertex -0.470378 4.47535 5
      vertex 1.39058 4.27975 5
      vertex 4.83401e-08 7.05 5
    endloop
  endfacet
  facet normal 0 0 1
    outer loop
      vertex -6.10548 3.525 5
      vertex -3.64058 2.64503 5
      vertex 4.83401e-08 7.05 5
    endloop
  endfacet
  facet normal 0 0 1
    outer loop
      vertex -6.10548 3.525 5
      vertex -4.40166 0.935603 5
      vertex -3.64058 2.64503 5
    endloop
  endfacet
  facet normal 0 0 1
    outer loop
      vertex -2.25 3.89711 5
      vertex -0.470378 4.47535 5
      vertex 4.83401e-08 7.05 5
    endloop
  endfacet
  facet normal 0 0 1
    outer loop
      vertex 4.83401e-08 7.05 5
      vertex 1.39058 4.27975 5
      vertex 6.10548 3.525 5
    endloop
  endfacet
  facet normal 0 0 1
    outer loop
      vertex 1.39058 4.27975 5
      vertex 3.01109 3.34415 5
      vertex 6.10548 3.525 5
    endloop
  endfacet
  facet normal -0 -0 1
    outer loop
      vertex -0.470378 -4.47535 5
      vertex -2.25 -3.89711 5
      vertex -4.83401e-08 -7.05 5
    endloop
  endfacet
  facet normal 0 0 1
    outer loop
      vertex 3.01109 3.34415 5
      vertex 4.11095 1.83031 5
      vertex 6.10548 3.525 5
    endloop
  endfacet
  facet normal 0 0 1
    outer loop
      vertex 4.11095 -1.83031 5
      vertex 6.10548 -3.525 5
      vertex 4.5 0 5
    endloop
  endfacet
  facet normal 0 0 1
    outer loop
      vertex 3.01109 -3.34415 5
      vertex 6.10548 -3.525 5
      vertex 4.11095 -1.83031 5
    endloop
  endfacet
  facet normal 0 0 1
    outer loop
      vertex -4.83401e-08 -7.05 5
      vertex 6.10548 -3.525 5
      vertex 3.01109 -3.34415 5
    endloop
  endfacet
  facet normal 0 0 1
    outer loop
      vertex 3.01109 -3.34415 5
      vertex 1.39058 -4.27975 5
      vertex -4.83401e-08 -7.05 5
    endloop
  endfacet
  facet normal 0 0 1
    outer loop
      vertex 4.11095 1.83031 5
      vertex 4.5 0 5
      vertex 6.10548 3.525 5
    endloop
  endfacet
  facet normal 0 0 1
    outer loop
      vertex -6.10548 -3.525 5
      vertex -4.83401e-08 -7.05 5
      vertex -2.25 -3.89711 5
    endloop
  endfacet
  facet normal 0 0 1
    outer loop
      vertex -6.10548 -3.525 5
      vertex -2.25 -3.89711 5
      vertex -3.64058 -2.64503 5
    endloop
  endfacet
  facet normal 0 0 1
    outer loop
      vertex -6.10548 -3.525 5
      vertex -4.40166 -0.935603 5
      vertex -6.10548 3.525 5
    endloop
  endfacet
  facet normal 0 0 1
    outer loop
      vertex -6.10548 -3.525 5
      vertex -3.64058 -2.64503 5
      vertex -4.40166 -0.935603 5
    endloop
  endfacet
  facet normal 0 0 1
    outer loop
      vertex -4.40166 -0.935603 5
      vertex -4.40166 0.935603 5
      vertex -6.10548 3.525 5
    endloop
  endfacet
  facet normal 0 0 1
    outer loop
      vertex 1.39058 -4.27975 5
      vertex -0.470378 -4.47535 5
      vertex -4.83401e-08 -7.05 5
    endloop
  endfacet
  facet normal 0 0 1
    outer loop
      vertex 13.5 0 5
      vertex 13.995 -1.325 5
      vertex 13.995 1.325 5
    endloop
  endfacet
  facet normal 0 0 1
    outer loop
      vertex 12.6 1.55885 5
      vertex 13.5 0 5
      vertex 13.995 1.325 5
    endloop
  endfacet
  facet normal 0 0 1
    outer loop
      vertex 10.8 1.55885 5
      vertex 12.6 1.55885 5
      vertex 11.7 2.65 5
    endloop
  endfacet
  facet normal 0 0 1
    outer loop
      vertex 9.40503 -1.325 5
      vertex 9.9 0 5
      vertex 9.40503 1.325 5
    endloop
  endfacet
  facet normal 0 0 1
    outer loop
      vertex 9.40503 1.325 5
      vertex 10.8 1.55885 5
      vertex 11.7 2.65 5
    endloop
  endfacet
  facet normal 0 0 1
    outer loop
      vertex 11.7 2.65 5
      vertex 12.6 1.55885 5
      vertex 13.995 1.325 5
    endloop
  endfacet
  facet normal 0 0 1
    outer loop
      vertex 12.6 -1.55885 5
      vertex 13.995 -1.325 5
      vertex 13.5 0 5
    endloop
  endfacet
  facet normal 0 0 1
    outer loop
      vertex 11.7 -2.65 5
      vertex 13.995 -1.325 5
      vertex 12.6 -1.55885 5
    endloop
  endfacet
  facet normal 0 0 1
    outer loop
      vertex 9.40503 -1.325 5
      vertex 10.8 -1.55885 5
      vertex 9.9 0 5
    endloop
  endfacet
  facet normal 0 0 1
    outer loop
      vertex 9.40503 -1.325 5
      vertex 11.7 -2.65 5
      vertex 10.8 -1.55885 5
    endloop
  endfacet
  facet normal 0 0 1
    outer loop
      vertex 9.9 0 5
      vertex 10.8 1.55885 5
      vertex 9.40503 1.325 5
    endloop
  endfacet
  facet normal 0 0 1
    outer loop
      vertex 12.6 -1.55885 5
      vertex 10.8 -1.55885 5
      vertex 11.7 -2.65 5
    endloop
  endfacet
  facet normal 1 -6.85676e-09 0
    outer loop
      vertex -6.10548 3.525 5
      vertex -6.10548 3.525 10
      vertex -6.10548 -3.525 10
    endloop
  endfacet
  facet normal 1 -6.85676e-09 0
    outer loop
      vertex -6.10548 -3.525 5
      vertex -6.10548 3.525 5
      vertex -6.10548 -3.525 10
    endloop
  endfacet
  facet normal 0.5 0.866025 -0
    outer loop
      vertex -4.83401e-08 -7.05 10
      vertex -4.83401e-08 -7.05 5
      vertex -6.10548 -3.525 10
    endloop
  endfacet
  facet normal 0.5 0.866025 -0
    outer loop
      vertex -6.10548 -3.525 10
      vertex -4.83401e-08 -7.05 5
      vertex -6.10548 -3.525 5
    endloop
  endfacet
  facet normal -0.5 0.866025 0
    outer loop
      vertex 6.10548 -3.525 10
      vertex 6.10548 -3.525 5
      vertex -4.83401e-08 -7.05 10
    endloop
  endfacet
  facet normal -0.5 0.866025 0
    outer loop
      vertex -4.83401e-08 -7.05 10
      vertex 6.10548 -3.525 5
      vertex -4.83401e-08 -7.05 5
    endloop
  endfacet
  facet normal -1 6.85676e-09 0
    outer loop
      vertex 6.10548 3.525 10
      vertex 6.10548 3.525 5
      vertex 6.10548 -3.525 10
    endloop
  endfacet
  facet normal -1 6.85676e-09 0
    outer loop
      vertex 6.10548 -3.525 10
      vertex 6.10548 3.525 5
      vertex 6.10548 -3.525 5
    endloop
  endfacet
  facet normal -0.5 -0.866025 -0
    outer loop
      vertex 6.10548 3.525 5
      vertex 6.10548 3.525 10
      vertex 4.83401e-08 7.05 10
    endloop
  endfacet
  facet normal -0.5 -0.866025 -0
    outer loop
      vertex 4.83401e-08 7.05 5
      vertex 6.10548 3.525 5
      vertex 4.83401e-08 7.05 10
    endloop
  endfacet
  facet normal 0.5 -0.866025 0
    outer loop
      vertex 4.83401e-08 7.05 5
      vertex 4.83401e-08 7.05 10
      vertex -6.10548 3.525 10
    endloop
  endfacet
  facet normal 0.5 -0.866025 0
    outer loop
      vertex -6.10548 3.525 5
      vertex 4.83401e-08 7.05 5
      vertex -6.10548 3.525 10
    endloop
  endfacet
  facet normal 1 -6.03828e-08 0
    outer loop
      vertex 9.40503 1.325 5
      vertex 9.40503 1.325 10
      vertex 9.40503 -1.325 10
    endloop
  endfacet
  facet normal 1 -6.03828e-08 0
    outer loop
      vertex 9.40503 -1.325 5
      vertex 9.40503 1.325 5
      vertex 9.40503 -1.325 10
    endloop
  endfacet
  facet normal 0.5 0.866025 -0
    outer loop
      vertex 11.7 -2.65 10
      vertex 11.7 -2.65 5
      vertex 9.40503 -1.325 10
    endloop
  endfacet
  facet normal 0.5 0.866025 -0
    outer loop
      vertex 9.40503 -1.325 10
      vertex 11.7 -2.65 5
      vertex 9.40503 -1.325 5
    endloop
  endfacet
  facet normal -0.5 0.866025 0
    outer loop
      vertex 13.995 -1.325 10
      vertex 13.995 -1.325 5
      vertex 11.7 -2.65 10
    endloop
  endfacet
  facet normal -0.5 0.866025 0
    outer loop
      vertex 11.7 -2.65 10
      vertex 13.995 -1.325 5
      vertex 11.7 -2.65 5
    endloop
  endfacet
  facet normal -1 6.03828e-08 0
    outer loop
      vertex 13.995 1.325 10
      vertex 13.995 1.325 5
      vertex 13.995 -1.325 10
    endloop
  endfacet
  facet normal -1 6.03828e-08 0
    outer loop
      vertex 13.995 -1.325 10
      vertex 13.995 1.325 5
      vertex 13.995 -1.325 5
    endloop
  endfacet
  facet normal -0.5 -0.866025 -0
    outer loop
      vertex 13.995 1.325 5
      vertex 13.995 1.325 10
      vertex 11.7 2.65 10
    endloop
  endfacet
  facet normal -0.5 -0.866025 -0
    outer loop
      vertex 11.7 2.65 5
      vertex 13.995 1.325 5
      vertex 11.7 2.65 10
    endloop
  endfacet
  facet normal 0.5 -0.866025 0
    outer loop
      vertex 11.7 2.65 5
      vertex 11.7 2.65 10
      vertex 9.40503 1.325 10
    endloop
  endfacet
  facet normal 0.5 -0.866025 0
    outer loop
      vertex 9.40503 1.325 5
      vertex 11.7 2.65 5
      vertex 9.40503 1.325 10
    endloop
  endfacet
endsolid OpenSCAD_Model
