solid OpenSCAD_Model
  facet normal -0 0 -1
    outer loop
      vertex 0 6.5 0
      vertex 0.318133 8.50861 0
      vertex 0.318133 4.49139 0
    endloop
  endfacet
  facet normal 0 -0 -1
    outer loop
      vertex 0.318133 4.49139 0
      vertex 0.318133 8.50861 0
      vertex 1.24139 10.3206 0
    endloop
  endfacet
  facet normal 0 0 -1
    outer loop
      vertex 0.318133 4.49139 0
      vertex 1.24139 10.3206 0
      vertex 2.6794 11.7586 0
    endloop
  endfacet
  facet normal 0 0 -1
    outer loop
      vertex 0.318133 4.49139 0
      vertex 2.6794 11.7586 0
      vertex 4.49139 12.6819 0
    endloop
  endfacet
  facet normal 0 0 -1
    outer loop
      vertex 0.318133 4.49139 0
      vertex 4.49139 12.6819 0
      vertex 6.5 13 0
    endloop
  endfacet
  facet normal 0 -0 -1
    outer loop
      vertex 8.35 9.70429 0
      vertex 6.5 13 0
      vertex 14.5 13 0
    endloop
  endfacet
  facet normal -0 0 -1
    outer loop
      vertex 9.18934 9 0
      vertex 14.5 13 0
      vertex 14.5 9 0
    endloop
  endfacet
  facet normal -0 -0 -1
    outer loop
      vertex 7.1425 10.1438 0
      vertex 6.5 13 0
      vertex 8.35 9.70429 0
    endloop
  endfacet
  facet normal 0 -0 -1
    outer loop
      vertex 2.8 6.5 0
      vertex 0.318133 4.49139 0
      vertex 3.02314 7.76547 0
    endloop
  endfacet
  facet normal -0 0 -1
    outer loop
      vertex 5.8575 10.1438 0
      vertex 6.5 13 0
      vertex 7.1425 10.1438 0
    endloop
  endfacet
  facet normal 0 0 -1
    outer loop
      vertex 4.65 9.70429 0
      vertex 6.5 13 0
      vertex 5.8575 10.1438 0
    endloop
  endfacet
  facet normal 0 0 -1
    outer loop
      vertex 3.66564 8.87831 0
      vertex 6.5 13 0
      vertex 4.65 9.70429 0
    endloop
  endfacet
  facet normal 0 0 -1
    outer loop
      vertex 0.318133 4.49139 0
      vertex 6.5 13 0
      vertex 3.66564 8.87831 0
    endloop
  endfacet
  facet normal 0 0 -1
    outer loop
      vertex 0.318133 4.49139 0
      vertex 3.66564 8.87831 0
      vertex 3.02314 7.76547 0
    endloop
  endfacet
  facet normal 0 0 -1
    outer loop
      vertex 3.02314 5.23452 0
      vertex 0.318133 4.49139 0
      vertex 2.8 6.5 0
    endloop
  endfacet
  facet normal -0 0 -1
    outer loop
      vertex 0.318133 4.49139 0
      vertex 3.02314 5.23452 0
      vertex 3.66564 4.12169 0
    endloop
  endfacet
  facet normal 0 0 -1
    outer loop
      vertex 3.66564 4.12169 0
      vertex 4.65 3.29571 0
      vertex 0.318133 4.49139 0
    endloop
  endfacet
  facet normal 0 0 -1
    outer loop
      vertex 4.65 3.29571 0
      vertex 5.8575 2.85621 0
      vertex 0.318133 4.49139 0
    endloop
  endfacet
  facet normal 0 0 -1
    outer loop
      vertex 5.8575 2.85621 0
      vertex 14.5 0 0
      vertex 0.318133 4.49139 0
    endloop
  endfacet
  facet normal 0 0 -1
    outer loop
      vertex 8.35 3.29571 0
      vertex 9.18934 4 0
      vertex 14.5 4 0
    endloop
  endfacet
  facet normal -0 0 -1
    outer loop
      vertex 8.35 3.29571 0
      vertex 14.5 4 0
      vertex 7.1425 2.85621 0
    endloop
  endfacet
  facet normal -0 0 -1
    outer loop
      vertex 7.1425 2.85621 0
      vertex 14.5 4 0
      vertex 14.5 0 0
    endloop
  endfacet
  facet normal 0 0 -1
    outer loop
      vertex 7.1425 2.85621 0
      vertex 14.5 0 0
      vertex 5.8575 2.85621 0
    endloop
  endfacet
  facet normal 0 0 -1
    outer loop
      vertex 0.318133 4.49139 0
      vertex 14.5 0 0
      vertex 6.5 0 0
    endloop
  endfacet
  facet normal 0 0 -1
    outer loop
      vertex 0.318133 4.49139 0
      vertex 6.5 0 0
      vertex 4.49139 0.318133 0
    endloop
  endfacet
  facet normal 0 0 -1
    outer loop
      vertex 0.318133 4.49139 0
      vertex 4.49139 0.318133 0
      vertex 2.6794 1.24139 0
    endloop
  endfacet
  facet normal 0 0 -1
    outer loop
      vertex 0.318133 4.49139 0
      vertex 2.6794 1.24139 0
      vertex 1.24139 2.6794 0
    endloop
  endfacet
  facet normal -0 0 -1
    outer loop
      vertex 8.35 9.70429 0
      vertex 14.5 13 0
      vertex 9.18934 9 0
    endloop
  endfacet
  facet normal -0.987688 0.156435 0
    outer loop
      vertex 0 6.5 0
      vertex 0 6.5 13
      vertex 0.318133 8.50861 0
    endloop
  endfacet
  facet normal -0.987688 0.156435 0
    outer loop
      vertex 0.318133 8.50861 0
      vertex 0 6.5 13
      vertex 0.318133 8.50861 13
    endloop
  endfacet
  facet normal -0.987688 -0.156435 -0
    outer loop
      vertex 0 6.5 0
      vertex 0.318133 4.49139 0
      vertex 0 6.5 13
    endloop
  endfacet
  facet normal -0.987688 -0.156435 0
    outer loop
      vertex 0 6.5 13
      vertex 0.318133 4.49139 0
      vertex 0.318133 4.49139 13
    endloop
  endfacet
  facet normal -0.891007 -0.45399 -0
    outer loop
      vertex 0.318133 4.49139 0
      vertex 1.24139 2.6794 0
      vertex 0.318133 4.49139 13
    endloop
  endfacet
  facet normal -0.891007 -0.45399 0
    outer loop
      vertex 0.318133 4.49139 13
      vertex 1.24139 2.6794 0
      vertex 1.24139 2.6794 13
    endloop
  endfacet
  facet normal -0.707107 -0.707107 0
    outer loop
      vertex 1.24139 2.6794 13
      vertex 1.24139 2.6794 0
      vertex 2.6794 1.24139 0
    endloop
  endfacet
  facet normal -0.707107 -0.707107 0
    outer loop
      vertex 2.6794 1.24139 13
      vertex 1.24139 2.6794 13
      vertex 2.6794 1.24139 0
    endloop
  endfacet
  facet normal -0.45399 -0.891007 0
    outer loop
      vertex 2.6794 1.24139 13
      vertex 2.6794 1.24139 0
      vertex 4.49139 0.318133 0
    endloop
  endfacet
  facet normal -0.45399 -0.891007 0
    outer loop
      vertex 4.49139 0.318133 13
      vertex 2.6794 1.24139 13
      vertex 4.49139 0.318133 0
    endloop
  endfacet
  facet normal -0.156435 -0.987688 0
    outer loop
      vertex 4.49139 0.318133 13
      vertex 4.49139 0.318133 0
      vertex 6.5 0 0
    endloop
  endfacet
  facet normal -0.156435 -0.987688 0
    outer loop
      vertex 6.5 0 13
      vertex 4.49139 0.318133 13
      vertex 6.5 0 0
    endloop
  endfacet
  facet normal 0 -3.84753e-16 0
    outer loop
      vertex 14.2472 0 2.88658e-15
      vertex 6.5 0 0
      vertex 14.5 0 0
    endloop
  endfacet
  facet normal 0 -1 0
    outer loop
      vertex 6.5 0 13
      vertex 6.5 0 0
      vertex 14.2472 0 2.88658e-15
    endloop
  endfacet
  facet normal -0 -1 -0
    outer loop
      vertex 10.4944 0 6.5
      vertex 13.0584 0 6.5
      vertex 6.5 0 13
    endloop
  endfacet
  facet normal 0 -1 0
    outer loop
      vertex 6.5 0 13
      vertex 14.2472 0 2.88658e-15
      vertex 10.4944 0 6.5
    endloop
  endfacet
  facet normal 0 -1 0
    outer loop
      vertex 12.9 0 7.5
      vertex 6.5 0 13
      vertex 13.0584 0 6.5
    endloop
  endfacet
  facet normal 0 -1 0
    outer loop
      vertex 13.1007 0 8.76697
      vertex 6.5 0 13
      vertex 12.9 0 7.5
    endloop
  endfacet
  facet normal 0 -1 0
    outer loop
      vertex 13.683 0 9.90992
      vertex 6.5 0 13
      vertex 13.1007 0 8.76697
    endloop
  endfacet
  facet normal 0 -1 0
    outer loop
      vertex 14.5 0 10.7269
      vertex 6.5 0 13
      vertex 13.683 0 9.90992
    endloop
  endfacet
  facet normal 0 -1 0
    outer loop
      vertex 14.5 0 13
      vertex 6.5 0 13
      vertex 14.5 0 10.7269
    endloop
  endfacet
  facet normal 0 -1.14195e-14 0
    outer loop
      vertex 14.5 0 2.88658e-15
      vertex 14.2472 0 2.88658e-15
      vertex 14.5 0 0
    endloop
  endfacet
  facet normal 7.21645e-16 0 -0
    outer loop
      vertex 14.5 0 2.88658e-15
      vertex 14.5 0 0
      vertex 14.5 4 0
    endloop
  endfacet
  facet normal 4.996e-16 -0 0
    outer loop
      vertex 14.5 4 1.9984e-15
      vertex 14.5 0 2.88658e-15
      vertex 14.5 4 0
    endloop
  endfacet
  facet normal 0 1 0
    outer loop
      vertex 20.317 4 9.90992
      vertex 21.7528 4 13
      vertex 25.5056 4 6.5
    endloop
  endfacet
  facet normal 0 1 0
    outer loop
      vertex 20.317 4 9.90992
      vertex 25.5056 4 6.5
      vertex 20.8993 4 8.76697
    endloop
  endfacet
  facet normal 0 1 0
    outer loop
      vertex 20.8993 4 8.76697
      vertex 25.5056 4 6.5
      vertex 21.1 4 7.5
    endloop
  endfacet
  facet normal -0 1 -0
    outer loop
      vertex 13.1007 4 6.23303
      vertex 14.5 4 1.9984e-15
      vertex 9.18934 4 13
    endloop
  endfacet
  facet normal -0 6.27978e-17 0
    outer loop
      vertex 14.5 4 1.9984e-15
      vertex 14.5 4 0
      vertex 9.18934 4 13
    endloop
  endfacet
  facet normal -0 1 0
    outer loop
      vertex 14.5 4 0
      vertex 9.18934 4 0
      vertex 9.18934 4 13
    endloop
  endfacet
  facet normal -0 1 -0
    outer loop
      vertex 13.683 4 5.09008
      vertex 14.5 4 1.9984e-15
      vertex 13.1007 4 6.23303
    endloop
  endfacet
  facet normal -0 1 -0
    outer loop
      vertex 12.9 4 7.5
      vertex 13.1007 4 6.23303
      vertex 9.18934 4 13
    endloop
  endfacet
  facet normal -0 1 0
    outer loop
      vertex 14.5901 4 4.18303
      vertex 14.5 4 1.9984e-15
      vertex 13.683 4 5.09008
    endloop
  endfacet
  facet normal -0 1 0
    outer loop
      vertex 21.7528 4 1.9984e-15
      vertex 14.5 4 1.9984e-15
      vertex 14.5901 4 4.18303
    endloop
  endfacet
  facet normal 0 1 0
    outer loop
      vertex 21.7528 4 1.9984e-15
      vertex 14.5901 4 4.18303
      vertex 15.733 4 3.60067
    endloop
  endfacet
  facet normal 0 1 -0
    outer loop
      vertex 18.267 4 3.60067
      vertex 21.7528 4 1.9984e-15
      vertex 17 4 3.4
    endloop
  endfacet
  facet normal 0 1 -0
    outer loop
      vertex 19.4099 4 4.18303
      vertex 21.7528 4 1.9984e-15
      vertex 18.267 4 3.60067
    endloop
  endfacet
  facet normal 0 1 0
    outer loop
      vertex 13.683 4 9.90992
      vertex 9.18934 4 13
      vertex 14.5901 4 10.817
    endloop
  endfacet
  facet normal 0 1 0
    outer loop
      vertex 25.5056 4 6.5
      vertex 21.7528 4 1.9984e-15
      vertex 19.4099 4 4.18303
    endloop
  endfacet
  facet normal 0 1 0
    outer loop
      vertex 25.5056 4 6.5
      vertex 19.4099 4 4.18303
      vertex 20.317 4 5.09008
    endloop
  endfacet
  facet normal 0 1 0
    outer loop
      vertex 25.5056 4 6.5
      vertex 20.317 4 5.09008
      vertex 20.8993 4 6.23303
    endloop
  endfacet
  facet normal -0 1 0
    outer loop
      vertex 25.5056 4 6.5
      vertex 20.8993 4 6.23303
      vertex 21.1 4 7.5
    endloop
  endfacet
  facet normal 0 1 0
    outer loop
      vertex 19.4099 4 10.817
      vertex 21.7528 4 13
      vertex 20.317 4 9.90992
    endloop
  endfacet
  facet normal 0 1 0
    outer loop
      vertex 17 4 11.6
      vertex 14.2472 4 13
      vertex 18.267 4 11.3993
    endloop
  endfacet
  facet normal 0 1 0
    outer loop
      vertex 18.267 4 11.3993
      vertex 21.7528 4 13
      vertex 19.4099 4 10.817
    endloop
  endfacet
  facet normal 0 1 0
    outer loop
      vertex 14.2472 4 13
      vertex 21.7528 4 13
      vertex 18.267 4 11.3993
    endloop
  endfacet
  facet normal 0 1 0
    outer loop
      vertex 15.733 4 11.3993
      vertex 14.2472 4 13
      vertex 17 4 11.6
    endloop
  endfacet
  facet normal 0 1 0
    outer loop
      vertex 14.5901 4 10.817
      vertex 9.18934 4 13
      vertex 15.733 4 11.3993
    endloop
  endfacet
  facet normal 0 1 -0
    outer loop
      vertex 14.2472 4 13
      vertex 15.733 4 11.3993
      vertex 9.18934 4 13
    endloop
  endfacet
  facet normal 0 1 0
    outer loop
      vertex 13.1007 4 8.76697
      vertex 9.18934 4 13
      vertex 13.683 4 9.90992
    endloop
  endfacet
  facet normal -0 1 0
    outer loop
      vertex 13.1007 4 8.76697
      vertex 12.9 4 7.5
      vertex 9.18934 4 13
    endloop
  endfacet
  facet normal -0 1 -0
    outer loop
      vertex 17 4 3.4
      vertex 21.7528 4 1.9984e-15
      vertex 15.733 4 3.60067
    endloop
  endfacet
  facet normal -0.642788 0.766044 0
    outer loop
      vertex 9.18934 4 13
      vertex 9.18934 4 0
      vertex 8.35 3.29571 13
    endloop
  endfacet
  facet normal -0.642788 0.766044 0
    outer loop
      vertex 8.35 3.29571 13
      vertex 9.18934 4 0
      vertex 8.35 3.29571 0
    endloop
  endfacet
  facet normal -0.34202 0.939693 0
    outer loop
      vertex 8.35 3.29571 13
      vertex 8.35 3.29571 0
      vertex 7.1425 2.85621 13
    endloop
  endfacet
  facet normal -0.34202 0.939693 0
    outer loop
      vertex 7.1425 2.85621 13
      vertex 8.35 3.29571 0
      vertex 7.1425 2.85621 0
    endloop
  endfacet
  facet normal 0 1 0
    outer loop
      vertex 7.1425 2.85621 13
      vertex 7.1425 2.85621 0
      vertex 5.8575 2.85621 13
    endloop
  endfacet
  facet normal 0 1 -0
    outer loop
      vertex 5.8575 2.85621 13
      vertex 7.1425 2.85621 0
      vertex 5.8575 2.85621 0
    endloop
  endfacet
  facet normal 0.34202 0.939693 -0
    outer loop
      vertex 5.8575 2.85621 13
      vertex 5.8575 2.85621 0
      vertex 4.65 3.29571 13
    endloop
  endfacet
  facet normal 0.34202 0.939693 -0
    outer loop
      vertex 4.65 3.29571 13
      vertex 5.8575 2.85621 0
      vertex 4.65 3.29571 0
    endloop
  endfacet
  facet normal 0.642788 0.766044 -0
    outer loop
      vertex 4.65 3.29571 13
      vertex 4.65 3.29571 0
      vertex 3.66564 4.12169 13
    endloop
  endfacet
  facet normal 0.642788 0.766044 -0
    outer loop
      vertex 3.66564 4.12169 13
      vertex 4.65 3.29571 0
      vertex 3.66564 4.12169 0
    endloop
  endfacet
  facet normal 0.866025 0.500001 0
    outer loop
      vertex 3.02314 5.23452 13
      vertex 3.66564 4.12169 13
      vertex 3.66564 4.12169 0
    endloop
  endfacet
  facet normal 0.866025 0.500001 0
    outer loop
      vertex 3.02314 5.23452 0
      vertex 3.02314 5.23452 13
      vertex 3.66564 4.12169 0
    endloop
  endfacet
  facet normal 0.984808 0.173648 0
    outer loop
      vertex 2.8 6.5 13
      vertex 3.02314 5.23452 13
      vertex 3.02314 5.23452 0
    endloop
  endfacet
  facet normal 0.984808 0.173648 0
    outer loop
      vertex 2.8 6.5 0
      vertex 2.8 6.5 13
      vertex 3.02314 5.23452 0
    endloop
  endfacet
  facet normal 0.984808 -0.173648 0
    outer loop
      vertex 3.02314 7.76547 0
      vertex 3.02314 7.76547 13
      vertex 2.8 6.5 13
    endloop
  endfacet
  facet normal 0.984808 -0.173648 0
    outer loop
      vertex 2.8 6.5 0
      vertex 3.02314 7.76547 0
      vertex 2.8 6.5 13
    endloop
  endfacet
  facet normal 0.866025 -0.500001 0
    outer loop
      vertex 3.66564 8.87831 0
      vertex 3.66564 8.87831 13
      vertex 3.02314 7.76547 13
    endloop
  endfacet
  facet normal 0.866025 -0.500001 0
    outer loop
      vertex 3.02314 7.76547 0
      vertex 3.66564 8.87831 0
      vertex 3.02314 7.76547 13
    endloop
  endfacet
  facet normal 0.642788 -0.766044 0
    outer loop
      vertex 4.65 9.70429 0
      vertex 4.65 9.70429 13
      vertex 3.66564 8.87831 13
    endloop
  endfacet
  facet normal 0.642788 -0.766044 0
    outer loop
      vertex 3.66564 8.87831 0
      vertex 4.65 9.70429 0
      vertex 3.66564 8.87831 13
    endloop
  endfacet
  facet normal 0.34202 -0.939693 0
    outer loop
      vertex 5.8575 10.1438 0
      vertex 5.8575 10.1438 13
      vertex 4.65 9.70429 13
    endloop
  endfacet
  facet normal 0.34202 -0.939693 0
    outer loop
      vertex 4.65 9.70429 0
      vertex 5.8575 10.1438 0
      vertex 4.65 9.70429 13
    endloop
  endfacet
  facet normal 0 -1 0
    outer loop
      vertex 7.1425 10.1438 0
      vertex 7.1425 10.1438 13
      vertex 5.8575 10.1438 13
    endloop
  endfacet
  facet normal -0 -1 -0
    outer loop
      vertex 5.8575 10.1438 0
      vertex 7.1425 10.1438 0
      vertex 5.8575 10.1438 13
    endloop
  endfacet
  facet normal -0.34202 -0.939693 -0
    outer loop
      vertex 8.35 9.70429 0
      vertex 8.35 9.70429 13
      vertex 7.1425 10.1438 13
    endloop
  endfacet
  facet normal -0.34202 -0.939693 -0
    outer loop
      vertex 7.1425 10.1438 0
      vertex 8.35 9.70429 0
      vertex 7.1425 10.1438 13
    endloop
  endfacet
  facet normal -0.642788 -0.766044 -0
    outer loop
      vertex 9.18934 9 0
      vertex 9.18934 9 13
      vertex 8.35 9.70429 13
    endloop
  endfacet
  facet normal -0.642788 -0.766044 -0
    outer loop
      vertex 8.35 9.70429 0
      vertex 9.18934 9 0
      vertex 8.35 9.70429 13
    endloop
  endfacet
  facet normal 0 -1 0
    outer loop
      vertex 25.5056 9 6.5
      vertex 14.5 9 8.88178e-16
      vertex 21.7528 9 8.88178e-16
    endloop
  endfacet
  facet normal -0 -1 0
    outer loop
      vertex 19.4099 9 4.18303
      vertex 14.5 9 8.88178e-16
      vertex 25.5056 9 6.5
    endloop
  endfacet
  facet normal -0 -1 0
    outer loop
      vertex 17 9 11.6
      vertex 18.267 9 11.3993
      vertex 21.7528 9 13
    endloop
  endfacet
  facet normal 0 -1 0
    outer loop
      vertex 19.4099 9 4.18303
      vertex 18.267 9 3.60067
      vertex 14.5 9 8.88178e-16
    endloop
  endfacet
  facet normal 0 -1 0
    outer loop
      vertex 18.267 9 3.60067
      vertex 17 9 3.4
      vertex 14.5 9 8.88178e-16
    endloop
  endfacet
  facet normal 0 -1 0
    outer loop
      vertex 17 9 3.4
      vertex 15.733 9 3.60067
      vertex 14.5 9 8.88178e-16
    endloop
  endfacet
  facet normal -0 -1 -0
    outer loop
      vertex 9.18934 9 0
      vertex 14.5 9 0
      vertex 9.18934 9 13
    endloop
  endfacet
  facet normal 0 -1 0
    outer loop
      vertex 9.18934 9 13
      vertex 13.1007 9 8.76697
      vertex 14.2472 9 13
    endloop
  endfacet
  facet normal 0 -1 0
    outer loop
      vertex 9.18934 9 13
      vertex 12.9 9 7.5
      vertex 13.1007 9 8.76697
    endloop
  endfacet
  facet normal 0 -1 0
    outer loop
      vertex 13.683 9 5.09008
      vertex 13.1007 9 6.23303
      vertex 14.5 9 0
    endloop
  endfacet
  facet normal -0 -1 0
    outer loop
      vertex 19.4099 9 10.817
      vertex 20.317 9 9.90992
      vertex 21.7528 9 13
    endloop
  endfacet
  facet normal 0 -1 0
    outer loop
      vertex 14.2472 9 13
      vertex 15.733 9 11.3993
      vertex 21.7528 9 13
    endloop
  endfacet
  facet normal 0 -1 0
    outer loop
      vertex 14.2472 9 13
      vertex 14.5901 9 10.817
      vertex 15.733 9 11.3993
    endloop
  endfacet
  facet normal 0 -1 0
    outer loop
      vertex 15.733 9 11.3993
      vertex 17 9 11.6
      vertex 21.7528 9 13
    endloop
  endfacet
  facet normal 0 -1 0
    outer loop
      vertex 15.733 9 3.60067
      vertex 14.5901 9 4.18303
      vertex 14.5 9 8.88178e-16
    endloop
  endfacet
  facet normal -0 -1 0
    outer loop
      vertex 18.267 9 11.3993
      vertex 19.4099 9 10.817
      vertex 21.7528 9 13
    endloop
  endfacet
  facet normal 0 -1 0
    outer loop
      vertex 21.7528 9 13
      vertex 20.317 9 9.90992
      vertex 25.5056 9 6.5
    endloop
  endfacet
  facet normal 0 -1 0
    outer loop
      vertex 20.317 9 9.90992
      vertex 20.8993 9 8.76697
      vertex 25.5056 9 6.5
    endloop
  endfacet
  facet normal 0 -2.80064e-17 0
    outer loop
      vertex 14.5 9 8.88178e-16
      vertex 13.683 9 5.09008
      vertex 14.5 9 0
    endloop
  endfacet
  facet normal 0 -1 0
    outer loop
      vertex 20.8993 9 8.76697
      vertex 21.1 9 7.5
      vertex 25.5056 9 6.5
    endloop
  endfacet
  facet normal 0 -1 0
    outer loop
      vertex 21.1 9 7.5
      vertex 20.8993 9 6.23303
      vertex 25.5056 9 6.5
    endloop
  endfacet
  facet normal -0 -1 0
    outer loop
      vertex 20.8993 9 6.23303
      vertex 20.317 9 5.09008
      vertex 25.5056 9 6.5
    endloop
  endfacet
  facet normal -0 -1 0
    outer loop
      vertex 20.317 9 5.09008
      vertex 19.4099 9 4.18303
      vertex 25.5056 9 6.5
    endloop
  endfacet
  facet normal 0 -1 0
    outer loop
      vertex 14.5901 9 4.18303
      vertex 13.683 9 5.09008
      vertex 14.5 9 8.88178e-16
    endloop
  endfacet
  facet normal 0 -1 0
    outer loop
      vertex 9.18934 9 13
      vertex 13.1007 9 6.23303
      vertex 12.9 9 7.5
    endloop
  endfacet
  facet normal 0 -1 0
    outer loop
      vertex 9.18934 9 13
      vertex 14.5 9 0
      vertex 13.1007 9 6.23303
    endloop
  endfacet
  facet normal 0 -1 0
    outer loop
      vertex 13.1007 9 8.76697
      vertex 13.683 9 9.90992
      vertex 14.2472 9 13
    endloop
  endfacet
  facet normal 0 -1 0
    outer loop
      vertex 13.683 9 9.90992
      vertex 14.5901 9 10.817
      vertex 14.2472 9 13
    endloop
  endfacet
  facet normal 2.22045e-16 0 -0
    outer loop
      vertex 14.5 9 8.88178e-16
      vertex 14.5 9 0
      vertex 14.5 13 0
    endloop
  endfacet
  facet normal -0 -2.22045e-16 -1
    outer loop
      vertex 14.5 9 8.88178e-16
      vertex 14.5 13 0
      vertex 21.7528 9 8.88178e-16
    endloop
  endfacet
  facet normal 0 -2.22045e-16 -1
    outer loop
      vertex 21.7528 9 8.88178e-16
      vertex 14.5 13 0
      vertex 21.7528 13 0
    endloop
  endfacet
  facet normal 0 1 0
    outer loop
      vertex 18.267 13 11.3993
      vertex 14.2472 13 13
      vertex 21.7528 13 13
    endloop
  endfacet
  facet normal 0 1 0
    outer loop
      vertex 21.1 13 7.5
      vertex 21.7528 13 13
      vertex 25.5056 13 6.5
    endloop
  endfacet
  facet normal -1.76832e-16 1 -1.71191e-16
    outer loop
      vertex 18.267 13 3.60067
      vertex 25.5056 13 6.5
      vertex 21.7528 13 0
    endloop
  endfacet
  facet normal 0 1 -0
    outer loop
      vertex 18.267 13 3.60067
      vertex 21.7528 13 0
      vertex 17 13 3.4
    endloop
  endfacet
  facet normal -0 1 -0
    outer loop
      vertex 15.733 13 3.60067
      vertex 21.7528 13 0
      vertex 14.5901 13 4.18303
    endloop
  endfacet
  facet normal -0 1 -0
    outer loop
      vertex 17 13 3.4
      vertex 21.7528 13 0
      vertex 15.733 13 3.60067
    endloop
  endfacet
  facet normal -1.14728e-15 1 2.25166e-15
    outer loop
      vertex 19.4099 13 4.18303
      vertex 25.5056 13 6.5
      vertex 18.267 13 3.60067
    endloop
  endfacet
  facet normal -3.07202e-16 1 -1.3534e-15
    outer loop
      vertex 21.1 13 7.5
      vertex 25.5056 13 6.5
      vertex 20.8993 13 6.23303
    endloop
  endfacet
  facet normal -4.70102e-16 1 4.70102e-16
    outer loop
      vertex 20.317 13 5.09008
      vertex 25.5056 13 6.5
      vertex 19.4099 13 4.18303
    endloop
  endfacet
  facet normal -3.97378e-16 1 2.02474e-16
    outer loop
      vertex 20.8993 13 6.23303
      vertex 25.5056 13 6.5
      vertex 20.317 13 5.09008
    endloop
  endfacet
  facet normal 0 1 0
    outer loop
      vertex 20.8993 13 8.76697
      vertex 21.7528 13 13
      vertex 21.1 13 7.5
    endloop
  endfacet
  facet normal 0 1 0
    outer loop
      vertex 18.267 13 11.3993
      vertex 21.7528 13 13
      vertex 19.4099 13 10.817
    endloop
  endfacet
  facet normal 0 1 0
    outer loop
      vertex 20.317 13 9.90992
      vertex 21.7528 13 13
      vertex 20.8993 13 8.76697
    endloop
  endfacet
  facet normal 0 1 0
    outer loop
      vertex 19.4099 13 10.817
      vertex 21.7528 13 13
      vertex 20.317 13 9.90992
    endloop
  endfacet
  facet normal 0 1 0
    outer loop
      vertex 17 13 11.6
      vertex 14.2472 13 13
      vertex 18.267 13 11.3993
    endloop
  endfacet
  facet normal 0 1 0
    outer loop
      vertex 13.1007 13 8.76697
      vertex 14.2472 13 13
      vertex 13.683 13 9.90992
    endloop
  endfacet
  facet normal 0 1 0
    outer loop
      vertex 15.733 13 11.3993
      vertex 14.2472 13 13
      vertex 17 13 11.6
    endloop
  endfacet
  facet normal 0 1 0
    outer loop
      vertex 14.5901 13 10.817
      vertex 14.2472 13 13
      vertex 15.733 13 11.3993
    endloop
  endfacet
  facet normal 0 1 0
    outer loop
      vertex 13.683 13 9.90992
      vertex 14.2472 13 13
      vertex 14.5901 13 10.817
    endloop
  endfacet
  facet normal 0 1 0
    outer loop
      vertex 10.4944 13 6.5
      vertex 14.2472 13 13
      vertex 13.1007 13 8.76697
    endloop
  endfacet
  facet normal 0 1 0
    outer loop
      vertex 10.4944 13 6.5
      vertex 13.1007 13 8.76697
      vertex 12.9 13 7.5
    endloop
  endfacet
  facet normal 0 1 0
    outer loop
      vertex 10.4944 13 6.5
      vertex 12.9 13 7.5
      vertex 13.0584 13 6.5
    endloop
  endfacet
  facet normal 0 1 -0
    outer loop
      vertex 14.5901 13 4.18303
      vertex 21.7528 13 0
      vertex 14.5 13 0
    endloop
  endfacet
  facet normal 0 1 -0
    outer loop
      vertex 14.5 13 4.27311
      vertex 14.5901 13 4.18303
      vertex 14.5 13 0
    endloop
  endfacet
  facet normal -0 1 -0
    outer loop
      vertex 13.683 13 5.09008
      vertex 14.5 13 0
      vertex 13.1007 13 6.23303
    endloop
  endfacet
  facet normal 0 1 0
    outer loop
      vertex 6.5 13 0
      vertex 6.5 13 13
      vertex 10.4944 13 6.5
    endloop
  endfacet
  facet normal 0 1 0
    outer loop
      vertex 6.5 13 0
      vertex 10.4944 13 6.5
      vertex 14.5 13 0
    endloop
  endfacet
  facet normal -0 1 0
    outer loop
      vertex 14.5 13 4.27311
      vertex 14.5 13 0
      vertex 13.683 13 5.09008
    endloop
  endfacet
  facet normal 0 1 0
    outer loop
      vertex 10.4944 13 6.5
      vertex 6.5 13 13
      vertex 14.2472 13 13
    endloop
  endfacet
  facet normal -0 1 -0
    outer loop
      vertex 13.1007 13 6.23303
      vertex 14.5 13 0
      vertex 10.4944 13 6.5
    endloop
  endfacet
  facet normal 0 1 -0
    outer loop
      vertex 13.0584 13 6.5
      vertex 13.1007 13 6.23303
      vertex 10.4944 13 6.5
    endloop
  endfacet
  facet normal -0.156435 0.987688 0
    outer loop
      vertex 4.49139 12.6819 0
      vertex 4.49139 12.6819 13
      vertex 6.5 13 0
    endloop
  endfacet
  facet normal -0.156435 0.987688 0
    outer loop
      vertex 6.5 13 0
      vertex 4.49139 12.6819 13
      vertex 6.5 13 13
    endloop
  endfacet
  facet normal -0.45399 0.891007 0
    outer loop
      vertex 2.6794 11.7586 0
      vertex 2.6794 11.7586 13
      vertex 4.49139 12.6819 0
    endloop
  endfacet
  facet normal -0.45399 0.891007 0
    outer loop
      vertex 4.49139 12.6819 0
      vertex 2.6794 11.7586 13
      vertex 4.49139 12.6819 13
    endloop
  endfacet
  facet normal -0.707107 0.707107 0
    outer loop
      vertex 1.24139 10.3206 0
      vertex 1.24139 10.3206 13
      vertex 2.6794 11.7586 0
    endloop
  endfacet
  facet normal -0.707107 0.707107 0
    outer loop
      vertex 2.6794 11.7586 0
      vertex 1.24139 10.3206 13
      vertex 2.6794 11.7586 13
    endloop
  endfacet
  facet normal -0.891007 0.45399 0
    outer loop
      vertex 0.318133 8.50861 0
      vertex 0.318133 8.50861 13
      vertex 1.24139 10.3206 0
    endloop
  endfacet
  facet normal -0.891007 0.45399 0
    outer loop
      vertex 1.24139 10.3206 0
      vertex 0.318133 8.50861 13
      vertex 1.24139 10.3206 13
    endloop
  endfacet
  facet normal 0 0 1
    outer loop
      vertex 0.318133 8.50861 13
      vertex 0 6.5 13
      vertex 0.318133 4.49139 13
    endloop
  endfacet
  facet normal 0 0 1
    outer loop
      vertex 2.6794 1.24139 13
      vertex 0.318133 8.50861 13
      vertex 1.24139 2.6794 13
    endloop
  endfacet
  facet normal 0 0 1
    outer loop
      vertex 1.24139 2.6794 13
      vertex 0.318133 8.50861 13
      vertex 0.318133 4.49139 13
    endloop
  endfacet
  facet normal 0 0 1
    outer loop
      vertex 4.49139 0.318133 13
      vertex 0.318133 8.50861 13
      vertex 2.6794 1.24139 13
    endloop
  endfacet
  facet normal 0 0 1
    outer loop
      vertex 6.5 0 13
      vertex 0.318133 8.50861 13
      vertex 4.49139 0.318133 13
    endloop
  endfacet
  facet normal -0 -0 1
    outer loop
      vertex 3.66564 4.12169 13
      vertex 0.318133 8.50861 13
      vertex 6.5 0 13
    endloop
  endfacet
  facet normal 0 -0 1
    outer loop
      vertex 9.18934 4 13
      vertex 8.35 3.29571 13
      vertex 14.2472 1.44329e-15 13
    endloop
  endfacet
  facet normal -0 0 1.80411e-16
    outer loop
      vertex 14.5 0 13
      vertex 14.2472 1.44329e-15 13
      vertex 6.5 0 13
    endloop
  endfacet
  facet normal -0 0 1
    outer loop
      vertex 14.2472 1.44329e-15 13
      vertex 8.35 3.29571 13
      vertex 6.5 0 13
    endloop
  endfacet
  facet normal 0 0 1
    outer loop
      vertex 8.35 3.29571 13
      vertex 7.1425 2.85621 13
      vertex 6.5 0 13
    endloop
  endfacet
  facet normal 0 0 1
    outer loop
      vertex 7.1425 2.85621 13
      vertex 5.8575 2.85621 13
      vertex 6.5 0 13
    endloop
  endfacet
  facet normal -0 -0 1
    outer loop
      vertex 5.8575 2.85621 13
      vertex 4.65 3.29571 13
      vertex 6.5 0 13
    endloop
  endfacet
  facet normal -0 -0 1
    outer loop
      vertex 4.65 3.29571 13
      vertex 3.66564 4.12169 13
      vertex 6.5 0 13
    endloop
  endfacet
  facet normal -0 -0 1
    outer loop
      vertex 3.02314 5.23452 13
      vertex 0.318133 8.50861 13
      vertex 3.66564 4.12169 13
    endloop
  endfacet
  facet normal 0 0 1
    outer loop
      vertex 2.8 6.5 13
      vertex 3.02314 7.76547 13
      vertex 0.318133 8.50861 13
    endloop
  endfacet
  facet normal 0 0 1
    outer loop
      vertex 3.66564 8.87831 13
      vertex 0.318133 8.50861 13
      vertex 3.02314 7.76547 13
    endloop
  endfacet
  facet normal 0 0 1
    outer loop
      vertex 4.65 9.70429 13
      vertex 0.318133 8.50861 13
      vertex 3.66564 8.87831 13
    endloop
  endfacet
  facet normal 0 0 1
    outer loop
      vertex 5.8575 10.1438 13
      vertex 0.318133 8.50861 13
      vertex 4.65 9.70429 13
    endloop
  endfacet
  facet normal 0 0 1
    outer loop
      vertex 14.2472 13 13
      vertex 0.318133 8.50861 13
      vertex 5.8575 10.1438 13
    endloop
  endfacet
  facet normal 0 0 1
    outer loop
      vertex 14.2472 13 13
      vertex 5.8575 10.1438 13
      vertex 7.1425 10.1438 13
    endloop
  endfacet
  facet normal 0 0 1
    outer loop
      vertex 14.2472 9 13
      vertex 7.1425 10.1438 13
      vertex 8.35 9.70429 13
    endloop
  endfacet
  facet normal -0 0 1
    outer loop
      vertex 14.2472 9 13
      vertex 8.35 9.70429 13
      vertex 9.18934 9 13
    endloop
  endfacet
  facet normal 0 0 1
    outer loop
      vertex 14.2472 13 13
      vertex 7.1425 10.1438 13
      vertex 14.2472 9 13
    endloop
  endfacet
  facet normal 0 -0 1
    outer loop
      vertex 6.5 13 13
      vertex 0.318133 8.50861 13
      vertex 14.2472 13 13
    endloop
  endfacet
  facet normal 0 -0 1
    outer loop
      vertex 4.49139 12.6819 13
      vertex 0.318133 8.50861 13
      vertex 6.5 13 13
    endloop
  endfacet
  facet normal 0 -0 1
    outer loop
      vertex 2.6794 11.7586 13
      vertex 0.318133 8.50861 13
      vertex 4.49139 12.6819 13
    endloop
  endfacet
  facet normal 0 -0 1
    outer loop
      vertex 1.24139 10.3206 13
      vertex 0.318133 8.50861 13
      vertex 2.6794 11.7586 13
    endloop
  endfacet
  facet normal 0 0 5.70974e-15
    outer loop
      vertex 14.5 1.44329e-15 13
      vertex 14.2472 1.44329e-15 13
      vertex 14.5 0 13
    endloop
  endfacet
  facet normal 0 0 1
    outer loop
      vertex 14.2472 1.44329e-15 13
      vertex 14.2472 4 13
      vertex 9.18934 4 13
    endloop
  endfacet
  facet normal 0 0 1
    outer loop
      vertex 3.02314 5.23452 13
      vertex 2.8 6.5 13
      vertex 0.318133 8.50861 13
    endloop
  endfacet
  facet normal 4.12896e-16 0 -0
    outer loop
      vertex 14.5 0 13
      vertex 14.5 0 10.7269
      vertex 14.5 9.38558e-16 10.7269
    endloop
  endfacet
  facet normal 6.34941e-16 0 0
    outer loop
      vertex 14.5 1.44329e-15 13
      vertex 14.5 0 13
      vertex 14.5 9.38558e-16 10.7269
    endloop
  endfacet
  facet normal 0.707107 -3.02923e-16 -0.707107
    outer loop
      vertex 13.683 4 9.90992
      vertex 14.5901 4 10.817
      vertex 14.5901 9.5856e-16 10.817
    endloop
  endfacet
  facet normal 4.79234e-17 0 -4.79234e-17
    outer loop
      vertex 14.5 0 10.7269
      vertex 13.683 4 9.90992
      vertex 14.5 9.38558e-16 10.7269
    endloop
  endfacet
  facet normal 0.707107 2.83237e-15 -0.707107
    outer loop
      vertex 14.5 9.38558e-16 10.7269
      vertex 13.683 4 9.90992
      vertex 14.5901 9.5856e-16 10.817
    endloop
  endfacet
  facet normal 0.707107 -3.14018e-16 -0.707107
    outer loop
      vertex 13.683 0 9.90992
      vertex 13.683 4 9.90992
      vertex 14.5 0 10.7269
    endloop
  endfacet
  facet normal 0.891007 -1.94736e-16 -0.45399
    outer loop
      vertex 13.1007 4 8.76697
      vertex 13.683 4 9.90992
      vertex 13.683 0 9.90992
    endloop
  endfacet
  facet normal 0.891007 0 -0.45399
    outer loop
      vertex 13.1007 0 8.76697
      vertex 13.1007 4 8.76697
      vertex 13.683 0 9.90992
    endloop
  endfacet
  facet normal 0.987688 0 -0.156434
    outer loop
      vertex 12.9 4 7.5
      vertex 13.1007 4 8.76697
      vertex 13.1007 0 8.76697
    endloop
  endfacet
  facet normal 0.987688 -3.47354e-17 -0.156434
    outer loop
      vertex 12.9 0 7.5
      vertex 12.9 4 7.5
      vertex 13.1007 0 8.76697
    endloop
  endfacet
  facet normal 0.987688 3.36936e-17 0.156434
    outer loop
      vertex 13.0584 0 6.5
      vertex 13.1007 -5.92792e-17 6.23303
      vertex 13.1007 4 6.23303
    endloop
  endfacet
  facet normal 0.987688 3.47354e-17 0.156434
    outer loop
      vertex 12.9 0 7.5
      vertex 13.0584 0 6.5
      vertex 12.9 4 7.5
    endloop
  endfacet
  facet normal 0.987688 3.08332e-16 0.156434
    outer loop
      vertex 12.9 4 7.5
      vertex 13.0584 0 6.5
      vertex 13.1007 4 6.23303
    endloop
  endfacet
  facet normal 6.38453e-32 -1 2.22045e-16
    outer loop
      vertex 13.1007 -5.92792e-17 6.23303
      vertex 10.4944 0 6.5
      vertex 14.2472 -1.44329e-15 2.88658e-15
    endloop
  endfacet
  facet normal -1.37686e-31 -1 2.22045e-16
    outer loop
      vertex 13.683 -3.13065e-16 5.09008
      vertex 13.1007 -5.92792e-17 6.23303
      vertex 14.2472 -1.44329e-15 2.88658e-15
    endloop
  endfacet
  facet normal -2.06864e-32 -1 2.22045e-16
    outer loop
      vertex 21.1 2.22045e-16 7.5
      vertex 20.8993 -5.92792e-17 6.23303
      vertex 25.5056 0 6.5
    endloop
  endfacet
  facet normal -7.59317e-33 -1 2.22045e-16
    outer loop
      vertex 18.267 -6.43781e-16 3.60067
      vertex 17 -6.88338e-16 3.4
      vertex 21.7528 -1.44329e-15 2.88658e-15
    endloop
  endfacet
  facet normal 0 -7.97081e-18 3.53975e-33
    outer loop
      vertex 14.2472 1.44329e-15 13
      vertex 14.5 1.44329e-15 13
      vertex 21.7528 1.44329e-15 13
    endloop
  endfacet
  facet normal 2.91044e-32 -1 2.22045e-16
    outer loop
      vertex 18.267 1.08787e-15 11.3993
      vertex 19.4099 9.5856e-16 10.817
      vertex 21.7528 1.44329e-15 13
    endloop
  endfacet
  facet normal 0 -1 2.22045e-16
    outer loop
      vertex 14.5 1.44329e-15 13
      vertex 14.5 9.38558e-16 10.7269
      vertex 14.5901 9.5856e-16 10.817
    endloop
  endfacet
  facet normal 5.43834e-32 -1 2.22045e-16
    outer loop
      vertex 14.5 1.44329e-15 13
      vertex 15.733 1.08787e-15 11.3993
      vertex 21.7528 1.44329e-15 13
    endloop
  endfacet
  facet normal 0 -1 2.22045e-16
    outer loop
      vertex 14.5 1.44329e-15 13
      vertex 14.5901 9.5856e-16 10.817
      vertex 15.733 1.08787e-15 11.3993
    endloop
  endfacet
  facet normal -4.08517e-31 -1 2.22045e-16
    outer loop
      vertex 15.733 1.08787e-15 11.3993
      vertex 17 1.13243e-15 11.6
      vertex 21.7528 1.44329e-15 13
    endloop
  endfacet
  facet normal 4.44705e-32 -1 2.22045e-16
    outer loop
      vertex 21.7528 1.44329e-15 13
      vertex 19.4099 9.5856e-16 10.817
      vertex 25.5056 0 6.5
    endloop
  endfacet
  facet normal 0 -1 2.22045e-16
    outer loop
      vertex 19.4099 9.5856e-16 10.817
      vertex 20.317 7.57154e-16 9.90992
      vertex 25.5056 0 6.5
    endloop
  endfacet
  facet normal -1.68251e-31 -1 2.22045e-16
    outer loop
      vertex 20.317 7.57154e-16 9.90992
      vertex 20.8993 5.03368e-16 8.76697
      vertex 25.5056 0 6.5
    endloop
  endfacet
  facet normal 2.43004e-32 -1 2.22045e-16
    outer loop
      vertex 20.8993 5.03368e-16 8.76697
      vertex 21.1 2.22045e-16 7.5
      vertex 25.5056 0 6.5
    endloop
  endfacet
  facet normal -3.14926e-32 -1 2.22045e-16
    outer loop
      vertex 25.5056 0 6.5
      vertex 20.8993 -5.92792e-17 6.23303
      vertex 21.7528 -1.44329e-15 2.88658e-15
    endloop
  endfacet
  facet normal 0 -1 2.22045e-16
    outer loop
      vertex 20.8993 -5.92792e-17 6.23303
      vertex 20.317 -3.13065e-16 5.09008
      vertex 21.7528 -1.44329e-15 2.88658e-15
    endloop
  endfacet
  facet normal 0 -1 2.22045e-16
    outer loop
      vertex 20.317 -3.13065e-16 5.09008
      vertex 19.4099 -5.14471e-16 4.18303
      vertex 21.7528 -1.44329e-15 2.88658e-15
    endloop
  endfacet
  facet normal 7.01913e-32 -1 2.22045e-16
    outer loop
      vertex 19.4099 -5.14471e-16 4.18303
      vertex 18.267 -6.43781e-16 3.60067
      vertex 21.7528 -1.44329e-15 2.88658e-15
    endloop
  endfacet
  facet normal 0 -1 2.22045e-16
    outer loop
      vertex 21.7528 -1.44329e-15 2.88658e-15
      vertex 17 -6.88338e-16 3.4
      vertex 14.2472 -1.44329e-15 2.88658e-15
    endloop
  endfacet
  facet normal 0 -1 2.22045e-16
    outer loop
      vertex 17 -6.88338e-16 3.4
      vertex 15.733 -6.43781e-16 3.60067
      vertex 14.2472 -1.44329e-15 2.88658e-15
    endloop
  endfacet
  facet normal -6.41696e-32 -1 2.22045e-16
    outer loop
      vertex 15.733 -6.43781e-16 3.60067
      vertex 14.5901 -5.14471e-16 4.18303
      vertex 14.2472 -1.44329e-15 2.88658e-15
    endloop
  endfacet
  facet normal 0 -1 2.22045e-16
    outer loop
      vertex 14.5901 -5.14471e-16 4.18303
      vertex 13.683 -3.13065e-16 5.09008
      vertex 14.2472 -1.44329e-15 2.88658e-15
    endloop
  endfacet
  facet normal 0 -1 2.22045e-16
    outer loop
      vertex 13.0584 0 6.5
      vertex 10.4944 0 6.5
      vertex 13.1007 -5.92792e-17 6.23303
    endloop
  endfacet
  facet normal 1.30794e-31 -1 2.22045e-16
    outer loop
      vertex 17 1.13243e-15 11.6
      vertex 18.267 1.08787e-15 11.3993
      vertex 21.7528 1.44329e-15 13
    endloop
  endfacet
  facet normal -2.22045e-16 -3.50345e-32 -1.28197e-16
    outer loop
      vertex 14.2472 -1.44329e-15 2.88658e-15
      vertex 10.4944 0 6.5
      vertex 14.2472 0 2.88658e-15
    endloop
  endfacet
  facet normal -0 -5.25518e-32 -1.92296e-16
    outer loop
      vertex 14.2472 -1.44329e-15 2.88658e-15
      vertex 14.2472 0 2.88658e-15
      vertex 21.7528 -1.44329e-15 2.88658e-15
    endloop
  endfacet
  facet normal 0 -1.76987e-33 -6.47628e-18
    outer loop
      vertex 21.7528 -1.44329e-15 2.88658e-15
      vertex 14.2472 0 2.88658e-15
      vertex 14.5 0 2.88658e-15
    endloop
  endfacet
  facet normal 1.01969e-32 -2.22045e-16 -1
    outer loop
      vertex 21.7528 -1.44329e-15 2.88658e-15
      vertex 14.5 0 2.88658e-15
      vertex 14.5 4 1.9984e-15
    endloop
  endfacet
  facet normal 0 -2.22045e-16 -1
    outer loop
      vertex 21.7528 -1.44329e-15 2.88658e-15
      vertex 14.5 4 1.9984e-15
      vertex 21.7528 4 1.9984e-15
    endloop
  endfacet
  facet normal 0.866025 -1.56241e-16 -0.5
    outer loop
      vertex 25.5056 0 6.5
      vertex 21.7528 -1.44329e-15 2.88658e-15
      vertex 21.7528 4 1.9984e-15
    endloop
  endfacet
  facet normal 0.866025 -1.11022e-16 -0.5
    outer loop
      vertex 25.5056 4 6.5
      vertex 25.5056 0 6.5
      vertex 21.7528 4 1.9984e-15
    endloop
  endfacet
  facet normal 0.866025 -0 0.5
    outer loop
      vertex 21.7528 4 13
      vertex 21.7528 1.44329e-15 13
      vertex 25.5056 0 6.5
    endloop
  endfacet
  facet normal 0.866025 1.11022e-16 0.5
    outer loop
      vertex 25.5056 4 6.5
      vertex 21.7528 4 13
      vertex 25.5056 0 6.5
    endloop
  endfacet
  facet normal 0 -0 1
    outer loop
      vertex 14.2472 4 13
      vertex 14.2472 1.44329e-15 13
      vertex 21.7528 1.44329e-15 13
    endloop
  endfacet
  facet normal 0 0 1
    outer loop
      vertex 21.7528 4 13
      vertex 14.2472 4 13
      vertex 21.7528 1.44329e-15 13
    endloop
  endfacet
  facet normal 0.891007 1.00806e-16 0.45399
    outer loop
      vertex 13.683 -3.13065e-16 5.09008
      vertex 13.683 4 5.09008
      vertex 13.1007 4 6.23303
    endloop
  endfacet
  facet normal 0.891007 1.00806e-16 0.45399
    outer loop
      vertex 13.1007 -5.92792e-17 6.23303
      vertex 13.683 -3.13065e-16 5.09008
      vertex 13.1007 4 6.23303
    endloop
  endfacet
  facet normal 0.45399 -3.95686e-16 -0.891007
    outer loop
      vertex 15.733 4 11.3993
      vertex 15.733 1.08787e-15 11.3993
      vertex 14.5901 4 10.817
    endloop
  endfacet
  facet normal 0.45399 -3.95686e-16 -0.891007
    outer loop
      vertex 14.5901 4 10.817
      vertex 15.733 1.08787e-15 11.3993
      vertex 14.5901 9.5856e-16 10.817
    endloop
  endfacet
  facet normal 0.156434 -4.38622e-16 -0.987688
    outer loop
      vertex 17 4 11.6
      vertex 17 1.13243e-15 11.6
      vertex 15.733 4 11.3993
    endloop
  endfacet
  facet normal 0.156434 -4.38622e-16 -0.987688
    outer loop
      vertex 15.733 4 11.3993
      vertex 17 1.13243e-15 11.6
      vertex 15.733 1.08787e-15 11.3993
    endloop
  endfacet
  facet normal -0.156434 -4.38622e-16 -0.987688
    outer loop
      vertex 18.267 4 11.3993
      vertex 18.267 1.08787e-15 11.3993
      vertex 17 4 11.6
    endloop
  endfacet
  facet normal -0.156434 -4.38622e-16 -0.987688
    outer loop
      vertex 17 4 11.6
      vertex 18.267 1.08787e-15 11.3993
      vertex 17 1.13243e-15 11.6
    endloop
  endfacet
  facet normal -0.45399 -3.95686e-16 -0.891007
    outer loop
      vertex 19.4099 4 10.817
      vertex 19.4099 9.5856e-16 10.817
      vertex 18.267 4 11.3993
    endloop
  endfacet
  facet normal -0.45399 -3.95686e-16 -0.891007
    outer loop
      vertex 18.267 4 11.3993
      vertex 19.4099 9.5856e-16 10.817
      vertex 18.267 1.08787e-15 11.3993
    endloop
  endfacet
  facet normal -0.707107 -3.14018e-16 -0.707107
    outer loop
      vertex 20.317 4 9.90992
      vertex 20.317 7.57154e-16 9.90992
      vertex 19.4099 4 10.817
    endloop
  endfacet
  facet normal -0.707107 -3.14018e-16 -0.707107
    outer loop
      vertex 19.4099 4 10.817
      vertex 20.317 7.57154e-16 9.90992
      vertex 19.4099 9.5856e-16 10.817
    endloop
  endfacet
  facet normal -0.891007 0 -0.45399
    outer loop
      vertex 20.8993 4 8.76697
      vertex 20.8993 5.03368e-16 8.76697
      vertex 20.317 4 9.90992
    endloop
  endfacet
  facet normal -0.891007 -2.01612e-16 -0.45399
    outer loop
      vertex 20.317 4 9.90992
      vertex 20.8993 5.03368e-16 8.76697
      vertex 20.317 7.57154e-16 9.90992
    endloop
  endfacet
  facet normal -0.987688 -3.47354e-17 -0.156434
    outer loop
      vertex 21.1 4 7.5
      vertex 21.1 2.22045e-16 7.5
      vertex 20.8993 4 8.76697
    endloop
  endfacet
  facet normal -0.987688 0 -0.156434
    outer loop
      vertex 20.8993 4 8.76697
      vertex 21.1 2.22045e-16 7.5
      vertex 20.8993 5.03368e-16 8.76697
    endloop
  endfacet
  facet normal -0.987688 3.47354e-17 0.156434
    outer loop
      vertex 21.1 4 7.5
      vertex 20.8993 4 6.23303
      vertex 21.1 2.22045e-16 7.5
    endloop
  endfacet
  facet normal -0.987688 3.2456e-17 0.156434
    outer loop
      vertex 21.1 2.22045e-16 7.5
      vertex 20.8993 4 6.23303
      vertex 20.8993 -5.92792e-17 6.23303
    endloop
  endfacet
  facet normal -0.891007 1.00806e-16 0.45399
    outer loop
      vertex 20.8993 4 6.23303
      vertex 20.317 4 5.09008
      vertex 20.8993 -5.92792e-17 6.23303
    endloop
  endfacet
  facet normal -0.891007 8.65494e-17 0.45399
    outer loop
      vertex 20.8993 -5.92792e-17 6.23303
      vertex 20.317 4 5.09008
      vertex 20.317 -3.13065e-16 5.09008
    endloop
  endfacet
  facet normal -0.707107 1.57009e-16 0.707107
    outer loop
      vertex 20.317 4 5.09008
      vertex 19.4099 4 4.18303
      vertex 20.317 -3.13065e-16 5.09008
    endloop
  endfacet
  facet normal -0.707107 1.51461e-16 0.707107
    outer loop
      vertex 20.317 -3.13065e-16 5.09008
      vertex 19.4099 4 4.18303
      vertex 19.4099 -5.14471e-16 4.18303
    endloop
  endfacet
  facet normal -0.45399 1.97843e-16 0.891007
    outer loop
      vertex 19.4099 -5.14471e-16 4.18303
      vertex 19.4099 4 4.18303
      vertex 18.267 4 3.60067
    endloop
  endfacet
  facet normal -0.45399 1.97843e-16 0.891007
    outer loop
      vertex 18.267 -6.43781e-16 3.60067
      vertex 19.4099 -5.14471e-16 4.18303
      vertex 18.267 4 3.60067
    endloop
  endfacet
  facet normal -0.156434 2.19311e-16 0.987688
    outer loop
      vertex 18.267 -6.43781e-16 3.60067
      vertex 18.267 4 3.60067
      vertex 17 4 3.4
    endloop
  endfacet
  facet normal -0.156434 2.19311e-16 0.987688
    outer loop
      vertex 17 -6.88338e-16 3.4
      vertex 18.267 -6.43781e-16 3.60067
      vertex 17 4 3.4
    endloop
  endfacet
  facet normal 0.156434 2.19311e-16 0.987688
    outer loop
      vertex 17 -6.88338e-16 3.4
      vertex 17 4 3.4
      vertex 15.733 4 3.60067
    endloop
  endfacet
  facet normal 0.156434 2.19311e-16 0.987688
    outer loop
      vertex 15.733 -6.43781e-16 3.60067
      vertex 17 -6.88338e-16 3.4
      vertex 15.733 4 3.60067
    endloop
  endfacet
  facet normal 0.45399 1.97843e-16 0.891007
    outer loop
      vertex 15.733 -6.43781e-16 3.60067
      vertex 15.733 4 3.60067
      vertex 14.5901 4 4.18303
    endloop
  endfacet
  facet normal 0.45399 1.97843e-16 0.891007
    outer loop
      vertex 14.5901 -5.14471e-16 4.18303
      vertex 15.733 -6.43781e-16 3.60067
      vertex 14.5901 4 4.18303
    endloop
  endfacet
  facet normal 0.707107 1.57009e-16 0.707107
    outer loop
      vertex 14.5901 -5.14471e-16 4.18303
      vertex 14.5901 4 4.18303
      vertex 13.683 4 5.09008
    endloop
  endfacet
  facet normal 0.707107 1.57009e-16 0.707107
    outer loop
      vertex 13.683 -3.13065e-16 5.09008
      vertex 14.5901 -5.14471e-16 4.18303
      vertex 13.683 4 5.09008
    endloop
  endfacet
  facet normal 0 -0 1
    outer loop
      vertex 14.2472 13 13
      vertex 14.2472 9 13
      vertex 21.7528 9 13
    endloop
  endfacet
  facet normal 0 0 1
    outer loop
      vertex 21.7528 13 13
      vertex 14.2472 13 13
      vertex 21.7528 9 13
    endloop
  endfacet
  facet normal 0.866025 -0 0.5
    outer loop
      vertex 21.7528 13 13
      vertex 21.7528 9 13
      vertex 25.5056 9 6.5
    endloop
  endfacet
  facet normal 0.866025 1.11022e-16 0.5
    outer loop
      vertex 25.5056 13 6.5
      vertex 21.7528 13 13
      vertex 25.5056 9 6.5
    endloop
  endfacet
  facet normal 0.866025 -1.56241e-16 -0.5
    outer loop
      vertex 25.5056 9 6.5
      vertex 21.7528 9 8.88178e-16
      vertex 21.7528 13 0
    endloop
  endfacet
  facet normal 0.866025 -1.11022e-16 -0.5
    outer loop
      vertex 25.5056 13 6.5
      vertex 25.5056 9 6.5
      vertex 21.7528 13 0
    endloop
  endfacet
  facet normal 0.987688 0 -0.156434
    outer loop
      vertex 12.9 13 7.5
      vertex 13.1007 13 8.76697
      vertex 13.1007 9 8.76697
    endloop
  endfacet
  facet normal 0.987688 -6.94707e-17 -0.156434
    outer loop
      vertex 12.9 9 7.5
      vertex 12.9 13 7.5
      vertex 13.1007 9 8.76697
    endloop
  endfacet
  facet normal 0.987688 3.47354e-17 0.156434
    outer loop
      vertex 13.1007 9 6.23303
      vertex 13.1007 13 6.23303
      vertex 13.0584 13 6.5
    endloop
  endfacet
  facet normal 0.987688 -3.22113e-16 0.156434
    outer loop
      vertex 12.9 13 7.5
      vertex 13.1007 9 6.23303
      vertex 13.0584 13 6.5
    endloop
  endfacet
  facet normal 0.987688 6.94707e-17 0.156434
    outer loop
      vertex 12.9 13 7.5
      vertex 12.9 9 7.5
      vertex 13.1007 9 6.23303
    endloop
  endfacet
  facet normal 0.891007 1.00806e-16 0.45399
    outer loop
      vertex 13.683 9 5.09008
      vertex 13.683 13 5.09008
      vertex 13.1007 13 6.23303
    endloop
  endfacet
  facet normal 0.891007 1.00806e-16 0.45399
    outer loop
      vertex 13.1007 9 6.23303
      vertex 13.683 9 5.09008
      vertex 13.1007 13 6.23303
    endloop
  endfacet
  facet normal 0.707107 1.57009e-16 0.707107
    outer loop
      vertex 14.5901 9 4.18303
      vertex 14.5901 13 4.18303
      vertex 14.5 13 4.27311
    endloop
  endfacet
  facet normal 0.707107 0 0.707107
    outer loop
      vertex 13.683 13 5.09008
      vertex 14.5901 9 4.18303
      vertex 14.5 13 4.27311
    endloop
  endfacet
  facet normal 0.707107 1.57009e-16 0.707107
    outer loop
      vertex 13.683 13 5.09008
      vertex 13.683 9 5.09008
      vertex 14.5901 9 4.18303
    endloop
  endfacet
  facet normal 0.45399 1.97843e-16 0.891007
    outer loop
      vertex 15.733 9 3.60067
      vertex 15.733 13 3.60067
      vertex 14.5901 13 4.18303
    endloop
  endfacet
  facet normal 0.45399 1.97843e-16 0.891007
    outer loop
      vertex 14.5901 9 4.18303
      vertex 15.733 9 3.60067
      vertex 14.5901 13 4.18303
    endloop
  endfacet
  facet normal 0.156434 2.19311e-16 0.987688
    outer loop
      vertex 17 9 3.4
      vertex 17 13 3.4
      vertex 15.733 13 3.60067
    endloop
  endfacet
  facet normal 0.156434 2.19311e-16 0.987688
    outer loop
      vertex 15.733 9 3.60067
      vertex 17 9 3.4
      vertex 15.733 13 3.60067
    endloop
  endfacet
  facet normal -0.156434 2.19311e-16 0.987688
    outer loop
      vertex 18.267 9 3.60067
      vertex 18.267 13 3.60067
      vertex 17 13 3.4
    endloop
  endfacet
  facet normal -0.156434 2.19311e-16 0.987688
    outer loop
      vertex 17 9 3.4
      vertex 18.267 9 3.60067
      vertex 17 13 3.4
    endloop
  endfacet
  facet normal -0.45399 1.97843e-16 0.891007
    outer loop
      vertex 19.4099 9 4.18303
      vertex 19.4099 13 4.18303
      vertex 18.267 13 3.60067
    endloop
  endfacet
  facet normal -0.45399 1.97843e-16 0.891007
    outer loop
      vertex 18.267 9 3.60067
      vertex 19.4099 9 4.18303
      vertex 18.267 13 3.60067
    endloop
  endfacet
  facet normal -0.707107 1.57009e-16 0.707107
    outer loop
      vertex 20.317 13 5.09008
      vertex 19.4099 13 4.18303
      vertex 20.317 9 5.09008
    endloop
  endfacet
  facet normal -0.707107 1.51461e-16 0.707107
    outer loop
      vertex 20.317 9 5.09008
      vertex 19.4099 13 4.18303
      vertex 19.4099 9 4.18303
    endloop
  endfacet
  facet normal -0.891007 1.00806e-16 0.45399
    outer loop
      vertex 20.8993 13 6.23303
      vertex 20.317 13 5.09008
      vertex 20.8993 9 6.23303
    endloop
  endfacet
  facet normal -0.891007 1.08187e-16 0.45399
    outer loop
      vertex 20.8993 9 6.23303
      vertex 20.317 13 5.09008
      vertex 20.317 9 5.09008
    endloop
  endfacet
  facet normal -0.987688 6.94707e-17 0.156434
    outer loop
      vertex 21.1 13 7.5
      vertex 20.8993 13 6.23303
      vertex 21.1 9 7.5
    endloop
  endfacet
  facet normal -0.987688 3.2456e-17 0.156434
    outer loop
      vertex 21.1 9 7.5
      vertex 20.8993 13 6.23303
      vertex 20.8993 9 6.23303
    endloop
  endfacet
  facet normal -0.987688 -6.94707e-17 -0.156434
    outer loop
      vertex 21.1 13 7.5
      vertex 21.1 9 7.5
      vertex 20.8993 13 8.76697
    endloop
  endfacet
  facet normal -0.987688 0 -0.156434
    outer loop
      vertex 20.8993 13 8.76697
      vertex 21.1 9 7.5
      vertex 20.8993 9 8.76697
    endloop
  endfacet
  facet normal -0.891007 0 -0.45399
    outer loop
      vertex 20.8993 13 8.76697
      vertex 20.8993 9 8.76697
      vertex 20.317 13 9.90992
    endloop
  endfacet
  facet normal -0.891007 -2.01612e-16 -0.45399
    outer loop
      vertex 20.317 13 9.90992
      vertex 20.8993 9 8.76697
      vertex 20.317 9 9.90992
    endloop
  endfacet
  facet normal -0.707107 -3.14018e-16 -0.707107
    outer loop
      vertex 20.317 13 9.90992
      vertex 20.317 9 9.90992
      vertex 19.4099 13 10.817
    endloop
  endfacet
  facet normal -0.707107 -3.14018e-16 -0.707107
    outer loop
      vertex 19.4099 13 10.817
      vertex 20.317 9 9.90992
      vertex 19.4099 9 10.817
    endloop
  endfacet
  facet normal -0.45399 -3.95686e-16 -0.891007
    outer loop
      vertex 19.4099 13 10.817
      vertex 19.4099 9 10.817
      vertex 18.267 13 11.3993
    endloop
  endfacet
  facet normal -0.45399 -3.95686e-16 -0.891007
    outer loop
      vertex 18.267 13 11.3993
      vertex 19.4099 9 10.817
      vertex 18.267 9 11.3993
    endloop
  endfacet
  facet normal -0.156434 -4.38622e-16 -0.987688
    outer loop
      vertex 18.267 13 11.3993
      vertex 18.267 9 11.3993
      vertex 17 13 11.6
    endloop
  endfacet
  facet normal -0.156434 -4.38622e-16 -0.987688
    outer loop
      vertex 17 13 11.6
      vertex 18.267 9 11.3993
      vertex 17 9 11.6
    endloop
  endfacet
  facet normal 0.156434 -4.38622e-16 -0.987688
    outer loop
      vertex 17 13 11.6
      vertex 17 9 11.6
      vertex 15.733 13 11.3993
    endloop
  endfacet
  facet normal 0.156434 -4.38622e-16 -0.987688
    outer loop
      vertex 15.733 13 11.3993
      vertex 17 9 11.6
      vertex 15.733 9 11.3993
    endloop
  endfacet
  facet normal 0.45399 -3.95686e-16 -0.891007
    outer loop
      vertex 15.733 13 11.3993
      vertex 15.733 9 11.3993
      vertex 14.5901 13 10.817
    endloop
  endfacet
  facet normal 0.45399 -3.95686e-16 -0.891007
    outer loop
      vertex 14.5901 13 10.817
      vertex 15.733 9 11.3993
      vertex 14.5901 9 10.817
    endloop
  endfacet
  facet normal 0.707107 -3.2456e-16 -0.707107
    outer loop
      vertex 13.683 13 9.90992
      vertex 14.5901 13 10.817
      vertex 14.5901 9 10.817
    endloop
  endfacet
  facet normal 0.707107 -3.14018e-16 -0.707107
    outer loop
      vertex 13.683 9 9.90992
      vertex 13.683 13 9.90992
      vertex 14.5901 9 10.817
    endloop
  endfacet
  facet normal 0.891007 -1.94736e-16 -0.45399
    outer loop
      vertex 13.1007 13 8.76697
      vertex 13.683 13 9.90992
      vertex 13.683 9 9.90992
    endloop
  endfacet
  facet normal 0.891007 0 -0.45399
    outer loop
      vertex 13.1007 9 8.76697
      vertex 13.1007 13 8.76697
      vertex 13.683 9 9.90992
    endloop
  endfacet
endsolid OpenSCAD_Model
