solid OpenSCAD_Model
  facet normal 3.55271e-16 8.11296e-17 1
    outer loop
      vertex -0.9 -8.55885 10
      vertex -5 -12.5 10
      vertex 5 -12.5 10
    endloop
  endfacet
  facet normal 4.33258e-16 -0 1
    outer loop
      vertex 5 -4.0101 10
      vertex 0.9 -8.55885 10
      vertex 5 -12.5 10
    endloop
  endfacet
  facet normal 4.33258e-16 -0 1
    outer loop
      vertex -5 -4.0101 10
      vertex -5 -12.5 10
      vertex -0.9 -8.55885 10
    endloop
  endfacet
  facet normal 3.60592e-16 -2.08188e-16 1
    outer loop
      vertex -1.8 -7 10
      vertex -0.9 -5.44115 10
      vertex -5 -4.0101 10
    endloop
  endfacet
  facet normal 1.20531e-15 6.95884e-16 1
    outer loop
      vertex -5 -4.0101 10
      vertex -0.9 -8.55885 10
      vertex -1.8 -7 10
    endloop
  endfacet
  facet normal 3.55271e-16 -2.23433e-16 1
    outer loop
      vertex 5 -4.0101 10
      vertex -5 -4.0101 10
      vertex -0.9 -5.44115 10
    endloop
  endfacet
  facet normal 0 1.24129e-15 1
    outer loop
      vertex 5 -4.0101 10
      vertex -0.9 -5.44115 10
      vertex 0.9 -5.44115 10
    endloop
  endfacet
  facet normal 1.20531e-15 -6.95884e-16 1
    outer loop
      vertex 5 -4.0101 10
      vertex 1.8 -7 10
      vertex 0.9 -8.55885 10
    endloop
  endfacet
  facet normal 3.60592e-16 2.08188e-16 1
    outer loop
      vertex 5 -4.0101 10
      vertex 0.9 -5.44115 10
      vertex 1.8 -7 10
    endloop
  endfacet
  facet normal 0 -4.5072e-16 1
    outer loop
      vertex 0.9 -8.55885 10
      vertex -0.9 -8.55885 10
      vertex 5 -12.5 10
    endloop
  endfacet
  facet normal 0 -1 0
    outer loop
      vertex 5 -12.5 10
      vertex -5 -12.5 10
      vertex -5 -12.5 0
    endloop
  endfacet
  facet normal 0 -1 -0
    outer loop
      vertex 5 -12.5 -2.22045e-15
      vertex 5 -12.5 10
      vertex -5 -12.5 0
    endloop
  endfacet
  facet normal -1 0 2.66454e-16
    outer loop
      vertex -5 -12.5 10
      vertex -5 -4.0101 10
      vertex -5 -12.5 0
    endloop
  endfacet
  facet normal -1 3.66225e-16 -4.44676e-17
    outer loop
      vertex -5 -12.5 0
      vertex -5 -4.0101 10
      vertex -5 -4.07011 9.5058
    endloop
  endfacet
  facet normal -1 -1.60932e-16 4.23023e-16
    outer loop
      vertex -5 -12.5 0
      vertex -5 -4.07011 9.5058
      vertex -5 -3.37423 7.67094
    endloop
  endfacet
  facet normal -1 9.98825e-17 1.12744e-16
    outer loop
      vertex -5 -3.37423 7.67094
      vertex -5 -1.90536 6.36963
      vertex -5 -12.5 0
    endloop
  endfacet
  facet normal -1 4.87511e-17 1.97791e-16
    outer loop
      vertex -5 -1.90536 6.36963
      vertex -5 0 5.9
      vertex -5 -12.5 0
    endloop
  endfacet
  facet normal -1 -1.55313e-16 6.30131e-16
    outer loop
      vertex -5 0 5.9
      vertex -5 1.90536 6.36963
      vertex -5 -12.5 0
    endloop
  endfacet
  facet normal -1 -5.21143e-17 3.96739e-16
    outer loop
      vertex -5 1.90536 6.36963
      vertex -5 12.5 10
      vertex -5 -12.5 0
    endloop
  endfacet
  facet normal -1 1.3671e-16 -1.54314e-16
    outer loop
      vertex -5 3.37423 7.67094
      vertex -5 12.5 10
      vertex -5 1.90536 6.36963
    endloop
  endfacet
  facet normal -1 0 -0
    outer loop
      vertex -5 4.07011 9.5058
      vertex -5 4.0101 10
      vertex -5 12.5 10
    endloop
  endfacet
  facet normal -1 -2.90229e-17 4.95063e-16
    outer loop
      vertex -5 4.07011 9.5058
      vertex -5 12.5 10
      vertex -5 3.37423 7.67094
    endloop
  endfacet
  facet normal -1 0 2.66454e-16
    outer loop
      vertex -5 -12.5 0
      vertex -5 12.5 10
      vertex -5 12.5 0
    endloop
  endfacet
  facet normal -2.14115e-17 0.992709 -0.120536
    outer loop
      vertex 5 -4.07011 9.5058
      vertex -5 -4.07011 9.5058
      vertex 5 -4.0101 10
    endloop
  endfacet
  facet normal -4.28231e-17 0.992709 -0.120536
    outer loop
      vertex 5 -4.0101 10
      vertex -5 -4.07011 9.5058
      vertex -5 -4.0101 10
    endloop
  endfacet
  facet normal 1 0 -2.66454e-16
    outer loop
      vertex 5 -4.0101 10
      vertex 5 -12.5 10
      vertex 5 -12.5 -2.22045e-15
    endloop
  endfacet
  facet normal 1 -3.66225e-16 4.44676e-17
    outer loop
      vertex 5 -4.07011 9.5058
      vertex 5 -4.0101 10
      vertex 5 -12.5 -2.22045e-15
    endloop
  endfacet
  facet normal 1 0 -2.66454e-16
    outer loop
      vertex 5 12.5 10
      vertex 5 4.0101 10
      vertex 5 12.5 -2.22045e-15
    endloop
  endfacet
  facet normal 1 3.66225e-16 4.44676e-17
    outer loop
      vertex 5 4.0101 10
      vertex 5 4.07011 9.5058
      vertex 5 12.5 -2.22045e-15
    endloop
  endfacet
  facet normal 1 -1.60932e-16 -4.23023e-16
    outer loop
      vertex 5 4.07011 9.5058
      vertex 5 3.37423 7.67093
      vertex 5 12.5 -2.22045e-15
    endloop
  endfacet
  facet normal 1 0 -2.78879e-16
    outer loop
      vertex 5 12.5 -2.22045e-15
      vertex 5 1.90536 6.36963
      vertex 5 -12.5 -2.22045e-15
    endloop
  endfacet
  facet normal 1 1.55313e-16 -6.30131e-16
    outer loop
      vertex 5 1.90536 6.36963
      vertex 5 0 5.9
      vertex 5 -12.5 -2.22045e-15
    endloop
  endfacet
  facet normal 1 -4.87511e-17 -1.97791e-16
    outer loop
      vertex 5 0 5.9
      vertex 5 -1.90536 6.36963
      vertex 5 -12.5 -2.22045e-15
    endloop
  endfacet
  facet normal 1 -9.98825e-17 -1.12744e-16
    outer loop
      vertex 5 -1.90536 6.36963
      vertex 5 -3.37423 7.67093
      vertex 5 -12.5 -2.22045e-15
    endloop
  endfacet
  facet normal 1 1.60932e-16 -4.23023e-16
    outer loop
      vertex 5 -3.37423 7.67093
      vertex 5 -4.07011 9.5058
      vertex 5 -12.5 -2.22045e-15
    endloop
  endfacet
  facet normal 1 9.98825e-17 -1.12744e-16
    outer loop
      vertex 5 3.37423 7.67093
      vertex 5 1.90536 6.36963
      vertex 5 12.5 -2.22045e-15
    endloop
  endfacet
  facet normal -0.866025 0.5 0
    outer loop
      vertex 1.8 -7 -1.5099e-15
      vertex 0.9 -8.55885 -1.31006e-15
      vertex 1.8 -7 10
    endloop
  endfacet
  facet normal -0.866025 0.5 0
    outer loop
      vertex 1.8 -7 10
      vertex 0.9 -8.55885 -1.31006e-15
      vertex 0.9 -8.55885 10
    endloop
  endfacet
  facet normal 0 1 0
    outer loop
      vertex 0.9 -8.55885 -1.31006e-15
      vertex -0.9 -8.55885 -9.10383e-16
      vertex 0.9 -8.55885 10
    endloop
  endfacet
  facet normal 0 1 0
    outer loop
      vertex 0.9 -8.55885 10
      vertex -0.9 -8.55885 -9.10383e-16
      vertex -0.9 -8.55885 10
    endloop
  endfacet
  facet normal -0.866025 -0.5 -0
    outer loop
      vertex 0.9 -5.44115 -1.31006e-15
      vertex 1.8 -7 -1.5099e-15
      vertex 0.9 -5.44115 10
    endloop
  endfacet
  facet normal -0.866025 -0.5 0
    outer loop
      vertex 0.9 -5.44115 10
      vertex 1.8 -7 -1.5099e-15
      vertex 1.8 -7 10
    endloop
  endfacet
  facet normal -0 -1 0
    outer loop
      vertex -0.9 -5.44115 -9.10383e-16
      vertex 0.9 -5.44115 -1.31006e-15
      vertex 0.9 -5.44115 10
    endloop
  endfacet
  facet normal 0 -1 0
    outer loop
      vertex -0.9 -5.44115 10
      vertex -0.9 -5.44115 -9.10383e-16
      vertex 0.9 -5.44115 10
    endloop
  endfacet
  facet normal 0.866025 -0.5 0
    outer loop
      vertex -1.8 -7 -7.10543e-16
      vertex -0.9 -5.44115 -9.10383e-16
      vertex -0.9 -5.44115 10
    endloop
  endfacet
  facet normal 0.866025 -0.5 0
    outer loop
      vertex -1.8 -7 10
      vertex -1.8 -7 -7.10543e-16
      vertex -0.9 -5.44115 10
    endloop
  endfacet
  facet normal 0.866025 0.5 0
    outer loop
      vertex -0.9 -8.55885 -9.10383e-16
      vertex -1.8 -7 -7.10543e-16
      vertex -1.8 -7 10
    endloop
  endfacet
  facet normal 0.866025 0.5 -0
    outer loop
      vertex -0.9 -8.55885 10
      vertex -0.9 -8.55885 -9.10383e-16
      vertex -1.8 -7 10
    endloop
  endfacet
  facet normal -2.22045e-16 -7.03041e-32 -1
    outer loop
      vertex 1.8 -7 -1.5099e-15
      vertex -5 12.5 0
      vertex 5 -12.5 -2.22045e-15
    endloop
  endfacet
  facet normal -2.22045e-16 -6.53209e-32 -1
    outer loop
      vertex 0.9 8.55885 -1.31006e-15
      vertex -5 12.5 0
      vertex 5 12.5 -2.22045e-15
    endloop
  endfacet
  facet normal -2.22045e-16 0 -1
    outer loop
      vertex 0.9 8.55885 -1.31006e-15
      vertex 5 12.5 -2.22045e-15
      vertex 1.8 7 -1.5099e-15
    endloop
  endfacet
  facet normal -2.22045e-16 6.255e-32 -1
    outer loop
      vertex -5 -12.5 0
      vertex -0.9 -8.55885 -9.10383e-16
      vertex 5 -12.5 -2.22045e-15
    endloop
  endfacet
  facet normal -2.22045e-16 1.29972e-32 -1
    outer loop
      vertex -1.8 -7 -7.10543e-16
      vertex -5 12.5 0
      vertex -0.9 -5.44115 -9.10383e-16
    endloop
  endfacet
  facet normal -2.22045e-16 6.04823e-32 -1
    outer loop
      vertex -0.9 -8.55885 -9.10383e-16
      vertex 0.9 -8.55885 -1.31006e-15
      vertex 5 -12.5 -2.22045e-15
    endloop
  endfacet
  facet normal -2.22045e-16 -7.13602e-32 -1
    outer loop
      vertex 0.9 -5.44115 -1.31006e-15
      vertex -5 12.5 0
      vertex 1.8 -7 -1.5099e-15
    endloop
  endfacet
  facet normal -2.22045e-16 0 -1
    outer loop
      vertex 0.9 -8.55885 -1.31006e-15
      vertex 1.8 -7 -1.5099e-15
      vertex 5 -12.5 -2.22045e-15
    endloop
  endfacet
  facet normal -2.22045e-16 -0 -1
    outer loop
      vertex -5 -12.5 0
      vertex -5 12.5 0
      vertex -1.8 -7 -7.10543e-16
    endloop
  endfacet
  facet normal -2.22045e-16 -3.75175e-32 -1
    outer loop
      vertex -5 -12.5 0
      vertex -1.8 -7 -7.10543e-16
      vertex -0.9 -8.55885 -9.10383e-16
    endloop
  endfacet
  facet normal -2.22045e-16 6.03521e-32 -1
    outer loop
      vertex 5 -12.5 -2.22045e-15
      vertex -5 12.5 0
      vertex -0.9 5.44115 -9.10383e-16
    endloop
  endfacet
  facet normal -2.22045e-16 6.14283e-32 -1
    outer loop
      vertex 5 -12.5 -2.22045e-15
      vertex -0.9 5.44115 -9.10383e-16
      vertex 0.9 5.44115 -1.31006e-15
    endloop
  endfacet
  facet normal -2.22045e-16 -0 -1
    outer loop
      vertex 5 -12.5 -2.22045e-15
      vertex 0.9 5.44115 -1.31006e-15
      vertex 5 12.5 -2.22045e-15
    endloop
  endfacet
  facet normal -2.22045e-16 -4.00818e-30 -1
    outer loop
      vertex 0.9 5.44115 -1.31006e-15
      vertex 1.8 7 -1.5099e-15
      vertex 5 12.5 -2.22045e-15
    endloop
  endfacet
  facet normal -2.22045e-16 -5.84147e-32 -1
    outer loop
      vertex -0.9 8.55885 -9.10383e-16
      vertex -5 12.5 0
      vertex 0.9 8.55885 -1.31006e-15
    endloop
  endfacet
  facet normal -2.22045e-16 1.87587e-32 -1
    outer loop
      vertex -1.8 7 -7.10543e-16
      vertex -5 12.5 0
      vertex -0.9 8.55885 -9.10383e-16
    endloop
  endfacet
  facet normal -2.22045e-16 -1.20245e-29 -1
    outer loop
      vertex -0.9 5.44115 -9.10383e-16
      vertex -5 12.5 0
      vertex -1.8 7 -7.10543e-16
    endloop
  endfacet
  facet normal -2.22045e-16 -1.53571e-32 -1
    outer loop
      vertex -0.9 -5.44115 -9.10383e-16
      vertex -5 12.5 0
      vertex 0.9 -5.44115 -1.31006e-15
    endloop
  endfacet
  facet normal 0 1 -0
    outer loop
      vertex -5 12.5 10
      vertex 5 12.5 10
      vertex -5 12.5 0
    endloop
  endfacet
  facet normal 0 1 0
    outer loop
      vertex -5 12.5 0
      vertex 5 12.5 10
      vertex 5 12.5 -2.22045e-15
    endloop
  endfacet
  facet normal 3.55271e-16 -2.23433e-16 1
    outer loop
      vertex 0.9 5.44115 10
      vertex -5 4.0101 10
      vertex 5 4.0101 10
    endloop
  endfacet
  facet normal 0 1.24129e-15 1
    outer loop
      vertex -0.9 5.44115 10
      vertex -5 4.0101 10
      vertex 0.9 5.44115 10
    endloop
  endfacet
  facet normal 4.33258e-16 -0 1
    outer loop
      vertex -5 12.5 10
      vertex -5 4.0101 10
      vertex -0.9 5.44115 10
    endloop
  endfacet
  facet normal 0 -4.5072e-16 1
    outer loop
      vertex -0.9 8.55885 10
      vertex 0.9 8.55885 10
      vertex -5 12.5 10
    endloop
  endfacet
  facet normal 7.22858e-14 4.17342e-14 1
    outer loop
      vertex -5 12.5 10
      vertex -0.9 5.44115 10
      vertex -1.8 7 10
    endloop
  endfacet
  facet normal 2.78626e-16 -1.60865e-16 1
    outer loop
      vertex -1.8 7 10
      vertex -0.9 8.55885 10
      vertex -5 12.5 10
    endloop
  endfacet
  facet normal 4.33258e-16 -0 1
    outer loop
      vertex 5 12.5 10
      vertex 0.9 8.55885 10
      vertex 5 4.0101 10
    endloop
  endfacet
  facet normal 3.55271e-16 8.11296e-17 1
    outer loop
      vertex 5 12.5 10
      vertex -5 12.5 10
      vertex 0.9 8.55885 10
    endloop
  endfacet
  facet normal 1.20531e-15 6.95884e-16 1
    outer loop
      vertex 0.9 8.55885 10
      vertex 1.8 7 10
      vertex 5 4.0101 10
    endloop
  endfacet
  facet normal 3.60592e-16 -2.08188e-16 1
    outer loop
      vertex 1.8 7 10
      vertex 0.9 5.44115 10
      vertex 5 4.0101 10
    endloop
  endfacet
  facet normal -2.14115e-17 -0.992709 -0.120536
    outer loop
      vertex -5 4.07011 9.5058
      vertex 5 4.07011 9.5058
      vertex 5 4.0101 10
    endloop
  endfacet
  facet normal -4.28231e-17 -0.992709 -0.120536
    outer loop
      vertex -5 4.0101 10
      vertex -5 4.07011 9.5058
      vertex 5 4.0101 10
    endloop
  endfacet
  facet normal 9.44857e-17 -0.935016 0.354605
    outer loop
      vertex -5 3.37423 7.67094
      vertex 5 3.37423 7.67093
      vertex 5 4.07011 9.5058
    endloop
  endfacet
  facet normal 6.29904e-17 -0.935016 0.354605
    outer loop
      vertex -5 4.07011 9.5058
      vertex -5 3.37423 7.67094
      vertex 5 4.07011 9.5058
    endloop
  endfacet
  facet normal 1.32962e-16 -0.663123 0.748511
    outer loop
      vertex -5 1.90536 6.36963
      vertex 5 1.90536 6.36963
      vertex 5 3.37423 7.67093
    endloop
  endfacet
  facet normal 1.99443e-16 -0.663123 0.748511
    outer loop
      vertex -5 3.37423 7.67094
      vertex -5 1.90536 6.36963
      vertex 5 3.37423 7.67093
    endloop
  endfacet
  facet normal 2.58711e-16 -0.239316 0.970942
    outer loop
      vertex -5 0 5.9
      vertex 5 0 5.9
      vertex 5 1.90536 6.36963
    endloop
  endfacet
  facet normal 1.72474e-16 -0.239316 0.970942
    outer loop
      vertex -5 1.90536 6.36963
      vertex -5 0 5.9
      vertex 5 1.90536 6.36963
    endloop
  endfacet
  facet normal 2.65196e-16 0.239316 0.970942
    outer loop
      vertex 5 -1.90536 6.36963
      vertex 5 0 5.9
      vertex -5 0 5.9
    endloop
  endfacet
  facet normal 1.72474e-16 0.239316 0.970942
    outer loop
      vertex -5 -1.90536 6.36963
      vertex 5 -1.90536 6.36963
      vertex -5 0 5.9
    endloop
  endfacet
  facet normal 1.23758e-16 0.663123 0.748511
    outer loop
      vertex 5 -3.37423 7.67093
      vertex 5 -1.90536 6.36963
      vertex -5 -1.90536 6.36963
    endloop
  endfacet
  facet normal 1.99443e-16 0.663123 0.748511
    outer loop
      vertex -5 -3.37423 7.67094
      vertex 5 -3.37423 7.67093
      vertex -5 -1.90536 6.36963
    endloop
  endfacet
  facet normal 9.44857e-17 0.935016 0.354605
    outer loop
      vertex 5 -3.37423 7.67093
      vertex -5 -3.37423 7.67094
      vertex 5 -4.07011 9.5058
    endloop
  endfacet
  facet normal 6.29904e-17 0.935016 0.354605
    outer loop
      vertex 5 -4.07011 9.5058
      vertex -5 -3.37423 7.67094
      vertex -5 -4.07011 9.5058
    endloop
  endfacet
  facet normal 0 1 0
    outer loop
      vertex 0.9 5.44115 -1.31006e-15
      vertex -0.9 5.44115 -9.10383e-16
      vertex 0.9 5.44115 10
    endloop
  endfacet
  facet normal 0 1 0
    outer loop
      vertex 0.9 5.44115 10
      vertex -0.9 5.44115 -9.10383e-16
      vertex -0.9 5.44115 10
    endloop
  endfacet
  facet normal 0.866025 0.5 0
    outer loop
      vertex -0.9 5.44115 -9.10383e-16
      vertex -1.8 7 -7.10543e-16
      vertex -1.8 7 10
    endloop
  endfacet
  facet normal 0.866025 0.5 -0
    outer loop
      vertex -0.9 5.44115 10
      vertex -0.9 5.44115 -9.10383e-16
      vertex -1.8 7 10
    endloop
  endfacet
  facet normal 0.866025 -0.5 0
    outer loop
      vertex -1.8 7 -7.10543e-16
      vertex -0.9 8.55885 -9.10383e-16
      vertex -0.9 8.55885 10
    endloop
  endfacet
  facet normal 0.866025 -0.5 0
    outer loop
      vertex -1.8 7 10
      vertex -1.8 7 -7.10543e-16
      vertex -0.9 8.55885 10
    endloop
  endfacet
  facet normal -0 -1 0
    outer loop
      vertex -0.9 8.55885 -9.10383e-16
      vertex 0.9 8.55885 -1.31006e-15
      vertex 0.9 8.55885 10
    endloop
  endfacet
  facet normal 0 -1 0
    outer loop
      vertex -0.9 8.55885 10
      vertex -0.9 8.55885 -9.10383e-16
      vertex 0.9 8.55885 10
    endloop
  endfacet
  facet normal -0.866025 -0.5 -0
    outer loop
      vertex 0.9 8.55885 -1.31006e-15
      vertex 1.8 7 -1.5099e-15
      vertex 0.9 8.55885 10
    endloop
  endfacet
  facet normal -0.866025 -0.5 0
    outer loop
      vertex 0.9 8.55885 10
      vertex 1.8 7 -1.5099e-15
      vertex 1.8 7 10
    endloop
  endfacet
  facet normal -0.866025 0.5 0
    outer loop
      vertex 1.8 7 -1.5099e-15
      vertex 0.9 5.44115 -1.31006e-15
      vertex 1.8 7 10
    endloop
  endfacet
  facet normal -0.866025 0.5 0
    outer loop
      vertex 1.8 7 10
      vertex 0.9 5.44115 -1.31006e-15
      vertex 0.9 5.44115 10
    endloop
  endfacet
endsolid OpenSCAD_Model
