solid OpenSCAD_Model
  facet normal -1 -0 -0
    outer loop
      vertex -16.5 -5 -0.025
      vertex -16.5 -5 3
      vertex -16.5 5 -0.025
    endloop
  endfacet
  facet normal -1 0 0
    outer loop
      vertex -16.5 5 -0.025
      vertex -16.5 -5 3
      vertex -16.5 5 3
    endloop
  endfacet
  facet normal 0 -1 0
    outer loop
      vertex -16.5 -5 3
      vertex -16.5 -5 -0.025
      vertex -7 -5 -0.025
    endloop
  endfacet
  facet normal 0 -1 0
    outer loop
      vertex -7.5 -5 2.95
      vertex -16.5 -5 3
      vertex -7 -5 -0.025
    endloop
  endfacet
  facet normal 0 -1 0
    outer loop
      vertex -7 -5 2.95
      vertex -7.5 -5 2.95
      vertex -7 -5 -0.025
    endloop
  endfacet
  facet normal 0 -1 0
    outer loop
      vertex -7.5 -5 2.95
      vertex -7.5 -5 3
      vertex -16.5 -5 3
    endloop
  endfacet
  facet normal 0 -0 -1
    outer loop
      vertex -2 5 -0.025
      vertex -2 6.95393 -0.025
      vertex 2 6.95393 -0.025
    endloop
  endfacet
  facet normal -0 0 -1
    outer loop
      vertex -2 5 -0.025
      vertex 2 6.95393 -0.025
      vertex 2 5 -0.025
    endloop
  endfacet
  facet normal 0 0 -1
    outer loop
      vertex -2 5 -0.025
      vertex 16.5 -5 -0.025
      vertex -16.5 5 -0.025
    endloop
  endfacet
  facet normal -0 0 -1
    outer loop
      vertex 13.8 -0.866834 -0.025
      vertex 16.5 5 -0.025
      vertex 16.5 -5 -0.025
    endloop
  endfacet
  facet normal 0 0 -1
    outer loop
      vertex 10.7544 -1.56198 -0.025
      vertex 16.5 -5 -0.025
      vertex -2 5 -0.025
    endloop
  endfacet
  facet normal 0 0 -1
    outer loop
      vertex 16.5 -5 -0.025
      vertex 7 -5 -0.025
      vertex -16.5 5 -0.025
    endloop
  endfacet
  facet normal 0 0 -1
    outer loop
      vertex 7 -5 -0.025
      vertex 2 -5 -0.025
      vertex -16.5 5 -0.025
    endloop
  endfacet
  facet normal 0 -0 -1
    outer loop
      vertex -13.2456 1.56198 -0.025
      vertex -16.5 5 -0.025
      vertex -11.5554 1.94776 -0.025
    endloop
  endfacet
  facet normal -0 0 -1
    outer loop
      vertex -16.5 -5 -0.025
      vertex -11.5554 -1.94776 -0.025
      vertex -7 -5 -0.025
    endloop
  endfacet
  facet normal 0 0 -1
    outer loop
      vertex 2 -6.95393 -0.025
      vertex -2 -6.95393 -0.025
      vertex -2 -5 -0.025
    endloop
  endfacet
  facet normal 0 0 -1
    outer loop
      vertex -11.5554 1.94776 -0.025
      vertex 2 -6.95393 -0.025
      vertex -10.2 0.866834 -0.025
    endloop
  endfacet
  facet normal 0 0 -1
    outer loop
      vertex -16.5 -5 -0.025
      vertex -13.2456 -1.56198 -0.025
      vertex -11.5554 -1.94776 -0.025
    endloop
  endfacet
  facet normal 0 0 -1
    outer loop
      vertex -10.2 0.866834 -0.025
      vertex -2 -5 -0.025
      vertex -10.2 -0.866834 -0.025
    endloop
  endfacet
  facet normal 0 0 -1
    outer loop
      vertex -13.2456 -1.56198 -0.025
      vertex -16.5 -5 -0.025
      vertex -16.5 5 -0.025
    endloop
  endfacet
  facet normal 0 0 -1
    outer loop
      vertex -10.2 -0.866834 -0.025
      vertex -7 -5 -0.025
      vertex -11.5554 -1.94776 -0.025
    endloop
  endfacet
  facet normal 0 0 -1
    outer loop
      vertex -13.9978 2.44666e-16 -0.025
      vertex -13.2456 -1.56198 -0.025
      vertex -16.5 5 -0.025
    endloop
  endfacet
  facet normal 0 -0 -1
    outer loop
      vertex -13.9978 2.44666e-16 -0.025
      vertex -16.5 5 -0.025
      vertex -13.2456 1.56198 -0.025
    endloop
  endfacet
  facet normal 0 0 -1
    outer loop
      vertex 12.4446 -1.94776 -0.025
      vertex 16.5 -5 -0.025
      vertex 10.7544 -1.56198 -0.025
    endloop
  endfacet
  facet normal 0 0 -1
    outer loop
      vertex 2 -6.95393 -0.025
      vertex -2 -5 -0.025
      vertex -10.2 0.866834 -0.025
    endloop
  endfacet
  facet normal 0 0 -1
    outer loop
      vertex 2 -5 -0.025
      vertex 2 -6.95393 -0.025
      vertex -11.5554 1.94776 -0.025
    endloop
  endfacet
  facet normal 0 0 -1
    outer loop
      vertex 2 -5 -0.025
      vertex -11.5554 1.94776 -0.025
      vertex -16.5 5 -0.025
    endloop
  endfacet
  facet normal 0 0 -1
    outer loop
      vertex 10.7544 -1.56198 -0.025
      vertex 2 5 -0.025
      vertex 10.0022 2.44666e-16 -0.025
    endloop
  endfacet
  facet normal -0 0 -1
    outer loop
      vertex 13.8 0.866834 -0.025
      vertex 16.5 5 -0.025
      vertex 13.8 -0.866834 -0.025
    endloop
  endfacet
  facet normal 0 0 -1
    outer loop
      vertex 2 5 -0.025
      vertex 10.7544 -1.56198 -0.025
      vertex -2 5 -0.025
    endloop
  endfacet
  facet normal 0 -0 -1
    outer loop
      vertex 10.7544 1.56198 -0.025
      vertex 2 5 -0.025
      vertex 12.4446 1.94776 -0.025
    endloop
  endfacet
  facet normal -0 0 -1
    outer loop
      vertex 12.4446 -1.94776 -0.025
      vertex 13.8 -0.866834 -0.025
      vertex 16.5 -5 -0.025
    endloop
  endfacet
  facet normal -0 0 -1
    outer loop
      vertex 12.4446 1.94776 -0.025
      vertex 16.5 5 -0.025
      vertex 13.8 0.866834 -0.025
    endloop
  endfacet
  facet normal 0 0 -1
    outer loop
      vertex 2 5 -0.025
      vertex 16.5 5 -0.025
      vertex 12.4446 1.94776 -0.025
    endloop
  endfacet
  facet normal 0 0 -1
    outer loop
      vertex 2 5 -0.025
      vertex 10.7544 1.56198 -0.025
      vertex 10.0022 2.44666e-16 -0.025
    endloop
  endfacet
  facet normal -0 -0 -1
    outer loop
      vertex -7 -5 -0.025
      vertex -10.2 -0.866834 -0.025
      vertex -2 -5 -0.025
    endloop
  endfacet
  facet normal 0 1 0
    outer loop
      vertex -16.5 5 -0.025
      vertex -16.5 5 3
      vertex -2 5 -0.025
    endloop
  endfacet
  facet normal 0 1 0
    outer loop
      vertex 2 5 2.95
      vertex -16.5 5 3
      vertex 16.5 5 3
    endloop
  endfacet
  facet normal 0 1 0
    outer loop
      vertex 2 5 -0.025
      vertex 16.5 5 3
      vertex 16.5 5 -0.025
    endloop
  endfacet
  facet normal 0 1 0
    outer loop
      vertex -2 5 2.95
      vertex -16.5 5 3
      vertex 2 5 2.95
    endloop
  endfacet
  facet normal 0 1 0
    outer loop
      vertex -2 5 -0.025
      vertex -16.5 5 3
      vertex -2 5 2.95
    endloop
  endfacet
  facet normal 0 1 -0
    outer loop
      vertex 2 5 2.95
      vertex 16.5 5 3
      vertex 2 5 -0.025
    endloop
  endfacet
  facet normal 0 -0 1
    outer loop
      vertex -13.2456 -1.56198 3
      vertex -16.5 -5 3
      vertex -7.5 -5 3
    endloop
  endfacet
  facet normal -0 0 3.50366e-17
    outer loop
      vertex -4.8 5 3
      vertex -16.5 5 3
      vertex -7.5 5 3
    endloop
  endfacet
  facet normal -0 0 9.09495e-18
    outer loop
      vertex -4 5 3
      vertex -16.5 5 3
      vertex -4.8 5 3
    endloop
  endfacet
  facet normal -0 0 1
    outer loop
      vertex -4 -5 3
      vertex -4.8 5 3
      vertex -4.8 -5 3
    endloop
  endfacet
  facet normal 0 0 1
    outer loop
      vertex -4 5 3
      vertex -4.8 5 3
      vertex -4 -5 3
    endloop
  endfacet
  facet normal -0 0 3.38152e-17
    outer loop
      vertex 4 5 3
      vertex -16.5 5 3
      vertex -4 5 3
    endloop
  endfacet
  facet normal -0 0 3.13228e-18
    outer loop
      vertex 4.8 5 3
      vertex -16.5 5 3
      vertex 4 5 3
    endloop
  endfacet
  facet normal -0 0 1
    outer loop
      vertex 4.8 -5 3
      vertex 4 5 3
      vertex 4 -5 3
    endloop
  endfacet
  facet normal 0 0 1
    outer loop
      vertex 4.8 5 3
      vertex 4 5 3
      vertex 4.8 -5 3
    endloop
  endfacet
  facet normal -0 0 8.32667e-18
    outer loop
      vertex 7.5 5 3
      vertex -16.5 5 3
      vertex 4.8 5 3
    endloop
  endfacet
  facet normal 0 0 5.3829e-17
    outer loop
      vertex 16.5 5 3
      vertex -16.5 5 3
      vertex 7.5 5 3
    endloop
  endfacet
  facet normal -0 0 1
    outer loop
      vertex 10.7544 -1.56198 3
      vertex 7.5 5 3
      vertex 7.5 -5 3
    endloop
  endfacet
  facet normal -0 -0 1
    outer loop
      vertex -11.5554 -1.94776 3
      vertex -13.2456 -1.56198 3
      vertex -7.5 -5 3
    endloop
  endfacet
  facet normal 0 -0 1
    outer loop
      vertex -16.5 5 3
      vertex -16.5 -5 3
      vertex -13.2456 -1.56198 3
    endloop
  endfacet
  facet normal 0 -0 1
    outer loop
      vertex -10.2 0.866834 3
      vertex -10.2 -0.866834 3
      vertex -7.5 -5 3
    endloop
  endfacet
  facet normal 0 0 1
    outer loop
      vertex -16.5 5 3
      vertex -13.2456 -1.56198 3
      vertex -13.9978 2.44666e-16 3
    endloop
  endfacet
  facet normal 0 -0 1
    outer loop
      vertex 13.8 -0.866834 3
      vertex 12.4446 -1.94776 3
      vertex 16.5 -5 3
    endloop
  endfacet
  facet normal -0 0 1
    outer loop
      vertex -7.5 5 3
      vertex -16.5 5 3
      vertex -13.2456 1.56198 3
    endloop
  endfacet
  facet normal 0 0 1
    outer loop
      vertex -7.5 5 3
      vertex -13.2456 1.56198 3
      vertex -11.5554 1.94776 3
    endloop
  endfacet
  facet normal 0 0 1
    outer loop
      vertex -7.5 5 3
      vertex -10.2 0.866834 3
      vertex -7.5 -5 3
    endloop
  endfacet
  facet normal 0 0 1
    outer loop
      vertex -7.5 5 3
      vertex -11.5554 1.94776 3
      vertex -10.2 0.866834 3
    endloop
  endfacet
  facet normal -0 0 1
    outer loop
      vertex 16.5 -5 3
      vertex 10.7544 -1.56198 3
      vertex 7.5 -5 3
    endloop
  endfacet
  facet normal -0 -0 1
    outer loop
      vertex 10.0022 2.44666e-16 3
      vertex 7.5 5 3
      vertex 10.7544 -1.56198 3
    endloop
  endfacet
  facet normal 0 -0 1
    outer loop
      vertex 13.8 0.866834 3
      vertex 13.8 -0.866834 3
      vertex 16.5 -5 3
    endloop
  endfacet
  facet normal 0 0 1
    outer loop
      vertex 16.5 5 3
      vertex 7.5 5 3
      vertex 10.7544 1.56198 3
    endloop
  endfacet
  facet normal 0 0 1
    outer loop
      vertex 16.5 5 3
      vertex 10.7544 1.56198 3
      vertex 12.4446 1.94776 3
    endloop
  endfacet
  facet normal 0 0 1
    outer loop
      vertex 16.5 5 3
      vertex 13.8 0.866834 3
      vertex 16.5 -5 3
    endloop
  endfacet
  facet normal 0 0 1
    outer loop
      vertex 16.5 5 3
      vertex 12.4446 1.94776 3
      vertex 13.8 0.866834 3
    endloop
  endfacet
  facet normal 0 0 1
    outer loop
      vertex 16.5 -5 3
      vertex 12.4446 -1.94776 3
      vertex 10.7544 -1.56198 3
    endloop
  endfacet
  facet normal 0 0 1
    outer loop
      vertex 10.0022 2.44666e-16 3
      vertex 10.7544 1.56198 3
      vertex 7.5 5 3
    endloop
  endfacet
  facet normal 0 0 1
    outer loop
      vertex -13.9978 2.44666e-16 3
      vertex -13.2456 1.56198 3
      vertex -16.5 5 3
    endloop
  endfacet
  facet normal 0 -0 1
    outer loop
      vertex -10.2 -0.866834 3
      vertex -11.5554 -1.94776 3
      vertex -7.5 -5 3
    endloop
  endfacet
  facet normal -1 0 -0
    outer loop
      vertex -7.5 -5 3
      vertex -7.5 -5 10.95
      vertex -7.5 5 10.95
    endloop
  endfacet
  facet normal -2.20657e-16 0 0
    outer loop
      vertex -7.5 -5 2.95
      vertex -7.5 -5 10.95
      vertex -7.5 -5 3
    endloop
  endfacet
  facet normal -1 -0 0
    outer loop
      vertex -7.5 -5 3
      vertex -7.5 5 10.95
      vertex -7.5 5 3
    endloop
  endfacet
  facet normal 0 -1 2.22045e-16
    outer loop
      vertex -7.5 -5 10.95
      vertex -7.5 -5 2.95
      vertex -7 -5 2.95
    endloop
  endfacet
  facet normal 0 -1 2.22045e-16
    outer loop
      vertex -4.8 -5 2.95
      vertex -7.5 -5 10.95
      vertex -7 -5 2.95
    endloop
  endfacet
  facet normal -0 -1 -0
    outer loop
      vertex -7 -5 -0.025
      vertex -2 -5 -0.025
      vertex -7 -5 2.95
    endloop
  endfacet
  facet normal -1.64228e-15 -1 -1.63839e-15
    outer loop
      vertex -1.91342 -5 6.3306
      vertex -3.53553 -5 7.41447
      vertex 2 -5 2.95
    endloop
  endfacet
  facet normal -0 -1 -0
    outer loop
      vertex 2 -5 -0.025
      vertex 7 -5 -0.025
      vertex 2 -5 2.95
    endloop
  endfacet
  facet normal 5.54385e-16 -1 -3.70428e-16
    outer loop
      vertex -4.6194 -5 12.8634
      vertex -3.53553 -5 14.4855
      vertex -7.5 -5 10.95
    endloop
  endfacet
  facet normal 0 -1 2.22045e-16
    outer loop
      vertex 7.5 -5 2.95
      vertex 7.5 -5 10.95
      vertex 5 -5 10.95
    endloop
  endfacet
  facet normal -0 -1 0
    outer loop
      vertex 3.53553 -5 14.4855
      vertex 4.6194 -5 12.8634
      vertex 6.49519 -5 14.7
    endloop
  endfacet
  facet normal 0 -1 0
    outer loop
      vertex 5.3033 -5 16.2533
      vertex 4.5031 -5 16.8673
      vertex 3.5 -5 15.8642
    endloop
  endfacet
  facet normal -3.4714e-17 -1 5.45164e-16
    outer loop
      vertex 6.49519 -5 14.7
      vertex 5.3033 -5 16.2533
      vertex 3.5 -5 14.5093
    endloop
  endfacet
  facet normal 0 -1 0
    outer loop
      vertex 6.49519 -5 14.7
      vertex 3.5 -5 14.5093
      vertex 3.53553 -5 14.4855
    endloop
  endfacet
  facet normal 0 -1 0
    outer loop
      vertex 7.24444 -5 12.8911
      vertex 6.49519 -5 14.7
      vertex 4.6194 -5 12.8634
    endloop
  endfacet
  facet normal 0 -1 4.57554e-16
    outer loop
      vertex 7.5 -5 10.95
      vertex 7.24444 -5 12.8911
      vertex 5 -5 10.95
    endloop
  endfacet
  facet normal -4.34179e-16 -1 8.63636e-17
    outer loop
      vertex 7.5 -5 2.95
      vertex 5 -5 10.95
      vertex 4.8 -5 9.94453
    endloop
  endfacet
  facet normal 3.85521e-17 -1 1.93815e-16
    outer loop
      vertex 0 -5 5.95
      vertex -1.91342 -5 6.3306
      vertex 7 -5 -0.025
    endloop
  endfacet
  facet normal 0 -1 0
    outer loop
      vertex 7 -5 -0.025
      vertex 7 -5 2.95
      vertex 4.8 -5 2.95
    endloop
  endfacet
  facet normal -8.88178e-16 -1 0
    outer loop
      vertex -4 -5 8.10959
      vertex -2 -5 -0.025
      vertex -2 -5 2.95
    endloop
  endfacet
  facet normal 0 -1 0
    outer loop
      vertex 7 -5 -0.025
      vertex 4.8 -5 2.95
      vertex 4 -5 2.95
    endloop
  endfacet
  facet normal 0 -1 4.64184e-16
    outer loop
      vertex -5 -5 10.95
      vertex -4.6194 -5 12.8634
      vertex -7.5 -5 10.95
    endloop
  endfacet
  facet normal -5.15255e-16 -1 3.44283e-16
    outer loop
      vertex 4 -5 2.95
      vertex 4 -5 8.10959
      vertex 3.53553 -5 7.41447
    endloop
  endfacet
  facet normal -4.65453e-17 -1 2.33999e-16
    outer loop
      vertex 4 -5 2.95
      vertex 1.91342 -5 6.3306
      vertex 0 -5 5.95
    endloop
  endfacet
  facet normal 2.63374e-16 -1 4.25288e-16
    outer loop
      vertex 4 -5 2.95
      vertex 3.53553 -5 7.41447
      vertex 1.91342 -5 6.3306
    endloop
  endfacet
  facet normal 5.1212e-16 -1 3.44283e-16
    outer loop
      vertex -4 -5 8.10959
      vertex -4 -5 2.95
      vertex -2 -5 -0.025
    endloop
  endfacet
  facet normal 9.4575e-17 -1 2.53964e-16
    outer loop
      vertex -4.8 -5 2.95
      vertex -4.8 -5 9.94453
      vertex -7.5 -5 10.95
    endloop
  endfacet
  facet normal 5.02287e-16 -1 8.44181e-16
    outer loop
      vertex 2 -5 2.95
      vertex 7 -5 -0.025
      vertex -1.91342 -5 6.3306
    endloop
  endfacet
  facet normal 0 -1 3.97888e-16
    outer loop
      vertex -2 -5 2.95
      vertex 2 -5 2.95
      vertex -3.53553 -5 7.41447
    endloop
  endfacet
  facet normal 0 -1 0
    outer loop
      vertex -4.8 -5 9.94453
      vertex -5 -5 10.95
      vertex -7.5 -5 10.95
    endloop
  endfacet
  facet normal 1.22717e-15 -1 8.19967e-16
    outer loop
      vertex -4 -5 8.10959
      vertex -2 -5 2.95
      vertex -3.53553 -5 7.41447
    endloop
  endfacet
  facet normal 0 -1 0
    outer loop
      vertex -2 -5 -0.025
      vertex -4.8 -5 2.95
      vertex -7 -5 2.95
    endloop
  endfacet
  facet normal 0 -1 0
    outer loop
      vertex -2 -5 -0.025
      vertex -4 -5 2.95
      vertex -4.8 -5 2.95
    endloop
  endfacet
  facet normal -9.11149e-16 -1 -9.18805e-16
    outer loop
      vertex 0 -5 5.95
      vertex 7 -5 -0.025
      vertex 4 -5 2.95
    endloop
  endfacet
  facet normal -3.58734e-16 -1 6.5347e-16
    outer loop
      vertex -3.53553 -5 14.4855
      vertex -3.5 -5 15.8642
      vertex -7.5 -5 10.95
    endloop
  endfacet
  facet normal -4.38e-16 -1 6.55513e-16
    outer loop
      vertex -3.5 -5 14.5093
      vertex -3.5 -5 15.8642
      vertex -3.53553 -5 14.4855
    endloop
  endfacet
  facet normal 1.99272e-16 -1 1.99272e-16
    outer loop
      vertex -3.5 -5 15.8642
      vertex -4.5031 -5 16.8673
      vertex -7.5 -5 10.95
    endloop
  endfacet
  facet normal -3.7677e-16 -1 4.91016e-16
    outer loop
      vertex -4.5031 -5 16.8673
      vertex -5.3033 -5 16.2533
      vertex -7.5 -5 10.95
    endloop
  endfacet
  facet normal 6.7074e-16 -1 5.71233e-17
    outer loop
      vertex -5.3033 -5 16.2533
      vertex -6.49519 -5 14.7
      vertex -7.5 -5 10.95
    endloop
  endfacet
  facet normal -1.61931e-15 -1 6.7074e-16
    outer loop
      vertex -6.49519 -5 14.7
      vertex -7.24444 -5 12.8911
      vertex -7.5 -5 10.95
    endloop
  endfacet
  facet normal -1.41436e-16 -1 6.55513e-16
    outer loop
      vertex 3.5 -5 15.8642
      vertex 3.5 -5 14.5093
      vertex 5.3033 -5 16.2533
    endloop
  endfacet
  facet normal -4.89248e-18 -1 4.63211e-16
    outer loop
      vertex 4.6194 -5 12.8634
      vertex 5 -5 10.95
      vertex 7.24444 -5 12.8911
    endloop
  endfacet
  facet normal 0 -1 2.53964e-16
    outer loop
      vertex 4.8 -5 9.94453
      vertex 7 -5 2.95
      vertex 7.5 -5 2.95
    endloop
  endfacet
  facet normal 0 -1 2.53964e-16
    outer loop
      vertex 4.8 -5 9.94453
      vertex 4.8 -5 2.95
      vertex 7 -5 2.95
    endloop
  endfacet
  facet normal -1 -0 0
    outer loop
      vertex -2 -8 1.02107
      vertex -2 -8 6.45
      vertex -2 -6.95393 -0.025
    endloop
  endfacet
  facet normal -1 0 -0
    outer loop
      vertex -2 -6.95393 -0.025
      vertex -2 -8 6.45
      vertex -2 -6 6.45
    endloop
  endfacet
  facet normal -1 0 0
    outer loop
      vertex -2 -6.95393 -0.025
      vertex -2 -6 6.45
      vertex -2 -6 2.95
    endloop
  endfacet
  facet normal -1 0 0
    outer loop
      vertex -2 -6.95393 -0.025
      vertex -2 -6 2.95
      vertex -2 -5 2.95
    endloop
  endfacet
  facet normal -1 -0 0
    outer loop
      vertex -2 -6.95393 -0.025
      vertex -2 -5 2.95
      vertex -2 -5 -0.025
    endloop
  endfacet
  facet normal 0 -0.707107 -0.707107
    outer loop
      vertex 2 -6.95393 -0.025
      vertex 2 -8 1.02107
      vertex -2 -6.95393 -0.025
    endloop
  endfacet
  facet normal 0 -0.707107 -0.707107
    outer loop
      vertex -2 -6.95393 -0.025
      vertex 2 -8 1.02107
      vertex -2 -8 1.02107
    endloop
  endfacet
  facet normal 1 0 -0
    outer loop
      vertex 2 -8 6.45
      vertex 2 -8 1.02107
      vertex 2 -6.95393 -0.025
    endloop
  endfacet
  facet normal 1 -0 -0
    outer loop
      vertex 2 -6 2.95
      vertex 2 -8 6.45
      vertex 2 -5 -0.025
    endloop
  endfacet
  facet normal 1 -0 0
    outer loop
      vertex 2 -5 -0.025
      vertex 2 -8 6.45
      vertex 2 -6.95393 -0.025
    endloop
  endfacet
  facet normal 1 0 0
    outer loop
      vertex 2 -5 2.95
      vertex 2 -6 2.95
      vertex 2 -5 -0.025
    endloop
  endfacet
  facet normal 1 0 0
    outer loop
      vertex 2 -6 2.95
      vertex 2 -6 6.45
      vertex 2 -8 6.45
    endloop
  endfacet
  facet normal 0 -1 0
    outer loop
      vertex 7 -5 2.95
      vertex 7 -5 -0.025
      vertex 16.5 -5 -0.025
    endloop
  endfacet
  facet normal 0 -1 0
    outer loop
      vertex 7.5 -5 2.95
      vertex 7 -5 2.95
      vertex 16.5 -5 -0.025
    endloop
  endfacet
  facet normal 0 -1 0
    outer loop
      vertex 16.5 -5 3
      vertex 7.5 -5 2.95
      vertex 16.5 -5 -0.025
    endloop
  endfacet
  facet normal 0 -1 0
    outer loop
      vertex 7.5 -5 3
      vertex 7.5 -5 2.95
      vertex 16.5 -5 3
    endloop
  endfacet
  facet normal 1 0 -0
    outer loop
      vertex 16.5 -5 3
      vertex 16.5 -5 -0.025
      vertex 16.5 5 -0.025
    endloop
  endfacet
  facet normal 1 0 0
    outer loop
      vertex 16.5 5 3
      vertex 16.5 -5 3
      vertex 16.5 5 -0.025
    endloop
  endfacet
  facet normal 1 0 -0
    outer loop
      vertex 2 5 2.95
      vertex 2 5 -0.025
      vertex 2 6.95393 -0.025
    endloop
  endfacet
  facet normal 1 0 -0
    outer loop
      vertex 2 6 2.95
      vertex 2 5 2.95
      vertex 2 8 1.02107
    endloop
  endfacet
  facet normal 1 -0 0
    outer loop
      vertex 2 8 1.02107
      vertex 2 5 2.95
      vertex 2 6.95393 -0.025
    endloop
  endfacet
  facet normal 1 0 0
    outer loop
      vertex 2 8 6.45
      vertex 2 6 2.95
      vertex 2 8 1.02107
    endloop
  endfacet
  facet normal 1 0 -0
    outer loop
      vertex 2 6 6.45
      vertex 2 6 2.95
      vertex 2 8 6.45
    endloop
  endfacet
  facet normal 0 0.707107 -0.707107
    outer loop
      vertex -2 6.95393 -0.025
      vertex -2 8 1.02107
      vertex 2 6.95393 -0.025
    endloop
  endfacet
  facet normal 0 0.707107 -0.707107
    outer loop
      vertex 2 6.95393 -0.025
      vertex -2 8 1.02107
      vertex 2 8 1.02107
    endloop
  endfacet
  facet normal -1 -0 -0
    outer loop
      vertex -2 5 -0.025
      vertex -2 5 2.95
      vertex -2 6.95393 -0.025
    endloop
  endfacet
  facet normal -1 0 0
    outer loop
      vertex -2 6.95393 -0.025
      vertex -2 5 2.95
      vertex -2 6 2.95
    endloop
  endfacet
  facet normal -1 0 0
    outer loop
      vertex -2 6.95393 -0.025
      vertex -2 6 2.95
      vertex -2 6 6.45
    endloop
  endfacet
  facet normal -1 0 -0
    outer loop
      vertex -2 6.95393 -0.025
      vertex -2 6 6.45
      vertex -2 8 6.45
    endloop
  endfacet
  facet normal -1 0 0
    outer loop
      vertex -2 6.95393 -0.025
      vertex -2 8 6.45
      vertex -2 8 1.02107
    endloop
  endfacet
  facet normal 0.900969 0.433884 0
    outer loop
      vertex -13.9978 2.44666e-16 3
      vertex -13.2456 -1.56198 3
      vertex -13.2456 -1.56198 -0.025
    endloop
  endfacet
  facet normal 0.900969 0.433884 0
    outer loop
      vertex -13.9978 2.44666e-16 -0.025
      vertex -13.9978 2.44666e-16 3
      vertex -13.2456 -1.56198 -0.025
    endloop
  endfacet
  facet normal 0.222521 0.974928 -0
    outer loop
      vertex -11.5554 -1.94776 3
      vertex -11.5554 -1.94776 -0.025
      vertex -13.2456 -1.56198 3
    endloop
  endfacet
  facet normal 0.222521 0.974928 -0
    outer loop
      vertex -13.2456 -1.56198 3
      vertex -11.5554 -1.94776 -0.025
      vertex -13.2456 -1.56198 -0.025
    endloop
  endfacet
  facet normal 0.900969 -0.433884 0
    outer loop
      vertex -13.2456 1.56198 -0.025
      vertex -13.2456 1.56198 3
      vertex -13.9978 2.44666e-16 3
    endloop
  endfacet
  facet normal 0.900969 -0.433884 0
    outer loop
      vertex -13.9978 2.44666e-16 -0.025
      vertex -13.2456 1.56198 -0.025
      vertex -13.9978 2.44666e-16 3
    endloop
  endfacet
  facet normal 0.222521 -0.974928 0
    outer loop
      vertex -11.5554 1.94776 -0.025
      vertex -11.5554 1.94776 3
      vertex -13.2456 1.56198 3
    endloop
  endfacet
  facet normal 0.222521 -0.974928 0
    outer loop
      vertex -13.2456 1.56198 -0.025
      vertex -11.5554 1.94776 -0.025
      vertex -13.2456 1.56198 3
    endloop
  endfacet
  facet normal -0.62349 -0.781831 -0
    outer loop
      vertex -10.2 0.866834 -0.025
      vertex -10.2 0.866834 3
      vertex -11.5554 1.94776 3
    endloop
  endfacet
  facet normal -0.62349 -0.781831 -0
    outer loop
      vertex -11.5554 1.94776 -0.025
      vertex -10.2 0.866834 -0.025
      vertex -11.5554 1.94776 3
    endloop
  endfacet
  facet normal -1 0 0
    outer loop
      vertex -10.2 0.866834 3
      vertex -10.2 0.866834 -0.025
      vertex -10.2 -0.866834 3
    endloop
  endfacet
  facet normal -1 0 0
    outer loop
      vertex -10.2 -0.866834 3
      vertex -10.2 0.866834 -0.025
      vertex -10.2 -0.866834 -0.025
    endloop
  endfacet
  facet normal -0.62349 0.781831 0
    outer loop
      vertex -10.2 -0.866834 3
      vertex -10.2 -0.866834 -0.025
      vertex -11.5554 -1.94776 3
    endloop
  endfacet
  facet normal -0.62349 0.781831 0
    outer loop
      vertex -11.5554 -1.94776 3
      vertex -10.2 -0.866834 -0.025
      vertex -11.5554 -1.94776 -0.025
    endloop
  endfacet
  facet normal 0.900969 0.433884 0
    outer loop
      vertex 10.0022 2.44666e-16 3
      vertex 10.7544 -1.56198 3
      vertex 10.7544 -1.56198 -0.025
    endloop
  endfacet
  facet normal 0.900969 0.433884 0
    outer loop
      vertex 10.0022 2.44666e-16 -0.025
      vertex 10.0022 2.44666e-16 3
      vertex 10.7544 -1.56198 -0.025
    endloop
  endfacet
  facet normal 0.222521 0.974928 -0
    outer loop
      vertex 12.4446 -1.94776 3
      vertex 12.4446 -1.94776 -0.025
      vertex 10.7544 -1.56198 3
    endloop
  endfacet
  facet normal 0.222521 0.974928 -0
    outer loop
      vertex 10.7544 -1.56198 3
      vertex 12.4446 -1.94776 -0.025
      vertex 10.7544 -1.56198 -0.025
    endloop
  endfacet
  facet normal 0.900969 -0.433884 0
    outer loop
      vertex 10.7544 1.56198 -0.025
      vertex 10.7544 1.56198 3
      vertex 10.0022 2.44666e-16 3
    endloop
  endfacet
  facet normal 0.900969 -0.433884 0
    outer loop
      vertex 10.0022 2.44666e-16 -0.025
      vertex 10.7544 1.56198 -0.025
      vertex 10.0022 2.44666e-16 3
    endloop
  endfacet
  facet normal 0.222521 -0.974928 0
    outer loop
      vertex 12.4446 1.94776 -0.025
      vertex 12.4446 1.94776 3
      vertex 10.7544 1.56198 3
    endloop
  endfacet
  facet normal 0.222521 -0.974928 0
    outer loop
      vertex 10.7544 1.56198 -0.025
      vertex 12.4446 1.94776 -0.025
      vertex 10.7544 1.56198 3
    endloop
  endfacet
  facet normal -0.62349 -0.781831 -0
    outer loop
      vertex 13.8 0.866834 -0.025
      vertex 13.8 0.866834 3
      vertex 12.4446 1.94776 3
    endloop
  endfacet
  facet normal -0.62349 -0.781831 -0
    outer loop
      vertex 12.4446 1.94776 -0.025
      vertex 13.8 0.866834 -0.025
      vertex 12.4446 1.94776 3
    endloop
  endfacet
  facet normal -1 0 0
    outer loop
      vertex 13.8 0.866834 3
      vertex 13.8 0.866834 -0.025
      vertex 13.8 -0.866834 3
    endloop
  endfacet
  facet normal -1 0 0
    outer loop
      vertex 13.8 -0.866834 3
      vertex 13.8 0.866834 -0.025
      vertex 13.8 -0.866834 -0.025
    endloop
  endfacet
  facet normal -0.62349 0.781831 0
    outer loop
      vertex 13.8 -0.866834 3
      vertex 13.8 -0.866834 -0.025
      vertex 12.4446 -1.94776 3
    endloop
  endfacet
  facet normal -0.62349 0.781831 0
    outer loop
      vertex 12.4446 -1.94776 3
      vertex 13.8 -0.866834 -0.025
      vertex 12.4446 -1.94776 -0.025
    endloop
  endfacet
  facet normal 0 -0 1
    outer loop
      vertex -2 6 2.95
      vertex -2 5 2.95
      vertex 2 5 2.95
    endloop
  endfacet
  facet normal 0 0 1
    outer loop
      vertex 2 6 2.95
      vertex -2 6 2.95
      vertex 2 5 2.95
    endloop
  endfacet
  facet normal 2.20657e-16 0 0
    outer loop
      vertex 7.5 -5 10.95
      vertex 7.5 -5 2.95
      vertex 7.5 -5 3
    endloop
  endfacet
  facet normal 1 -0 0
    outer loop
      vertex 7.5 5 3
      vertex 7.5 -5 10.95
      vertex 7.5 -5 3
    endloop
  endfacet
  facet normal 1 -0 0
    outer loop
      vertex 7.5 5 10.95
      vertex 7.5 -5 10.95
      vertex 7.5 5 3
    endloop
  endfacet
  facet normal -4.38e-16 1 -6.55513e-16
    outer loop
      vertex 3.5 5 14.5093
      vertex 3.5 5 15.8642
      vertex 3.53553 5 14.4855
    endloop
  endfacet
  facet normal 6.28037e-16 1 -6.28037e-16
    outer loop
      vertex 3.53553 5 14.4855
      vertex 3.5 5 15.8642
      vertex 4.5031 5 16.8673
    endloop
  endfacet
  facet normal -2.18142e-16 1 -2.84288e-16
    outer loop
      vertex 3.53553 5 14.4855
      vertex 4.5031 5 16.8673
      vertex 5.3033 5 16.2533
    endloop
  endfacet
  facet normal 3.92519e-17 1 -5.41682e-16
    outer loop
      vertex 3.53553 5 14.4855
      vertex 5.3033 5 16.2533
      vertex 6.49519 5 14.7
    endloop
  endfacet
  facet normal 0 1 0
    outer loop
      vertex 3.53553 5 14.4855
      vertex 6.49519 5 14.7
      vertex 7.24444 5 12.8911
    endloop
  endfacet
  facet normal 0 1 0
    outer loop
      vertex 3.53553 5 14.4855
      vertex 7.24444 5 12.8911
      vertex 7.5 5 10.95
    endloop
  endfacet
  facet normal -1.28542e-15 1 -6.27662e-16
    outer loop
      vertex 5 5 10.95
      vertex 7.5 5 3
      vertex 4.8 5 9.94453
    endloop
  endfacet
  facet normal 0 1 -1.27896e-16
    outer loop
      vertex 7.5 5 3
      vertex 4.8 5 3
      vertex 4.8 5 9.94453
    endloop
  endfacet
  facet normal 0 1 -2.23441e-16
    outer loop
      vertex 7.5 5 10.95
      vertex 7.5 5 3
      vertex 5 5 10.95
    endloop
  endfacet
  facet normal -0 1 0
    outer loop
      vertex 7.5 5 10.95
      vertex 5 5 10.95
      vertex 4.6194 5 12.8634
    endloop
  endfacet
  facet normal 0 1 0
    outer loop
      vertex 3.53553 5 14.4855
      vertex 7.5 5 10.95
      vertex 4.6194 5 12.8634
    endloop
  endfacet
  facet normal -1 0 0
    outer loop
      vertex 4.8 5 9.94453
      vertex 4.8 5 3
      vertex 4.8 -5 9.94453
    endloop
  endfacet
  facet normal -1 0 0
    outer loop
      vertex 4.8 -5 9.94453
      vertex 4.8 5 3
      vertex 4.8 -5 3
    endloop
  endfacet
  facet normal 0 0 0
    outer loop
      vertex 4.8 -5 9.94453
      vertex 4.8 -5 3
      vertex 4.8 -5 2.95
    endloop
  endfacet
  facet normal 0 -1 0
    outer loop
      vertex 4 -5 3
      vertex 4 -5 2.95
      vertex 4.8 -5 2.95
    endloop
  endfacet
  facet normal 0 -1 0
    outer loop
      vertex 4.8 -5 3
      vertex 4 -5 3
      vertex 4.8 -5 2.95
    endloop
  endfacet
  facet normal 1 0 0
    outer loop
      vertex 4 5 8.10959
      vertex 4 -5 3
      vertex 4 5 3
    endloop
  endfacet
  facet normal 1 0 -0
    outer loop
      vertex 4 -5 8.10959
      vertex 4 -5 3
      vertex 4 5 8.10959
    endloop
  endfacet
  facet normal 0 0 0
    outer loop
      vertex 4 -5 2.95
      vertex 4 -5 3
      vertex 4 -5 8.10959
    endloop
  endfacet
  facet normal -2.60149e-16 1 -1.73826e-16
    outer loop
      vertex -4 5 3
      vertex -4 5 8.10959
      vertex -3.53553 5 7.41447
    endloop
  endfacet
  facet normal 3.85972e-16 1 -2.41807e-16
    outer loop
      vertex -4 5 3
      vertex -3.53553 5 7.41447
      vertex -1.91342 5 6.3306
    endloop
  endfacet
  facet normal 0 1 0
    outer loop
      vertex -4 5 3
      vertex -1.91342 5 6.3306
      vertex 4 5 3
    endloop
  endfacet
  facet normal 0 1 0
    outer loop
      vertex 4 5 3
      vertex 0 5 5.95
      vertex 1.91342 5 6.3306
    endloop
  endfacet
  facet normal -3.85972e-16 1 -2.41807e-16
    outer loop
      vertex 1.91342 5 6.3306
      vertex 3.53553 5 7.41447
      vertex 4 5 3
    endloop
  endfacet
  facet normal 2.60149e-16 1 -1.73826e-16
    outer loop
      vertex 3.53553 5 7.41447
      vertex 4 5 8.10959
      vertex 4 5 3
    endloop
  endfacet
  facet normal -0 1 -0
    outer loop
      vertex 0 5 5.95
      vertex 4 5 3
      vertex -1.91342 5 6.3306
    endloop
  endfacet
  facet normal -1 0 0
    outer loop
      vertex -4 5 8.10959
      vertex -4 5 3
      vertex -4 -5 8.10959
    endloop
  endfacet
  facet normal -1 0 0
    outer loop
      vertex -4 -5 8.10959
      vertex -4 5 3
      vertex -4 -5 3
    endloop
  endfacet
  facet normal 0 0 0
    outer loop
      vertex -4 -5 8.10959
      vertex -4 -5 3
      vertex -4 -5 2.95
    endloop
  endfacet
  facet normal 0 -1 0
    outer loop
      vertex -4.8 -5 3
      vertex -4.8 -5 2.95
      vertex -4 -5 2.95
    endloop
  endfacet
  facet normal 0 -1 0
    outer loop
      vertex -4 -5 3
      vertex -4.8 -5 3
      vertex -4 -5 2.95
    endloop
  endfacet
  facet normal 1 0 0
    outer loop
      vertex -4.8 5 9.94453
      vertex -4.8 -5 3
      vertex -4.8 5 3
    endloop
  endfacet
  facet normal 1 0 -0
    outer loop
      vertex -4.8 -5 9.94453
      vertex -4.8 -5 3
      vertex -4.8 5 9.94453
    endloop
  endfacet
  facet normal 0 0 0
    outer loop
      vertex -4.8 -5 2.95
      vertex -4.8 -5 3
      vertex -4.8 -5 9.94453
    endloop
  endfacet
  facet normal 0 1 -2.23441e-16
    outer loop
      vertex -7.5 5 3
      vertex -7.5 5 10.95
      vertex -4.8 5 3
    endloop
  endfacet
  facet normal 4.7412e-16 1 -6.24191e-17
    outer loop
      vertex -4.8 5 3
      vertex -7.5 5 10.95
      vertex -7.24444 5 12.8911
    endloop
  endfacet
  facet normal 2.71552e-16 1 -1.12481e-16
    outer loop
      vertex -4.8 5 3
      vertex -7.24444 5 12.8911
      vertex -6.49519 5 14.7
    endloop
  endfacet
  facet normal -4.6039e-16 1 -2.1853e-16
    outer loop
      vertex -4.8 5 3
      vertex -6.49519 5 14.7
      vertex -5.3033 5 16.2533
    endloop
  endfacet
  facet normal 1.74095e-16 1 -2.26885e-16
    outer loop
      vertex -4.6194 5 12.8634
      vertex -5.3033 5 16.2533
      vertex -4.5031 5 16.8673
    endloop
  endfacet
  facet normal 4.38e-16 1 -6.55513e-16
    outer loop
      vertex -3.53553 5 14.4855
      vertex -3.5 5 15.8642
      vertex -3.5 5 14.5093
    endloop
  endfacet
  facet normal 6.53942e-16 1 -1.30077e-16
    outer loop
      vertex -5 5 10.95
      vertex -5.3033 5 16.2533
      vertex -4.6194 5 12.8634
    endloop
  endfacet
  facet normal -1.74705e-15 1 -2.67392e-16
    outer loop
      vertex -4.8 5 3
      vertex -5.3033 5 16.2533
      vertex -5 5 10.95
    endloop
  endfacet
  facet normal 3.79791e-15 1 -1.27896e-16
    outer loop
      vertex -4.8 5 3
      vertex -5 5 10.95
      vertex -4.8 5 9.94453
    endloop
  endfacet
  facet normal -2.15567e-16 1 -2.15567e-16
    outer loop
      vertex -4.6194 5 12.8634
      vertex -4.5031 5 16.8673
      vertex -3.5 5 15.8642
    endloop
  endfacet
  facet normal 1.00283e-15 1 -6.70071e-16
    outer loop
      vertex -4.6194 5 12.8634
      vertex -3.5 5 15.8642
      vertex -3.53553 5 14.4855
    endloop
  endfacet
  facet normal -0.991445 2.31861e-17 0.130526
    outer loop
      vertex -7.5 -5 10.95
      vertex -7.24444 -5 12.8911
      vertex -7.5 5 10.95
    endloop
  endfacet
  facet normal -0.991445 2.65805e-17 0.130526
    outer loop
      vertex -7.5 5 10.95
      vertex -7.24444 -5 12.8911
      vertex -7.24444 5 12.8911
    endloop
  endfacet
  facet normal -0.92388 6.79782e-17 0.382683
    outer loop
      vertex -7.24444 -5 12.8911
      vertex -6.49519 -5 14.7
      vertex -7.24444 5 12.8911
    endloop
  endfacet
  facet normal -0.92388 7.08812e-17 0.382683
    outer loop
      vertex -7.24444 5 12.8911
      vertex -6.49519 -5 14.7
      vertex -6.49519 5 14.7
    endloop
  endfacet
  facet normal -0.793353 1.08138e-16 0.608762
    outer loop
      vertex -6.49519 -5 14.7
      vertex -5.3033 -5 16.2533
      vertex -6.49519 5 14.7
    endloop
  endfacet
  facet normal -0.793353 2.30364e-16 0.608762
    outer loop
      vertex -6.49519 5 14.7
      vertex -5.3033 -5 16.2533
      vertex -5.3033 5 16.2533
    endloop
  endfacet
  facet normal -0.608762 2.81856e-16 0.793353
    outer loop
      vertex -5.3033 5 16.2533
      vertex -5.3033 -5 16.2533
      vertex -4.5031 -5 16.8673
    endloop
  endfacet
  facet normal -0.608762 0 0.793353
    outer loop
      vertex -4.5031 5 16.8673
      vertex -5.3033 5 16.2533
      vertex -4.5031 -5 16.8673
    endloop
  endfacet
  facet normal 0.707107 1.25607e-16 0.707107
    outer loop
      vertex -3.5 -5 15.8642
      vertex -3.5 5 15.8642
      vertex -4.5031 5 16.8673
    endloop
  endfacet
  facet normal 0.707107 0 0.707107
    outer loop
      vertex -4.5031 -5 16.8673
      vertex -3.5 -5 15.8642
      vertex -4.5031 5 16.8673
    endloop
  endfacet
  facet normal 1 0 0
    outer loop
      vertex -3.5 5 14.5093
      vertex -3.5 5 15.8642
      vertex -3.5 -5 15.8642
    endloop
  endfacet
  facet normal 1 0 0
    outer loop
      vertex -3.5 -5 14.5093
      vertex -3.5 5 14.5093
      vertex -3.5 -5 15.8642
    endloop
  endfacet
  facet normal 0.55557 -1.47699e-16 -0.83147
    outer loop
      vertex -3.5 5 14.5093
      vertex -3.5 -5 14.5093
      vertex -3.53553 5 14.4855
    endloop
  endfacet
  facet normal 0.55557 -1.47699e-16 -0.83147
    outer loop
      vertex -3.53553 5 14.4855
      vertex -3.5 -5 14.5093
      vertex -3.53553 -5 14.4855
    endloop
  endfacet
  facet normal 0.83147 -1.06703e-16 -0.55557
    outer loop
      vertex -4.6194 5 12.8634
      vertex -3.53553 5 14.4855
      vertex -3.53553 -5 14.4855
    endloop
  endfacet
  facet normal 0.83147 -9.86891e-17 -0.55557
    outer loop
      vertex -4.6194 -5 12.8634
      vertex -4.6194 5 12.8634
      vertex -3.53553 -5 14.4855
    endloop
  endfacet
  facet normal 0.980785 -3.11217e-17 -0.19509
    outer loop
      vertex -5 5 10.95
      vertex -4.6194 5 12.8634
      vertex -4.6194 -5 12.8634
    endloop
  endfacet
  facet normal 0.980785 -3.4655e-17 -0.19509
    outer loop
      vertex -5 -5 10.95
      vertex -5 5 10.95
      vertex -4.6194 -5 12.8634
    endloop
  endfacet
  facet normal 0.980785 3.4655e-17 0.19509
    outer loop
      vertex -4.8 -5 9.94453
      vertex -4.8 5 9.94453
      vertex -5 5 10.95
    endloop
  endfacet
  facet normal 0.980785 3.4655e-17 0.19509
    outer loop
      vertex -5 -5 10.95
      vertex -4.8 -5 9.94453
      vertex -5 5 10.95
    endloop
  endfacet
  facet normal 0.83147 1.48034e-16 0.55557
    outer loop
      vertex -3.53553 -5 7.41447
      vertex -3.53553 5 7.41447
      vertex -4 5 8.10959
    endloop
  endfacet
  facet normal 0.83147 9.86891e-17 0.55557
    outer loop
      vertex -4 -5 8.10959
      vertex -3.53553 -5 7.41447
      vertex -4 5 8.10959
    endloop
  endfacet
  facet normal 0.55557 1.47699e-16 0.83147
    outer loop
      vertex -1.91342 -5 6.3306
      vertex -1.91342 5 6.3306
      vertex -3.53553 5 7.41447
    endloop
  endfacet
  facet normal 0.55557 2.21548e-16 0.83147
    outer loop
      vertex -3.53553 -5 7.41447
      vertex -1.91342 -5 6.3306
      vertex -3.53553 5 7.41447
    endloop
  endfacet
  facet normal 0.19509 1.74222e-16 0.980785
    outer loop
      vertex 0 -5 5.95
      vertex 0 5 5.95
      vertex -1.91342 5 6.3306
    endloop
  endfacet
  facet normal 0.19509 1.74222e-16 0.980785
    outer loop
      vertex -1.91342 -5 6.3306
      vertex 0 -5 5.95
      vertex -1.91342 5 6.3306
    endloop
  endfacet
  facet normal -0.19509 1.74222e-16 0.980785
    outer loop
      vertex 1.91342 -5 6.3306
      vertex 1.91342 5 6.3306
      vertex 0 5 5.95
    endloop
  endfacet
  facet normal -0.19509 1.74222e-16 0.980785
    outer loop
      vertex 0 -5 5.95
      vertex 1.91342 -5 6.3306
      vertex 0 5 5.95
    endloop
  endfacet
  facet normal -0.55557 2.21548e-16 0.83147
    outer loop
      vertex 3.53553 -5 7.41447
      vertex 3.53553 5 7.41447
      vertex 1.91342 5 6.3306
    endloop
  endfacet
  facet normal -0.55557 1.47699e-16 0.83147
    outer loop
      vertex 1.91342 -5 6.3306
      vertex 3.53553 -5 7.41447
      vertex 1.91342 5 6.3306
    endloop
  endfacet
  facet normal -0.83147 9.86891e-17 0.55557
    outer loop
      vertex 4 5 8.10959
      vertex 3.53553 5 7.41447
      vertex 4 -5 8.10959
    endloop
  endfacet
  facet normal -0.83147 1.45249e-16 0.55557
    outer loop
      vertex 4 -5 8.10959
      vertex 3.53553 5 7.41447
      vertex 3.53553 -5 7.41447
    endloop
  endfacet
  facet normal -0.980785 3.4655e-17 0.19509
    outer loop
      vertex 5 5 10.95
      vertex 4.8 5 9.94453
      vertex 5 -5 10.95
    endloop
  endfacet
  facet normal -0.980785 6.76855e-17 0.19509
    outer loop
      vertex 5 -5 10.95
      vertex 4.8 5 9.94453
      vertex 4.8 -5 9.94453
    endloop
  endfacet
  facet normal -0.980785 -3.4655e-17 -0.19509
    outer loop
      vertex 5 5 10.95
      vertex 5 -5 10.95
      vertex 4.6194 5 12.8634
    endloop
  endfacet
  facet normal -0.980785 -3.4655e-17 -0.19509
    outer loop
      vertex 4.6194 5 12.8634
      vertex 5 -5 10.95
      vertex 4.6194 -5 12.8634
    endloop
  endfacet
  facet normal -0.83147 -9.86891e-17 -0.55557
    outer loop
      vertex 4.6194 5 12.8634
      vertex 4.6194 -5 12.8634
      vertex 3.53553 5 14.4855
    endloop
  endfacet
  facet normal -0.83147 -9.86891e-17 -0.55557
    outer loop
      vertex 3.53553 5 14.4855
      vertex 4.6194 -5 12.8634
      vertex 3.53553 -5 14.4855
    endloop
  endfacet
  facet normal -0.55557 -1.47699e-16 -0.83147
    outer loop
      vertex 3.53553 5 14.4855
      vertex 3.53553 -5 14.4855
      vertex 3.5 5 14.5093
    endloop
  endfacet
  facet normal -0.55557 -1.47699e-16 -0.83147
    outer loop
      vertex 3.5 5 14.5093
      vertex 3.53553 -5 14.4855
      vertex 3.5 -5 14.5093
    endloop
  endfacet
  facet normal -1 0 0
    outer loop
      vertex 3.5 5 15.8642
      vertex 3.5 5 14.5093
      vertex 3.5 -5 15.8642
    endloop
  endfacet
  facet normal -1 0 0
    outer loop
      vertex 3.5 -5 15.8642
      vertex 3.5 5 14.5093
      vertex 3.5 -5 14.5093
    endloop
  endfacet
  facet normal -0.707107 0 0.707107
    outer loop
      vertex 4.5031 5 16.8673
      vertex 3.5 5 15.8642
      vertex 4.5031 -5 16.8673
    endloop
  endfacet
  facet normal -0.707107 1.22284e-16 0.707107
    outer loop
      vertex 4.5031 -5 16.8673
      vertex 3.5 5 15.8642
      vertex 3.5 -5 15.8642
    endloop
  endfacet
  facet normal 0.608762 -0 0.793353
    outer loop
      vertex 4.5031 5 16.8673
      vertex 4.5031 -5 16.8673
      vertex 5.3033 -5 16.2533
    endloop
  endfacet
  facet normal 0.608762 2.81856e-16 0.793353
    outer loop
      vertex 5.3033 5 16.2533
      vertex 4.5031 5 16.8673
      vertex 5.3033 -5 16.2533
    endloop
  endfacet
  facet normal 0.793353 2.16276e-16 0.608762
    outer loop
      vertex 5.3033 5 16.2533
      vertex 5.3033 -5 16.2533
      vertex 6.49519 -5 14.7
    endloop
  endfacet
  facet normal 0.793353 1.08138e-16 0.608762
    outer loop
      vertex 6.49519 5 14.7
      vertex 5.3033 5 16.2533
      vertex 6.49519 -5 14.7
    endloop
  endfacet
  facet normal 0.92388 6.79782e-17 0.382683
    outer loop
      vertex 6.49519 5 14.7
      vertex 6.49519 -5 14.7
      vertex 7.24444 -5 12.8911
    endloop
  endfacet
  facet normal 0.92388 6.79782e-17 0.382683
    outer loop
      vertex 7.24444 5 12.8911
      vertex 6.49519 5 14.7
      vertex 7.24444 -5 12.8911
    endloop
  endfacet
  facet normal 0.991445 2.31861e-17 0.130526
    outer loop
      vertex 7.24444 5 12.8911
      vertex 7.24444 -5 12.8911
      vertex 7.5 -5 10.95
    endloop
  endfacet
  facet normal 0.991445 2.31861e-17 0.130526
    outer loop
      vertex 7.5 5 10.95
      vertex 7.24444 5 12.8911
      vertex 7.5 -5 10.95
    endloop
  endfacet
  facet normal 0 -0 1
    outer loop
      vertex -2 -5 2.95
      vertex -2 -6 2.95
      vertex 2 -6 2.95
    endloop
  endfacet
  facet normal 0 0 1
    outer loop
      vertex 2 -5 2.95
      vertex -2 -5 2.95
      vertex 2 -6 2.95
    endloop
  endfacet
  facet normal 0 1 -2.53765e-16
    outer loop
      vertex -2 -6 2.95
      vertex -2 -6 6.45
      vertex 2 -6 2.95
    endloop
  endfacet
  facet normal 0 1 -2.53765e-16
    outer loop
      vertex 2 -6 2.95
      vertex -2 -6 6.45
      vertex 2 -6 6.45
    endloop
  endfacet
  facet normal 0 4.44089e-16 1
    outer loop
      vertex -2 -6 6.45
      vertex -2 -8 6.45
      vertex 2 -8 6.45
    endloop
  endfacet
  facet normal -0 4.44089e-16 1
    outer loop
      vertex 2 -6 6.45
      vertex -2 -6 6.45
      vertex 2 -8 6.45
    endloop
  endfacet
  facet normal 0 -1 3.27202e-16
    outer loop
      vertex -2 -8 6.45
      vertex -2 -8 1.02107
      vertex 2 -8 1.02107
    endloop
  endfacet
  facet normal 0 -1 3.27202e-16
    outer loop
      vertex 2 -8 6.45
      vertex -2 -8 6.45
      vertex 2 -8 1.02107
    endloop
  endfacet
  facet normal 0 -1 0
    outer loop
      vertex -2 6 6.45
      vertex -2 6 2.95
      vertex 2 6 2.95
    endloop
  endfacet
  facet normal 0 -1 0
    outer loop
      vertex 2 6 6.45
      vertex -2 6 6.45
      vertex 2 6 2.95
    endloop
  endfacet
  facet normal 0 -0 1
    outer loop
      vertex -2 8 6.45
      vertex -2 6 6.45
      vertex 2 6 6.45
    endloop
  endfacet
  facet normal 0 0 1
    outer loop
      vertex 2 8 6.45
      vertex -2 8 6.45
      vertex 2 6 6.45
    endloop
  endfacet
  facet normal 0 1 -1.63601e-16
    outer loop
      vertex -2 8 1.02107
      vertex -2 8 6.45
      vertex 2 8 1.02107
    endloop
  endfacet
  facet normal 0 1 -1.63601e-16
    outer loop
      vertex 2 8 1.02107
      vertex -2 8 6.45
      vertex 2 8 6.45
    endloop
  endfacet
endsolid OpenSCAD_Model
