solid OpenSCAD_Model
  facet normal 0 0 -1
    outer loop
      vertex -7.45 0 0
      vertex -7.19615 1.9282 0
      vertex -7.19615 -1.9282 0
    endloop
  endfacet
  facet normal 0 0 -1
    outer loop
      vertex -7.19615 -1.9282 0
      vertex -7.19615 1.9282 0
      vertex -6.45189 3.725 0
    endloop
  endfacet
  facet normal 0 0 -1
    outer loop
      vertex -7.19615 -1.9282 0
      vertex -6.45189 3.725 0
      vertex -5.26795 5.26795 0
    endloop
  endfacet
  facet normal 0 0 -1
    outer loop
      vertex -7.19615 -1.9282 0
      vertex -5.26795 5.26795 0
      vertex -3.725 6.45189 0
    endloop
  endfacet
  facet normal 0 0 -1
    outer loop
      vertex -7.19615 -1.9282 0
      vertex -3.725 6.45189 0
      vertex -1.9282 7.19615 0
    endloop
  endfacet
  facet normal 0 0 -1
    outer loop
      vertex -7.19615 -1.9282 0
      vertex -1.9282 7.19615 0
      vertex 0 7.45 0
    endloop
  endfacet
  facet normal 0 0 -1
    outer loop
      vertex -7.19615 -1.9282 0
      vertex 0 7.45 0
      vertex 6.74637e-15 7.45 0
    endloop
  endfacet
  facet normal 0 0 -1
    outer loop
      vertex 0.990218 4.33843 0
      vertex 6.74637e-15 7.45 0
      vertex 7.45 7.45 0
    endloop
  endfacet
  facet normal 0 0 -1
    outer loop
      vertex 4.00931 1.93078 0
      vertex 7.45 7.45 0
      vertex 7.45 1.99622 0
    endloop
  endfacet
  facet normal 0 0 -1
    outer loop
      vertex 2.77453 -3.47915 0
      vertex 7.45 1.99622 0
      vertex 13.9519 -9.26538 0
    endloop
  endfacet
  facet normal 0 0 -1
    outer loop
      vertex -0.906025 -7.33072 0
      vertex 13.9519 -9.26538 0
      vertex 3.64619 -15.2154 0
    endloop
  endfacet
  facet normal 0 0 -1
    outer loop
      vertex -0.990218 -4.33843 0
      vertex 13.9519 -9.26538 0
      vertex -0.906025 -7.33072 0
    endloop
  endfacet
  facet normal 0 0 -1
    outer loop
      vertex -7.19615 -1.9282 0
      vertex -0.906025 -7.33072 0
      vertex -1.9282 -7.19615 0
    endloop
  endfacet
  facet normal 0 0 -1
    outer loop
      vertex -4.00931 -1.93078 0
      vertex -7.19615 -1.9282 0
      vertex -4.45 0 0
    endloop
  endfacet
  facet normal 0 0 -1
    outer loop
      vertex -7.19615 -1.9282 0
      vertex -3.725 -6.45189 0
      vertex -5.26795 -5.26795 0
    endloop
  endfacet
  facet normal 0 0 -1
    outer loop
      vertex -7.19615 -1.9282 0
      vertex -5.26795 -5.26795 0
      vertex -6.45189 -3.725 0
    endloop
  endfacet
  facet normal 0 0 -1
    outer loop
      vertex -2.77453 -3.47915 0
      vertex -7.19615 -1.9282 0
      vertex -4.00931 -1.93078 0
    endloop
  endfacet
  facet normal 0 0 -1
    outer loop
      vertex 0.990218 -4.33843 0
      vertex 13.9519 -9.26538 0
      vertex -0.990218 -4.33843 0
    endloop
  endfacet
  facet normal 0 0 -1
    outer loop
      vertex -7.19615 -1.9282 0
      vertex -2.77453 -3.47915 0
      vertex -0.906025 -7.33072 0
    endloop
  endfacet
  facet normal 0 0 -1
    outer loop
      vertex -2.77453 -3.47915 0
      vertex -0.990218 -4.33843 0
      vertex -0.906025 -7.33072 0
    endloop
  endfacet
  facet normal 0 0 -1
    outer loop
      vertex 4.00931 -1.93078 0
      vertex 7.45 1.99622 0
      vertex 2.77453 -3.47915 0
    endloop
  endfacet
  facet normal 0 0 -1
    outer loop
      vertex 4.00931 1.93078 0
      vertex 7.45 1.99622 0
      vertex 4.45 0 0
    endloop
  endfacet
  facet normal 0 0 -1
    outer loop
      vertex 4.45 0 0
      vertex 7.45 1.99622 0
      vertex 4.00931 -1.93078 0
    endloop
  endfacet
  facet normal 0 0 -1
    outer loop
      vertex 2.77453 3.47915 0
      vertex 7.45 7.45 0
      vertex 4.00931 1.93078 0
    endloop
  endfacet
  facet normal 0 0 -1
    outer loop
      vertex 2.77453 -3.47915 0
      vertex 13.9519 -9.26538 0
      vertex 0.990218 -4.33843 0
    endloop
  endfacet
  facet normal 0 0 -1
    outer loop
      vertex -0.990218 4.33843 0
      vertex 6.74637e-15 7.45 0
      vertex 0.990218 4.33843 0
    endloop
  endfacet
  facet normal 0 0 -1
    outer loop
      vertex -2.77453 3.47915 0
      vertex 6.74637e-15 7.45 0
      vertex -0.990218 4.33843 0
    endloop
  endfacet
  facet normal 0 0 -1
    outer loop
      vertex -7.19615 -1.9282 0
      vertex 6.74637e-15 7.45 0
      vertex -2.77453 3.47915 0
    endloop
  endfacet
  facet normal 0 0 -1
    outer loop
      vertex -7.19615 -1.9282 0
      vertex -2.77453 3.47915 0
      vertex -4.00931 1.93078 0
    endloop
  endfacet
  facet normal 0 0 -1
    outer loop
      vertex -7.19615 -1.9282 0
      vertex -4.00931 1.93078 0
      vertex -4.45 0 0
    endloop
  endfacet
  facet normal 0 0 -1
    outer loop
      vertex -3.725 -6.45189 0
      vertex -7.19615 -1.9282 0
      vertex -1.9282 -7.19615 0
    endloop
  endfacet
  facet normal 0 0 -1
    outer loop
      vertex 0.990218 4.33843 0
      vertex 7.45 7.45 0
      vertex 2.77453 3.47915 0
    endloop
  endfacet
  facet normal -0.991445 0.130526 0
    outer loop
      vertex -7.45 0 0
      vertex -7.45 0 28
      vertex -7.19615 1.9282 0
    endloop
  endfacet
  facet normal -0.991445 0.130526 0
    outer loop
      vertex -7.19615 1.9282 0
      vertex -7.45 0 28
      vertex -7.19615 1.9282 28
    endloop
  endfacet
  facet normal -0.991445 -0.130526 0
    outer loop
      vertex -7.45 0 0
      vertex -7.19615 -1.9282 0
      vertex -7.45 0 28
    endloop
  endfacet
  facet normal -0.991445 -0.130526 0
    outer loop
      vertex -7.45 0 28
      vertex -7.19615 -1.9282 0
      vertex -7.19615 -1.9282 28
    endloop
  endfacet
  facet normal -0.92388 -0.382683 0
    outer loop
      vertex -7.19615 -1.9282 0
      vertex -6.45189 -3.725 0
      vertex -7.19615 -1.9282 28
    endloop
  endfacet
  facet normal -0.92388 -0.382683 0
    outer loop
      vertex -7.19615 -1.9282 28
      vertex -6.45189 -3.725 0
      vertex -6.45189 -3.725 28
    endloop
  endfacet
  facet normal -0.793354 -0.608761 0
    outer loop
      vertex -6.45189 -3.725 0
      vertex -5.26795 -5.26795 0
      vertex -6.45189 -3.725 28
    endloop
  endfacet
  facet normal -0.793354 -0.608761 0
    outer loop
      vertex -6.45189 -3.725 28
      vertex -5.26795 -5.26795 0
      vertex -5.26795 -5.26795 28
    endloop
  endfacet
  facet normal -0.608761 -0.793354 0
    outer loop
      vertex -5.26795 -5.26795 28
      vertex -5.26795 -5.26795 0
      vertex -3.725 -6.45189 0
    endloop
  endfacet
  facet normal -0.608761 -0.793354 0
    outer loop
      vertex -3.725 -6.45189 28
      vertex -5.26795 -5.26795 28
      vertex -3.725 -6.45189 0
    endloop
  endfacet
  facet normal -0.382683 -0.92388 0
    outer loop
      vertex -3.725 -6.45189 28
      vertex -3.725 -6.45189 0
      vertex -1.9282 -7.19615 0
    endloop
  endfacet
  facet normal -0.382683 -0.92388 0
    outer loop
      vertex -1.9282 -7.19615 28
      vertex -3.725 -6.45189 28
      vertex -1.9282 -7.19615 0
    endloop
  endfacet
  facet normal -0.130526 -0.991445 0
    outer loop
      vertex -1.9282 -7.19615 28
      vertex -1.9282 -7.19615 0
      vertex -0.906025 -7.33072 0
    endloop
  endfacet
  facet normal -0.130526 -0.991445 0
    outer loop
      vertex -0.906025 -7.33072 16.0284
      vertex -1.9282 -7.19615 28
      vertex -0.906025 -7.33072 10.3936
    endloop
  endfacet
  facet normal -0.130526 -0.991445 0
    outer loop
      vertex -0.906025 -7.33072 10.3936
      vertex -1.9282 -7.19615 28
      vertex -0.906025 -7.33072 0
    endloop
  endfacet
  facet normal -0.130526 -0.991445 0
    outer loop
      vertex -0.906025 -7.33072 17.6064
      vertex -1.9282 -7.19615 28
      vertex -0.906025 -7.33072 16.0284
    endloop
  endfacet
  facet normal -0.130526 -0.991445 0
    outer loop
      vertex -0.906025 -7.33072 28
      vertex -1.9282 -7.19615 28
      vertex -0.906025 -7.33072 17.6064
    endloop
  endfacet
  facet normal -0.866025 -0.5 -2.38599e-17
    outer loop
      vertex 3.64619 -15.2154 0
      vertex -0.906025 -7.33072 10.3936
      vertex -0.906025 -7.33072 0
    endloop
  endfacet
  facet normal -0.866025 -0.5 -1.01885e-16
    outer loop
      vertex 7.3453 -21.6224 13.0122
      vertex 3.64619 -15.2154 0
      vertex 7.13993 -21.2667 11.0798
    endloop
  endfacet
  facet normal -0.866025 -0.5 -4.81204e-16
    outer loop
      vertex 7.13993 -21.2667 11.0798
      vertex 3.64619 -15.2154 0
      vertex 6.73816 -20.5708 9.275
    endloop
  endfacet
  facet normal 0.416013 -0.720555 -0.554738
    outer loop
      vertex 6.73816 -20.5708 9.275
      vertex 3.64619 -15.2154 0
      vertex 13.9519 -9.26538 0
    endloop
  endfacet
  facet normal -0.866025 -0.5 0
    outer loop
      vertex -0.906025 -7.33072 10.3936
      vertex 3.64619 -15.2154 0
      vertex -0.906025 -7.33072 16.0284
    endloop
  endfacet
  facet normal -0.866025 -0.5 0
    outer loop
      vertex 3.61158 -15.1554 9.99069
      vertex 3.64619 -15.2154 0
      vertex 3.64619 -15.2154 10.0459
    endloop
  endfacet
  facet normal -0.866025 -0.5 0
    outer loop
      vertex 2.64619 -13.4833 9.55
      vertex 3.64619 -15.2154 0
      vertex 3.61158 -15.1554 9.99069
    endloop
  endfacet
  facet normal -0.866025 -0.5 0
    outer loop
      vertex 1.6808 -11.8112 9.99069
      vertex 3.64619 -15.2154 0
      vertex 2.64619 -13.4833 9.55
    endloop
  endfacet
  facet normal -0.866025 -0.5 0
    outer loop
      vertex 0.906612 -10.4703 11.2255
      vertex 3.64619 -15.2154 0
      vertex 1.6808 -11.8112 9.99069
    endloop
  endfacet
  facet normal -0.866025 -0.5 0
    outer loop
      vertex -0.906025 -7.33072 16.0284
      vertex 3.64619 -15.2154 0
      vertex 0.906612 -10.4703 11.2255
    endloop
  endfacet
  facet normal -0.866025 -0.5 0
    outer loop
      vertex 0.476972 -9.72614 14.9902
      vertex -0.906025 -7.33072 16.0284
      vertex 0.476972 -9.72614 13.0098
    endloop
  endfacet
  facet normal -0.866025 -0.5 0
    outer loop
      vertex -0.906025 -7.33072 16.0284
      vertex 0.476972 -9.72614 14.9902
      vertex 0.906612 -10.4703 16.7745
    endloop
  endfacet
  facet normal -0.866025 -0.5 0
    outer loop
      vertex 0.906612 -10.4703 16.7745
      vertex 1.6808 -11.8112 18.0093
      vertex -0.906025 -7.33072 16.0284
    endloop
  endfacet
  facet normal -0.866025 -0.5 0
    outer loop
      vertex 1.6808 -11.8112 18.0093
      vertex 3.64619 -15.2154 28
      vertex -0.906025 -7.33072 16.0284
    endloop
  endfacet
  facet normal -0.866025 -0.5 0
    outer loop
      vertex 2.64619 -13.4833 18.45
      vertex 3.64619 -15.2154 28
      vertex 1.6808 -11.8112 18.0093
    endloop
  endfacet
  facet normal -0.866025 -0.5 0
    outer loop
      vertex 3.61158 -15.1554 18.0093
      vertex 3.64619 -15.2154 17.9541
      vertex 3.64619 -15.2154 28
    endloop
  endfacet
  facet normal -0.866025 -0.5 0
    outer loop
      vertex 3.61158 -15.1554 18.0093
      vertex 3.64619 -15.2154 28
      vertex 2.64619 -13.4833 18.45
    endloop
  endfacet
  facet normal -0.866025 -0.5 0
    outer loop
      vertex 0.476972 -9.72614 13.0098
      vertex -0.906025 -7.33072 16.0284
      vertex 0.906612 -10.4703 11.2255
    endloop
  endfacet
  facet normal -0.866025 -0.5 0
    outer loop
      vertex 3.64619 -15.2154 0
      vertex 7.3453 -21.6224 13.0122
      vertex 3.64619 -15.2154 10.0459
    endloop
  endfacet
  facet normal -0.866025 -0.5 0
    outer loop
      vertex 3.64619 -15.2154 17.9541
      vertex 7.3453 -21.6224 13.0122
      vertex 3.64619 -15.2154 28
    endloop
  endfacet
  facet normal -0.866025 -0.5 0
    outer loop
      vertex 4.38576 -16.4964 16.7745
      vertex 7.3453 -21.6224 13.0122
      vertex 3.64619 -15.2154 17.9541
    endloop
  endfacet
  facet normal -0.866025 -0.5 0
    outer loop
      vertex 4.8154 -17.2405 14.9902
      vertex 7.3453 -21.6224 13.0122
      vertex 4.38576 -16.4964 16.7745
    endloop
  endfacet
  facet normal -0.866025 -0.5 0
    outer loop
      vertex 4.8154 -17.2405 13.0098
      vertex 7.3453 -21.6224 13.0122
      vertex 4.8154 -17.2405 14.9902
    endloop
  endfacet
  facet normal -0.866025 -0.5 0
    outer loop
      vertex 4.38576 -16.4964 11.2255
      vertex 7.3453 -21.6224 13.0122
      vertex 4.8154 -17.2405 13.0098
    endloop
  endfacet
  facet normal -0.866025 -0.5 0
    outer loop
      vertex 3.64619 -15.2154 10.0459
      vertex 7.3453 -21.6224 13.0122
      vertex 4.38576 -16.4964 11.2255
    endloop
  endfacet
  facet normal 0.866025 0.5 -7.03957e-16
    outer loop
      vertex 16.4632 -13.6152 7.67672
      vertex 13.9519 -9.26538 0
      vertex 15.7292 -12.3437 6.35479
    endloop
  endfacet
  facet normal 0.866025 0.5 -5.16076e-16
    outer loop
      vertex 15.7292 -12.3437 6.35479
      vertex 13.9519 -9.26538 0
      vertex 14.8737 -10.862 5.367
    endloop
  endfacet
  facet normal 0.866025 0.5 -4.89999e-16
    outer loop
      vertex 13.9519 -9.26538 0
      vertex 7.45 1.99622 0
      vertex 7.45 1.99622 0.636068
    endloop
  endfacet
  facet normal 0.866025 0.5 -4.89999e-16
    outer loop
      vertex 14.8737 -10.862 5.367
      vertex 13.9519 -9.26538 0
      vertex 7.45 1.99622 0.636068
    endloop
  endfacet
  facet normal 0.416013 -0.720555 -0.554738
    outer loop
      vertex 17.0439 -14.6208 9.275
      vertex 6.73816 -20.5708 9.275
      vertex 13.9519 -9.26538 0
    endloop
  endfacet
  facet normal 0.866025 0.5 -2.90811e-15
    outer loop
      vertex 17.0439 -14.6208 9.275
      vertex 13.9519 -9.26538 0
      vertex 16.4632 -13.6152 7.67672
    endloop
  endfacet
  facet normal 1 0 0
    outer loop
      vertex 7.45 1.99622 0.636068
      vertex 7.45 1.99622 0
      vertex 7.45 7.45 0
    endloop
  endfacet
  facet normal 1 0 0
    outer loop
      vertex 7.45 1.99622 0.68369
      vertex 7.45 1.99622 0.636068
      vertex 7.45 7.45 28
    endloop
  endfacet
  facet normal 1 0 0
    outer loop
      vertex 7.45 7.45 28
      vertex 7.45 1.99622 0.636068
      vertex 7.45 7.45 0
    endloop
  endfacet
  facet normal 1 0 0
    outer loop
      vertex 7.45 1.99622 28
      vertex 7.45 1.99622 27.3639
      vertex 7.45 7.45 28
    endloop
  endfacet
  facet normal 1 0 0
    outer loop
      vertex 7.45 1.99622 27.3639
      vertex 7.45 1.99622 27.3163
      vertex 7.45 7.45 28
    endloop
  endfacet
  facet normal 1 0 0
    outer loop
      vertex 7.45 1.99622 27.3163
      vertex 7.45 1.99622 27.2346
      vertex 7.45 7.45 28
    endloop
  endfacet
  facet normal 1 0 0
    outer loop
      vertex 7.45 1.99622 27.2346
      vertex 7.45 1.99622 27.126
      vertex 7.45 7.45 28
    endloop
  endfacet
  facet normal 1 0 0
    outer loop
      vertex 7.45 1.99622 27.126
      vertex 7.45 1.99622 26.9941
      vertex 7.45 7.45 28
    endloop
  endfacet
  facet normal 1 0 0
    outer loop
      vertex 7.45 1.99622 26.9941
      vertex 7.45 1.99622 26.8403
      vertex 7.45 7.45 28
    endloop
  endfacet
  facet normal 1 0 0
    outer loop
      vertex 7.45 1.99622 26.8403
      vertex 7.45 1.99622 1.33577
      vertex 7.45 7.45 28
    endloop
  endfacet
  facet normal 1 0 0
    outer loop
      vertex 7.45 1.99622 1.33577
      vertex 7.45 1.99622 1.1597
      vertex 7.45 7.45 28
    endloop
  endfacet
  facet normal 1 0 0
    outer loop
      vertex 7.45 1.99622 1.1597
      vertex 7.45 1.99622 1.00592
      vertex 7.45 7.45 28
    endloop
  endfacet
  facet normal 1 0 0
    outer loop
      vertex 7.45 1.99622 1.00592
      vertex 7.45 1.99622 0.874009
      vertex 7.45 7.45 28
    endloop
  endfacet
  facet normal 1 0 0
    outer loop
      vertex 7.45 1.99622 0.874009
      vertex 7.45 1.99622 0.765352
      vertex 7.45 7.45 28
    endloop
  endfacet
  facet normal 1 0 0
    outer loop
      vertex 7.45 1.99622 0.765352
      vertex 7.45 1.99622 0.68369
      vertex 7.45 7.45 28
    endloop
  endfacet
  facet normal 0 1 0
    outer loop
      vertex 6.74637e-15 7.45 0
      vertex 6.74637e-15 7.45 28
      vertex 7.45 7.45 0
    endloop
  endfacet
  facet normal 0 1 0
    outer loop
      vertex 7.45 7.45 0
      vertex 6.74637e-15 7.45 28
      vertex 7.45 7.45 28
    endloop
  endfacet
  facet normal 0.130526 0.991445 0
    outer loop
      vertex 0 7.45 0
      vertex 0 7.45 28
      vertex 6.74637e-15 7.45 0
    endloop
  endfacet
  facet normal 0.130526 0.991445 0
    outer loop
      vertex 6.74637e-15 7.45 0
      vertex 0 7.45 28
      vertex 6.74637e-15 7.45 28
    endloop
  endfacet
  facet normal -0.130526 0.991445 0
    outer loop
      vertex -1.9282 7.19615 0
      vertex -1.9282 7.19615 28
      vertex 0 7.45 0
    endloop
  endfacet
  facet normal -0.130526 0.991445 0
    outer loop
      vertex 0 7.45 0
      vertex -1.9282 7.19615 28
      vertex 0 7.45 28
    endloop
  endfacet
  facet normal -0.382683 0.92388 0
    outer loop
      vertex -3.725 6.45189 0
      vertex -3.725 6.45189 28
      vertex -1.9282 7.19615 0
    endloop
  endfacet
  facet normal -0.382683 0.92388 0
    outer loop
      vertex -1.9282 7.19615 0
      vertex -3.725 6.45189 28
      vertex -1.9282 7.19615 28
    endloop
  endfacet
  facet normal -0.608761 0.793354 0
    outer loop
      vertex -5.26795 5.26795 0
      vertex -5.26795 5.26795 28
      vertex -3.725 6.45189 0
    endloop
  endfacet
  facet normal -0.608761 0.793354 0
    outer loop
      vertex -3.725 6.45189 0
      vertex -5.26795 5.26795 28
      vertex -3.725 6.45189 28
    endloop
  endfacet
  facet normal -0.793354 0.608761 0
    outer loop
      vertex -6.45189 3.725 0
      vertex -6.45189 3.725 28
      vertex -5.26795 5.26795 0
    endloop
  endfacet
  facet normal -0.793354 0.608761 0
    outer loop
      vertex -5.26795 5.26795 0
      vertex -6.45189 3.725 28
      vertex -5.26795 5.26795 28
    endloop
  endfacet
  facet normal -0.92388 0.382683 0
    outer loop
      vertex -7.19615 1.9282 0
      vertex -7.19615 1.9282 28
      vertex -6.45189 3.725 0
    endloop
  endfacet
  facet normal -0.92388 0.382683 0
    outer loop
      vertex -6.45189 3.725 0
      vertex -7.19615 1.9282 28
      vertex -6.45189 3.725 28
    endloop
  endfacet
  facet normal 0.974928 -0.222521 0
    outer loop
      vertex -4.00931 1.93078 0
      vertex -4.00931 1.93078 28
      vertex -4.45 0 28
    endloop
  endfacet
  facet normal 0.974928 -0.222521 0
    outer loop
      vertex -4.45 0 0
      vertex -4.00931 1.93078 0
      vertex -4.45 0 28
    endloop
  endfacet
  facet normal 0.974928 0.222521 0
    outer loop
      vertex -4.45 0 28
      vertex -4.00931 -1.93078 28
      vertex -4.00931 -1.93078 0
    endloop
  endfacet
  facet normal 0.974928 0.222521 0
    outer loop
      vertex -4.45 0 0
      vertex -4.45 0 28
      vertex -4.00931 -1.93078 0
    endloop
  endfacet
  facet normal 0.781832 -0.62349 0
    outer loop
      vertex -2.77453 3.47915 0
      vertex -2.77453 3.47915 28
      vertex -4.00931 1.93078 28
    endloop
  endfacet
  facet normal 0.781832 -0.62349 0
    outer loop
      vertex -4.00931 1.93078 0
      vertex -2.77453 3.47915 0
      vertex -4.00931 1.93078 28
    endloop
  endfacet
  facet normal 0.433884 -0.900969 0
    outer loop
      vertex -0.990218 4.33843 0
      vertex -0.990218 4.33843 28
      vertex -2.77453 3.47915 28
    endloop
  endfacet
  facet normal 0.433884 -0.900969 0
    outer loop
      vertex -2.77453 3.47915 0
      vertex -0.990218 4.33843 0
      vertex -2.77453 3.47915 28
    endloop
  endfacet
  facet normal 0 -1 0
    outer loop
      vertex 0.990218 4.33843 0
      vertex 0.990218 4.33843 28
      vertex -0.990218 4.33843 28
    endloop
  endfacet
  facet normal 0 -1 0
    outer loop
      vertex -0.990218 4.33843 0
      vertex 0.990218 4.33843 0
      vertex -0.990218 4.33843 28
    endloop
  endfacet
  facet normal -0.433884 -0.900969 0
    outer loop
      vertex 2.77453 3.47915 0
      vertex 2.77453 3.47915 28
      vertex 0.990218 4.33843 28
    endloop
  endfacet
  facet normal -0.433884 -0.900969 0
    outer loop
      vertex 0.990218 4.33843 0
      vertex 2.77453 3.47915 0
      vertex 0.990218 4.33843 28
    endloop
  endfacet
  facet normal -0.781832 -0.62349 0
    outer loop
      vertex 4.00931 1.93078 28
      vertex 2.77453 3.47915 28
      vertex 4.00931 1.93078 0
    endloop
  endfacet
  facet normal -0.781832 -0.62349 0
    outer loop
      vertex 4.00931 1.93078 0
      vertex 2.77453 3.47915 28
      vertex 2.77453 3.47915 0
    endloop
  endfacet
  facet normal -0.974928 -0.222521 0
    outer loop
      vertex 4.45 0 28
      vertex 4.00931 1.93078 28
      vertex 4.45 0 0
    endloop
  endfacet
  facet normal -0.974928 -0.222521 0
    outer loop
      vertex 4.45 0 0
      vertex 4.00931 1.93078 28
      vertex 4.00931 1.93078 0
    endloop
  endfacet
  facet normal -0.974928 0.222521 0
    outer loop
      vertex 4.45 0 28
      vertex 4.45 0 0
      vertex 4.00931 -1.93078 28
    endloop
  endfacet
  facet normal -0.974928 0.222521 0
    outer loop
      vertex 4.00931 -1.93078 28
      vertex 4.45 0 0
      vertex 4.00931 -1.93078 0
    endloop
  endfacet
  facet normal -0.781832 0.62349 0
    outer loop
      vertex 4.00931 -1.93078 28
      vertex 4.00931 -1.93078 0
      vertex 2.77453 -3.47915 28
    endloop
  endfacet
  facet normal -0.781832 0.62349 0
    outer loop
      vertex 2.77453 -3.47915 28
      vertex 4.00931 -1.93078 0
      vertex 2.77453 -3.47915 0
    endloop
  endfacet
  facet normal -0.433884 0.900969 0
    outer loop
      vertex 2.77453 -3.47915 28
      vertex 2.77453 -3.47915 0
      vertex 0.990218 -4.33843 28
    endloop
  endfacet
  facet normal -0.433884 0.900969 0
    outer loop
      vertex 0.990218 -4.33843 28
      vertex 2.77453 -3.47915 0
      vertex 0.990218 -4.33843 0
    endloop
  endfacet
  facet normal 0 1 0
    outer loop
      vertex 0.990218 -4.33843 28
      vertex 0.990218 -4.33843 0
      vertex -0.990218 -4.33843 28
    endloop
  endfacet
  facet normal 0 1 0
    outer loop
      vertex -0.990218 -4.33843 28
      vertex 0.990218 -4.33843 0
      vertex -0.990218 -4.33843 0
    endloop
  endfacet
  facet normal 0.433884 0.900969 0
    outer loop
      vertex -0.990218 -4.33843 28
      vertex -0.990218 -4.33843 0
      vertex -2.77453 -3.47915 28
    endloop
  endfacet
  facet normal 0.433884 0.900969 0
    outer loop
      vertex -2.77453 -3.47915 28
      vertex -0.990218 -4.33843 0
      vertex -2.77453 -3.47915 0
    endloop
  endfacet
  facet normal 0.781832 0.62349 0
    outer loop
      vertex -4.00931 -1.93078 28
      vertex -2.77453 -3.47915 28
      vertex -2.77453 -3.47915 0
    endloop
  endfacet
  facet normal 0.781832 0.62349 0
    outer loop
      vertex -4.00931 -1.93078 0
      vertex -4.00931 -1.93078 28
      vertex -2.77453 -3.47915 0
    endloop
  endfacet
  facet normal 0 0 1
    outer loop
      vertex -7.19615 1.9282 28
      vertex -7.45 0 28
      vertex -7.19615 -1.9282 28
    endloop
  endfacet
  facet normal 0 0 1
    outer loop
      vertex -5.26795 -5.26795 28
      vertex -7.19615 1.9282 28
      vertex -6.45189 -3.725 28
    endloop
  endfacet
  facet normal 0 0 1
    outer loop
      vertex -6.45189 -3.725 28
      vertex -7.19615 1.9282 28
      vertex -7.19615 -1.9282 28
    endloop
  endfacet
  facet normal 0 0 1
    outer loop
      vertex -3.725 -6.45189 28
      vertex -7.19615 1.9282 28
      vertex -5.26795 -5.26795 28
    endloop
  endfacet
  facet normal 0 0 1
    outer loop
      vertex -1.9282 -7.19615 28
      vertex -7.19615 1.9282 28
      vertex -3.725 -6.45189 28
    endloop
  endfacet
  facet normal 0 0 1
    outer loop
      vertex -0.906025 -7.33072 28
      vertex -7.19615 1.9282 28
      vertex -1.9282 -7.19615 28
    endloop
  endfacet
  facet normal 0 0 1
    outer loop
      vertex -4.00931 -1.93078 28
      vertex -7.19615 1.9282 28
      vertex -0.906025 -7.33072 28
    endloop
  endfacet
  facet normal 0 0 1
    outer loop
      vertex 3.64619 -15.2154 28
      vertex 13.9519 -9.26538 28
      vertex -0.906025 -7.33072 28
    endloop
  endfacet
  facet normal 0 0 1
    outer loop
      vertex 4.00931 -1.93078 28
      vertex 2.77453 -3.47915 28
      vertex 13.9519 -9.26538 28
    endloop
  endfacet
  facet normal 0 0 1
    outer loop
      vertex 0 7.45 28
      vertex -7.19615 1.9282 28
      vertex 6.74637e-15 7.45 28
    endloop
  endfacet
  facet normal 0 0 1
    outer loop
      vertex -1.9282 7.19615 28
      vertex -7.19615 1.9282 28
      vertex 0 7.45 28
    endloop
  endfacet
  facet normal 0 0 1
    outer loop
      vertex -3.725 6.45189 28
      vertex -7.19615 1.9282 28
      vertex -1.9282 7.19615 28
    endloop
  endfacet
  facet normal 0 0 1
    outer loop
      vertex -5.26795 5.26795 28
      vertex -7.19615 1.9282 28
      vertex -3.725 6.45189 28
    endloop
  endfacet
  facet normal 0 0 1
    outer loop
      vertex -6.45189 3.725 28
      vertex -7.19615 1.9282 28
      vertex -5.26795 5.26795 28
    endloop
  endfacet
  facet normal 0 0 1
    outer loop
      vertex -2.77453 -3.47915 28
      vertex -4.00931 -1.93078 28
      vertex -0.906025 -7.33072 28
    endloop
  endfacet
  facet normal 0 0 1
    outer loop
      vertex -4.45 0 28
      vertex -7.19615 1.9282 28
      vertex -4.00931 -1.93078 28
    endloop
  endfacet
  facet normal 0 0 1
    outer loop
      vertex 2.77453 3.47915 28
      vertex 4.00931 1.93078 28
      vertex 7.45 1.99622 28
    endloop
  endfacet
  facet normal 0 0 1
    outer loop
      vertex -2.77453 3.47915 28
      vertex -0.990218 4.33843 28
      vertex -7.19615 1.9282 28
    endloop
  endfacet
  facet normal 0 0 1
    outer loop
      vertex 2.77453 -3.47915 28
      vertex 0.990218 -4.33843 28
      vertex 13.9519 -9.26538 28
    endloop
  endfacet
  facet normal 0 0 1
    outer loop
      vertex -0.990218 4.33843 28
      vertex 0.990218 4.33843 28
      vertex 7.45 7.45 28
    endloop
  endfacet
  facet normal 0 0 1
    outer loop
      vertex 6.74637e-15 7.45 28
      vertex -0.990218 4.33843 28
      vertex 7.45 7.45 28
    endloop
  endfacet
  facet normal 0 0 1
    outer loop
      vertex 6.74637e-15 7.45 28
      vertex -7.19615 1.9282 28
      vertex -0.990218 4.33843 28
    endloop
  endfacet
  facet normal 0 0 1
    outer loop
      vertex 7.45 7.45 28
      vertex 0.990218 4.33843 28
      vertex 7.45 1.99622 28
    endloop
  endfacet
  facet normal 0 0 1
    outer loop
      vertex 0.990218 4.33843 28
      vertex 2.77453 3.47915 28
      vertex 7.45 1.99622 28
    endloop
  endfacet
  facet normal 0 0 1
    outer loop
      vertex 7.45 1.99622 28
      vertex 4.00931 1.93078 28
      vertex 13.9519 -9.26538 28
    endloop
  endfacet
  facet normal 0 0 1
    outer loop
      vertex 4.00931 1.93078 28
      vertex 4.45 0 28
      vertex 13.9519 -9.26538 28
    endloop
  endfacet
  facet normal 0 0 1
    outer loop
      vertex 4.45 0 28
      vertex 4.00931 -1.93078 28
      vertex 13.9519 -9.26538 28
    endloop
  endfacet
  facet normal 0 0 1
    outer loop
      vertex -4.00931 1.93078 28
      vertex -2.77453 3.47915 28
      vertex -7.19615 1.9282 28
    endloop
  endfacet
  facet normal 0 0 1
    outer loop
      vertex 13.9519 -9.26538 28
      vertex 0.990218 -4.33843 28
      vertex -0.906025 -7.33072 28
    endloop
  endfacet
  facet normal 0 0 1
    outer loop
      vertex 0.990218 -4.33843 28
      vertex -0.990218 -4.33843 28
      vertex -0.906025 -7.33072 28
    endloop
  endfacet
  facet normal 0 0 1
    outer loop
      vertex -0.990218 -4.33843 28
      vertex -2.77453 -3.47915 28
      vertex -0.906025 -7.33072 28
    endloop
  endfacet
  facet normal 0 0 1
    outer loop
      vertex -4.45 0 28
      vertex -4.00931 1.93078 28
      vertex -7.19615 1.9282 28
    endloop
  endfacet
  facet normal -0.866025 -0.5 2.38599e-17
    outer loop
      vertex -0.906025 -7.33072 28
      vertex -0.906025 -7.33072 17.6064
      vertex 3.64619 -15.2154 28
    endloop
  endfacet
  facet normal -0.866025 -0.5 6.04815e-33
    outer loop
      vertex -0.906025 -7.33072 17.6064
      vertex -0.906025 -7.33072 16.0284
      vertex 3.64619 -15.2154 28
    endloop
  endfacet
  facet normal -0.866025 -0.5 1.15946e-31
    outer loop
      vertex 7.3453 -21.6224 14.9878
      vertex 3.64619 -15.2154 28
      vertex 7.3453 -21.6224 13.0122
    endloop
  endfacet
  facet normal 0.5 -0.866025 2.22045e-16
    outer loop
      vertex 17.651 -15.6724 14.9878
      vertex 7.3453 -21.6224 14.9878
      vertex 7.3453 -21.6224 13.0122
    endloop
  endfacet
  facet normal 0.5 -0.866025 2.22045e-16
    outer loop
      vertex 17.651 -15.6724 13.0122
      vertex 17.651 -15.6724 14.9878
      vertex 7.3453 -21.6224 13.0122
    endloop
  endfacet
  facet normal 0.489074 -0.847101 -0.207912
    outer loop
      vertex 7.3453 -21.6224 13.0122
      vertex 7.13993 -21.2667 11.0798
      vertex 17.4456 -15.3167 11.0798
    endloop
  endfacet
  facet normal 0.489074 -0.847101 -0.207912
    outer loop
      vertex 17.651 -15.6724 13.0122
      vertex 7.3453 -21.6224 13.0122
      vertex 17.4456 -15.3167 11.0798
    endloop
  endfacet
  facet normal 0.456773 -0.791154 -0.406737
    outer loop
      vertex 7.13993 -21.2667 11.0798
      vertex 6.73816 -20.5708 9.275
      vertex 17.0439 -14.6208 9.275
    endloop
  endfacet
  facet normal 0.456773 -0.791154 -0.406737
    outer loop
      vertex 17.4456 -15.3167 11.0798
      vertex 7.13993 -21.2667 11.0798
      vertex 17.0439 -14.6208 9.275
    endloop
  endfacet
  facet normal -0.866025 -0.5 4.81204e-16
    outer loop
      vertex 6.73816 -20.5708 18.725
      vertex 3.64619 -15.2154 28
      vertex 7.13993 -21.2667 16.9202
    endloop
  endfacet
  facet normal -0.866025 -0.5 1.01885e-16
    outer loop
      vertex 7.13993 -21.2667 16.9202
      vertex 3.64619 -15.2154 28
      vertex 7.3453 -21.6224 14.9878
    endloop
  endfacet
  facet normal 0.416013 -0.720555 0.554738
    outer loop
      vertex 13.9519 -9.26538 28
      vertex 3.64619 -15.2154 28
      vertex 6.73816 -20.5708 18.725
    endloop
  endfacet
  facet normal -0.311745 0.539958 -0.781832
    outer loop
      vertex 14.6915 -10.5464 16.7745
      vertex 4.38576 -16.4964 16.7745
      vertex 13.9173 -9.20544 18.0093
    endloop
  endfacet
  facet normal -0.311745 0.539958 -0.781832
    outer loop
      vertex 13.9173 -9.20544 18.0093
      vertex 4.38576 -16.4964 16.7745
      vertex 3.64619 -15.2154 17.9541
    endloop
  endfacet
  facet normal -0.311745 0.539958 -0.781832
    outer loop
      vertex 13.9173 -9.20544 18.0093
      vertex 3.64619 -15.2154 17.9541
      vertex 3.61158 -15.1554 18.0093
    endloop
  endfacet
  facet normal -0.111261 0.192709 -0.974928
    outer loop
      vertex 13.9173 -9.20544 18.0093
      vertex 3.61158 -15.1554 18.0093
      vertex 12.9519 -7.53333 18.45
    endloop
  endfacet
  facet normal -0.111261 0.192709 -0.974928
    outer loop
      vertex 12.9519 -7.53333 18.45
      vertex 3.61158 -15.1554 18.0093
      vertex 2.64619 -13.4833 18.45
    endloop
  endfacet
  facet normal 0.111261 -0.192709 -0.974928
    outer loop
      vertex 12.9519 -7.53333 18.45
      vertex 2.64619 -13.4833 18.45
      vertex 11.9865 -5.86122 18.0093
    endloop
  endfacet
  facet normal 0.111261 -0.192709 -0.974928
    outer loop
      vertex 11.9865 -5.86122 18.0093
      vertex 2.64619 -13.4833 18.45
      vertex 1.6808 -11.8112 18.0093
    endloop
  endfacet
  facet normal 0.311745 -0.539958 -0.781832
    outer loop
      vertex 11.9865 -5.86122 18.0093
      vertex 1.6808 -11.8112 18.0093
      vertex 11.2123 -4.5203 16.7745
    endloop
  endfacet
  facet normal 0.311745 -0.539958 -0.781832
    outer loop
      vertex 11.2123 -4.5203 16.7745
      vertex 1.6808 -11.8112 18.0093
      vertex 0.906612 -10.4703 16.7745
    endloop
  endfacet
  facet normal 0.450484 -0.780262 -0.433884
    outer loop
      vertex 10.7827 -3.77614 14.9902
      vertex 11.2123 -4.5203 16.7745
      vertex 0.906612 -10.4703 16.7745
    endloop
  endfacet
  facet normal 0.450484 -0.780262 -0.433884
    outer loop
      vertex 0.476972 -9.72614 14.9902
      vertex 10.7827 -3.77614 14.9902
      vertex 0.906612 -10.4703 16.7745
    endloop
  endfacet
  facet normal 0.5 -0.866025 2.22045e-16
    outer loop
      vertex 0.476972 -9.72614 13.0098
      vertex 10.7827 -3.77614 13.0098
      vertex 10.7827 -3.77614 14.9902
    endloop
  endfacet
  facet normal 0.5 -0.866025 2.22045e-16
    outer loop
      vertex 0.476972 -9.72614 14.9902
      vertex 0.476972 -9.72614 13.0098
      vertex 10.7827 -3.77614 14.9902
    endloop
  endfacet
  facet normal 0.450484 -0.780262 0.433884
    outer loop
      vertex 0.906612 -10.4703 11.2255
      vertex 11.2123 -4.5203 11.2255
      vertex 10.7827 -3.77614 13.0098
    endloop
  endfacet
  facet normal 0.450484 -0.780262 0.433884
    outer loop
      vertex 0.476972 -9.72614 13.0098
      vertex 0.906612 -10.4703 11.2255
      vertex 10.7827 -3.77614 13.0098
    endloop
  endfacet
  facet normal 0.311745 -0.539958 0.781832
    outer loop
      vertex 1.6808 -11.8112 9.99069
      vertex 11.9865 -5.86122 9.99069
      vertex 11.2123 -4.5203 11.2255
    endloop
  endfacet
  facet normal 0.311745 -0.539958 0.781832
    outer loop
      vertex 0.906612 -10.4703 11.2255
      vertex 1.6808 -11.8112 9.99069
      vertex 11.2123 -4.5203 11.2255
    endloop
  endfacet
  facet normal 0.111261 -0.192709 0.974928
    outer loop
      vertex 2.64619 -13.4833 9.55
      vertex 12.9519 -7.53333 9.55
      vertex 11.9865 -5.86122 9.99069
    endloop
  endfacet
  facet normal 0.111261 -0.192709 0.974928
    outer loop
      vertex 1.6808 -11.8112 9.99069
      vertex 2.64619 -13.4833 9.55
      vertex 11.9865 -5.86122 9.99069
    endloop
  endfacet
  facet normal -0.111261 0.192709 0.974928
    outer loop
      vertex 3.61158 -15.1554 9.99069
      vertex 13.9173 -9.20544 9.99069
      vertex 13.917 -9.20493 9.99056
    endloop
  endfacet
  facet normal -0.111261 0.192709 0.974928
    outer loop
      vertex 2.64619 -13.4833 9.55
      vertex 3.61158 -15.1554 9.99069
      vertex 12.9519 -7.53333 9.55
    endloop
  endfacet
  facet normal -0.111261 0.192709 0.974928
    outer loop
      vertex 12.9519 -7.53333 9.55
      vertex 3.61158 -15.1554 9.99069
      vertex 13.917 -9.20493 9.99056
    endloop
  endfacet
  facet normal -0.311745 0.539958 0.781832
    outer loop
      vertex 3.64619 -15.2154 10.0459
      vertex 4.38576 -16.4964 11.2255
      vertex 14.6915 -10.5464 11.2255
    endloop
  endfacet
  facet normal -0.311745 0.539958 0.781832
    outer loop
      vertex 13.9173 -9.20544 9.99069
      vertex 3.64619 -15.2154 10.0459
      vertex 13.9183 -9.20716 9.99228
    endloop
  endfacet
  facet normal -0.311745 0.539958 0.781832
    outer loop
      vertex 13.9183 -9.20716 9.99228
      vertex 3.64619 -15.2154 10.0459
      vertex 14.6915 -10.5464 11.2255
    endloop
  endfacet
  facet normal -0.311745 0.539958 0.781832
    outer loop
      vertex 3.61158 -15.1554 9.99069
      vertex 3.64619 -15.2154 10.0459
      vertex 13.9173 -9.20544 9.99069
    endloop
  endfacet
  facet normal -0.450484 0.780262 0.433884
    outer loop
      vertex 15.1211 -11.2905 13.0098
      vertex 14.6915 -10.5464 11.2255
      vertex 4.8154 -17.2405 13.0098
    endloop
  endfacet
  facet normal -0.450484 0.780262 0.433884
    outer loop
      vertex 4.8154 -17.2405 13.0098
      vertex 14.6915 -10.5464 11.2255
      vertex 4.38576 -16.4964 11.2255
    endloop
  endfacet
  facet normal -0.5 0.866025 -2.22045e-16
    outer loop
      vertex 15.1211 -11.2905 13.0098
      vertex 4.8154 -17.2405 13.0098
      vertex 15.1211 -11.2905 14.9902
    endloop
  endfacet
  facet normal -0.5 0.866025 -2.22045e-16
    outer loop
      vertex 15.1211 -11.2905 14.9902
      vertex 4.8154 -17.2405 13.0098
      vertex 4.8154 -17.2405 14.9902
    endloop
  endfacet
  facet normal -0.450484 0.780262 -0.433884
    outer loop
      vertex 15.1211 -11.2905 14.9902
      vertex 4.8154 -17.2405 14.9902
      vertex 14.6915 -10.5464 16.7745
    endloop
  endfacet
  facet normal -0.450484 0.780262 -0.433884
    outer loop
      vertex 14.6915 -10.5464 16.7745
      vertex 4.8154 -17.2405 14.9902
      vertex 4.38576 -16.4964 16.7745
    endloop
  endfacet
  facet normal 0.866025 0.5 -1.07249e-16
    outer loop
      vertex 15.7292 -12.3437 6.35479
      vertex 7.45 1.99622 0.68369
      vertex 7.45 1.99622 0.765352
    endloop
  endfacet
  facet normal 0.866025 0.5 -1.07249e-16
    outer loop
      vertex 16.4632 -13.6152 7.67672
      vertex 15.7292 -12.3437 6.35479
      vertex 7.45 1.99622 0.765352
    endloop
  endfacet
  facet normal 0.866025 0.5 -5.58401e-17
    outer loop
      vertex 16.4632 -13.6152 7.67672
      vertex 7.45 1.99622 0.765352
      vertex 7.45 1.99622 0.874009
    endloop
  endfacet
  facet normal 0.866025 0.5 -5.58401e-17
    outer loop
      vertex 17.0439 -14.6208 9.275
      vertex 16.4632 -13.6152 7.67672
      vertex 7.45 1.99622 0.874009
    endloop
  endfacet
  facet normal 0.866025 0.5 -2.54773e-16
    outer loop
      vertex 14.8737 -10.862 5.367
      vertex 7.45 1.99622 0.636068
      vertex 7.45 1.99622 0.68369
    endloop
  endfacet
  facet normal 0.866025 0.5 -2.54773e-16
    outer loop
      vertex 15.7292 -12.3437 6.35479
      vertex 14.8737 -10.862 5.367
      vertex 7.45 1.99622 0.68369
    endloop
  endfacet
  facet normal 0.866025 0.5 -2.89838e-17
    outer loop
      vertex 17.0439 -14.6208 9.275
      vertex 7.45 1.99622 0.874009
      vertex 7.45 1.99622 1.00592
    endloop
  endfacet
  facet normal 0.866025 0.5 -2.89838e-17
    outer loop
      vertex 17.4456 -15.3167 11.0798
      vertex 17.0439 -14.6208 9.275
      vertex 7.45 1.99622 1.00592
    endloop
  endfacet
  facet normal 0.866025 0.5 -1.20202e-17
    outer loop
      vertex 17.4456 -15.3167 11.0798
      vertex 7.45 1.99622 1.00592
      vertex 7.45 1.99622 1.1597
    endloop
  endfacet
  facet normal 0.866025 0.5 -1.20202e-17
    outer loop
      vertex 17.651 -15.6724 13.0122
      vertex 17.4456 -15.3167 11.0798
      vertex 7.45 1.99622 1.1597
    endloop
  endfacet
  facet normal 0.866025 0.5 -3.82976e-32
    outer loop
      vertex 17.651 -15.6724 13.0122
      vertex 7.45 1.99622 1.1597
      vertex 7.45 1.99622 1.33577
    endloop
  endfacet
  facet normal 0.866025 0.5 -3.82976e-32
    outer loop
      vertex 13.9173 -9.20544 9.99069
      vertex 17.651 -15.6724 13.0122
      vertex 7.45 1.99622 1.33577
    endloop
  endfacet
  facet normal 0.866025 0.5 -3.82976e-32
    outer loop
      vertex 13.917 -9.20493 9.99056
      vertex 13.9173 -9.20544 9.99069
      vertex 7.45 1.99622 1.33577
    endloop
  endfacet
  facet normal 0.866025 0.5 -3.82976e-32
    outer loop
      vertex 17.651 -15.6724 14.9878
      vertex 17.651 -15.6724 13.0122
      vertex 13.9183 -9.20716 9.99228
    endloop
  endfacet
  facet normal 0.866025 0.5 -3.82976e-32
    outer loop
      vertex 13.9173 -9.20544 9.99069
      vertex 13.9183 -9.20716 9.99228
      vertex 17.651 -15.6724 13.0122
    endloop
  endfacet
  facet normal 0.866025 0.5 0
    outer loop
      vertex 11.2123 -4.5203 16.7745
      vertex 7.45 1.99622 1.33577
      vertex 7.45 1.99622 26.8403
    endloop
  endfacet
  facet normal 0.866025 0.5 0
    outer loop
      vertex 17.651 -15.6724 14.9878
      vertex 13.9183 -9.20716 9.99228
      vertex 14.6915 -10.5464 11.2255
    endloop
  endfacet
  facet normal 0.866025 0.5 0
    outer loop
      vertex 17.651 -15.6724 14.9878
      vertex 14.6915 -10.5464 11.2255
      vertex 15.1211 -11.2905 13.0098
    endloop
  endfacet
  facet normal 0.866025 0.5 0
    outer loop
      vertex 17.651 -15.6724 14.9878
      vertex 15.1211 -11.2905 13.0098
      vertex 15.1211 -11.2905 14.9902
    endloop
  endfacet
  facet normal 0.866025 0.5 0
    outer loop
      vertex 17.651 -15.6724 14.9878
      vertex 15.1211 -11.2905 14.9902
      vertex 14.6915 -10.5464 16.7745
    endloop
  endfacet
  facet normal 0.866025 0.5 0
    outer loop
      vertex 17.651 -15.6724 14.9878
      vertex 13.9173 -9.20544 18.0093
      vertex 7.45 1.99622 26.8403
    endloop
  endfacet
  facet normal 0.866025 0.5 0
    outer loop
      vertex 17.651 -15.6724 14.9878
      vertex 14.6915 -10.5464 16.7745
      vertex 13.9173 -9.20544 18.0093
    endloop
  endfacet
  facet normal 0.866025 0.5 0
    outer loop
      vertex 10.7827 -3.77614 14.9902
      vertex 7.45 1.99622 1.33577
      vertex 11.2123 -4.5203 16.7745
    endloop
  endfacet
  facet normal 0.866025 0.5 0
    outer loop
      vertex 10.7827 -3.77614 13.0098
      vertex 7.45 1.99622 1.33577
      vertex 10.7827 -3.77614 14.9902
    endloop
  endfacet
  facet normal 0.866025 0.5 0
    outer loop
      vertex 11.2123 -4.5203 11.2255
      vertex 7.45 1.99622 1.33577
      vertex 10.7827 -3.77614 13.0098
    endloop
  endfacet
  facet normal 0.866025 0.5 0
    outer loop
      vertex 11.9865 -5.86122 9.99069
      vertex 7.45 1.99622 1.33577
      vertex 11.2123 -4.5203 11.2255
    endloop
  endfacet
  facet normal 0.866025 0.5 0
    outer loop
      vertex 12.9519 -7.53333 9.55
      vertex 7.45 1.99622 1.33577
      vertex 11.9865 -5.86122 9.99069
    endloop
  endfacet
  facet normal 0.866025 0.5 0
    outer loop
      vertex 13.917 -9.20493 9.99056
      vertex 7.45 1.99622 1.33577
      vertex 12.9519 -7.53333 9.55
    endloop
  endfacet
  facet normal 0.866025 0.5 0
    outer loop
      vertex 13.9173 -9.20544 18.0093
      vertex 12.9519 -7.53333 18.45
      vertex 7.45 1.99622 26.8403
    endloop
  endfacet
  facet normal 0.866025 0.5 0
    outer loop
      vertex 12.9519 -7.53333 18.45
      vertex 11.9865 -5.86122 18.0093
      vertex 7.45 1.99622 26.8403
    endloop
  endfacet
  facet normal 0.866025 0.5 0
    outer loop
      vertex 11.9865 -5.86122 18.0093
      vertex 11.2123 -4.5203 16.7745
      vertex 7.45 1.99622 26.8403
    endloop
  endfacet
  facet normal 0.866025 0.5 1.20202e-17
    outer loop
      vertex 7.45 1.99622 26.8403
      vertex 7.45 1.99622 26.9941
      vertex 17.4456 -15.3167 16.9202
    endloop
  endfacet
  facet normal 0.866025 0.5 1.20202e-17
    outer loop
      vertex 17.651 -15.6724 14.9878
      vertex 7.45 1.99622 26.8403
      vertex 17.4456 -15.3167 16.9202
    endloop
  endfacet
  facet normal 0.866025 0.5 2.89838e-17
    outer loop
      vertex 7.45 1.99622 26.9941
      vertex 7.45 1.99622 27.126
      vertex 17.0439 -14.6208 18.725
    endloop
  endfacet
  facet normal 0.866025 0.5 2.89838e-17
    outer loop
      vertex 17.4456 -15.3167 16.9202
      vertex 7.45 1.99622 26.9941
      vertex 17.0439 -14.6208 18.725
    endloop
  endfacet
  facet normal 0.866025 0.5 5.58401e-17
    outer loop
      vertex 7.45 1.99622 27.126
      vertex 7.45 1.99622 27.2346
      vertex 16.4632 -13.6152 20.3233
    endloop
  endfacet
  facet normal 0.866025 0.5 5.58401e-17
    outer loop
      vertex 17.0439 -14.6208 18.725
      vertex 7.45 1.99622 27.126
      vertex 16.4632 -13.6152 20.3233
    endloop
  endfacet
  facet normal 0.866025 0.5 1.07249e-16
    outer loop
      vertex 7.45 1.99622 27.2346
      vertex 7.45 1.99622 27.3163
      vertex 15.7292 -12.3437 21.6452
    endloop
  endfacet
  facet normal 0.866025 0.5 1.07249e-16
    outer loop
      vertex 16.4632 -13.6152 20.3233
      vertex 7.45 1.99622 27.2346
      vertex 15.7292 -12.3437 21.6452
    endloop
  endfacet
  facet normal 0.866025 0.5 2.54773e-16
    outer loop
      vertex 7.45 1.99622 27.3163
      vertex 7.45 1.99622 27.3639
      vertex 14.8737 -10.862 22.633
    endloop
  endfacet
  facet normal 0.866025 0.5 2.54773e-16
    outer loop
      vertex 15.7292 -12.3437 21.6452
      vertex 7.45 1.99622 27.3163
      vertex 14.8737 -10.862 22.633
    endloop
  endfacet
  facet normal 0.866025 0.5 4.89999e-16
    outer loop
      vertex 7.45 1.99622 27.3639
      vertex 7.45 1.99622 28
      vertex 13.9519 -9.26538 28
    endloop
  endfacet
  facet normal 0.866025 0.5 4.89999e-16
    outer loop
      vertex 14.8737 -10.862 22.633
      vertex 7.45 1.99622 27.3639
      vertex 13.9519 -9.26538 28
    endloop
  endfacet
  facet normal 0.866025 0.5 7.03957e-16
    outer loop
      vertex 15.7292 -12.3437 21.6452
      vertex 13.9519 -9.26538 28
      vertex 16.4632 -13.6152 20.3233
    endloop
  endfacet
  facet normal 0.866025 0.5 2.90811e-15
    outer loop
      vertex 16.4632 -13.6152 20.3233
      vertex 13.9519 -9.26538 28
      vertex 17.0439 -14.6208 18.725
    endloop
  endfacet
  facet normal 0.416013 -0.720555 0.554738
    outer loop
      vertex 13.9519 -9.26538 28
      vertex 6.73816 -20.5708 18.725
      vertex 17.0439 -14.6208 18.725
    endloop
  endfacet
  facet normal 0.866025 0.5 5.16076e-16
    outer loop
      vertex 14.8737 -10.862 22.633
      vertex 13.9519 -9.26538 28
      vertex 15.7292 -12.3437 21.6452
    endloop
  endfacet
  facet normal 0.489074 -0.847101 0.207912
    outer loop
      vertex 17.4456 -15.3167 16.9202
      vertex 7.13993 -21.2667 16.9202
      vertex 7.3453 -21.6224 14.9878
    endloop
  endfacet
  facet normal 0.489074 -0.847101 0.207912
    outer loop
      vertex 17.651 -15.6724 14.9878
      vertex 17.4456 -15.3167 16.9202
      vertex 7.3453 -21.6224 14.9878
    endloop
  endfacet
  facet normal 0.456773 -0.791154 0.406737
    outer loop
      vertex 17.0439 -14.6208 18.725
      vertex 6.73816 -20.5708 18.725
      vertex 7.13993 -21.2667 16.9202
    endloop
  endfacet
  facet normal 0.456773 -0.791154 0.406737
    outer loop
      vertex 17.4456 -15.3167 16.9202
      vertex 17.0439 -14.6208 18.725
      vertex 7.13993 -21.2667 16.9202
    endloop
  endfacet
endsolid OpenSCAD_Model
